<svg aria-hidden="true" style="width:0;height:0;position:absolute;overflow:hidden" xmlns="http://www.w3.org/2000/svg"><defs><symbol id="icon-instagram" viewBox="0 0 32 32"><path d="M16 0c-4.347 0-4.889.02-6.596.096C7.7.176 6.54.444 5.52.84c-1.052.408-1.945.956-2.835 1.845S1.246 4.466.84 5.52C.444 6.54.175 7.7.096 9.404.016 11.111 0 11.653 0 16s.02 4.889.096 6.596c.08 1.703.348 2.864.744 3.884a7.854 7.854 0 0 0 1.845 2.835A7.807 7.807 0 0 0 5.52 31.16c1.021.395 2.181.665 3.884.744 1.707.08 2.249.096 6.596.096s4.889-.02 6.596-.096c1.703-.08 2.864-.349 3.884-.744a7.867 7.867 0 0 0 2.835-1.845 7.799 7.799 0 0 0 1.845-2.835c.395-1.02.665-2.181.744-3.884.08-1.707.096-2.249.096-6.596s-.02-4.889-.096-6.596c-.08-1.703-.349-2.865-.744-3.884a7.859 7.859 0 0 0-1.845-2.835A7.786 7.786 0 0 0 26.48.84C25.46.444 24.299.175 22.596.096 20.889.016 20.347 0 16 0zm0 2.88c4.271 0 4.78.021 6.467.095 1.56.073 2.407.332 2.969.553.749.289 1.28.636 1.843 1.195a4.95 4.95 0 0 1 1.195 1.841c.219.563.48 1.409.551 2.969.076 1.688.093 2.195.093 6.467s-.02 4.78-.099 6.467c-.081 1.56-.341 2.407-.561 2.969-.299.749-.639 1.28-1.199 1.843a5.002 5.002 0 0 1-1.84 1.195c-.56.219-1.42.48-2.98.551-1.699.076-2.199.093-6.479.093-4.281 0-4.781-.02-6.479-.099-1.561-.081-2.421-.341-2.981-.561-.759-.299-1.28-.639-1.839-1.199a4.867 4.867 0 0 1-1.2-1.84c-.22-.56-.479-1.42-.56-2.98-.06-1.68-.081-2.199-.081-6.459 0-4.261.021-4.781.081-6.481.081-1.56.34-2.419.56-2.979.28-.76.639-1.28 1.2-1.841.559-.559 1.08-.919 1.839-1.197.56-.221 1.401-.481 2.961-.561 1.7-.06 2.2-.08 6.479-.08zm0 4.904A8.215 8.215 0 0 0 7.784 16c0 4.54 3.68 8.216 8.216 8.216 4.54 0 8.216-3.68 8.216-8.216 0-4.54-3.68-8.216-8.216-8.216zm0 13.549c-2.947 0-5.333-2.387-5.333-5.333s2.387-5.333 5.333-5.333 5.333 2.387 5.333 5.333-2.387 5.333-5.333 5.333zM26.461 7.46a1.921 1.921 0 0 1-3.84 0 1.92 1.92 0 0 1 3.84 0z"/></symbol><symbol id="icon-telegram" viewBox="0 0 32 32"><path d="m31.88 5.053-4.813 22.733c-.333 1.613-1.307 2-2.667 1.253l-7.333-5.427-3.547 3.427c-.4.4-.733.747-1.467.747-.96 0-.8-.36-1.12-1.267L8.4 18.266l-7.267-2.267c-1.573-.467-1.587-1.547.347-2.333L29.827 2.733c1.293-.573 2.533.32 2.053 2.32z"/></symbol><symbol id="icon-viber" viewBox="0 0 32 32"><path d="M15.197.003C12.63.038 7.108.459 4.018 3.29 1.725 5.57.923 8.931.83 13.094.75 17.241.657 25.027 8.163 27.149v3.227s-.051 1.293.803 1.56c1.053.333 1.653-.665 2.653-1.732l1.867-2.107c5.133.427 9.067-.559 9.52-.705 1.04-.333 6.908-1.081 7.868-8.869.987-8.041-.48-13.108-3.12-15.401l-.013-.003c-.8-.733-4-3.067-11.16-3.093 0 0-.528-.033-1.384-.021zm.09 2.262c.727-.004 1.173.027 1.173.027 6.053.013 8.948 1.84 9.628 2.453 2.227 1.905 3.371 6.475 2.533 13.189-.8 6.507-5.56 6.92-6.44 7.2-.373.12-3.84.973-8.203.693 0 0-3.252 3.921-4.265 4.935-.16.173-.347.227-.467.2-.173-.04-.227-.253-.213-.547l.027-5.359c-6.361-1.76-5.988-8.403-5.921-11.869.08-3.467.733-6.309 2.667-8.229 2.609-2.36 7.3-2.68 9.481-2.693zm.48 3.467h-.001a.4.4 0 0 0 .001.799l.143-.001c2.034 0 3.88.809 5.232 2.123l-.002-.002c1.453 1.413 2.161 3.307 2.188 5.787a.4.4 0 0 0 .4.4v-.012a.4.4 0 0 0 .4-.4 8.575 8.575 0 0 0-2.415-6.349l.002.002c-1.587-1.547-3.589-2.347-5.948-2.347zm-5.272.92a1.263 1.263 0 0 0-.826.163l.006-.003h-.016c-.547.32-1.051.72-1.531 1.253-.36.427-.561.852-.615 1.265a1.634 1.634 0 0 0 .07.733l-.003-.012.027.013a18.197 18.197 0 0 0 1.646 3.549l-.046-.082a20.684 20.684 0 0 0 3.101 4.237l-.008-.009.04.053.053.04.08.08a20.864 20.864 0 0 0 4.136 3.053l.104.054c1.76.96 2.829 1.413 3.469 1.6v.013c.187.053.357.08.531.08a2.447 2.447 0 0 0 1.471-.631l-.002.002a6.03 6.03 0 0 0 1.24-1.531v-.013c.307-.573.2-1.121-.24-1.495a18.139 18.139 0 0 0-2.781-2.007l-.085-.046c-.68-.373-1.373-.147-1.653.227l-.6.759c-.307.373-.867.32-.867.32l-.016.013c-4.16-1.067-5.267-5.279-5.267-5.279s-.053-.573.333-.867l.747-.6c.36-.293.613-.987.227-1.667a18.073 18.073 0 0 0-2.071-2.887l.017.02a1.127 1.127 0 0 0-.665-.399l-.007-.001zm5.964 1.187a.401.401 0 0 0 .001.8h.001a5.027 5.027 0 0 1 3.532 1.532l.001.001a4.646 4.646 0 0 1 1.199 3.44l.001-.014c.001.22.18.399.4.399l.013.016a.4.4 0 0 0 .4-.4v-.001c.04-1.587-.453-2.92-1.427-3.987s-2.333-1.667-4.067-1.787l-.028-.001-.029.001h.001zm.653 2.158H17.1a.407.407 0 0 0-.012.815h.001c1.32.067 1.96.733 2.04 2.107a.4.4 0 0 0 .4.387h.013a.4.4 0 0 0 .388-.4l-.001-.028v.001c-.093-1.787-1.067-2.788-2.8-2.881h-.016z"/></symbol><symbol id="icon-phone" viewBox="0 0 32 32"><path d="M22 20c-2 2-2 4-4 4s-4-2-6-4-4-4-4-6 2-2 4-4-4-8-6-8-6 6-6 6c0 4 4.109 12.109 8 16s12 8 16 8c0 0 6-4 6-6s-6-8-8-6z"/></symbol><symbol id="icon-envelop" viewBox="0 0 32 32"><path d="M29 4H3C1.35 4 0 5.35 0 7v20c0 1.65 1.35 3 3 3h26c1.65 0 3-1.35 3-3V7c0-1.65-1.35-3-3-3zM12.461 17.199 4 23.789V8.113l8.461 9.086zM5.512 8h20.976L16 15.875 5.512 8zm7.278 9.553L16 21l3.21-3.447L25.79 26H6.211l6.58-8.447zm6.749-.354L28 8.113v15.676l-8.461-6.59z"/></symbol><symbol id="icon-location" viewBox="0 0 32 32"><path d="M16 0C10.477 0 6 4.477 6 10c0 10 10 22 10 22s10-12 10-22c0-5.523-4.477-10-10-10zm0 16a6 6 0 1 1 0-12 6 6 0 0 1 0 12z"/></symbol><symbol id="icon-whatsapp" viewBox="0 0 32 32"><path d="M27.281 4.65C24.287 1.65 20.306 0 16.062 0 7.324 0 .212 7.112.212 15.856c0 2.794.731 5.525 2.119 7.925L.081 32l8.406-2.206a15.858 15.858 0 0 0 7.575 1.931h.006c8.738 0 15.856-7.113 15.856-15.856 0-4.238-1.65-8.219-4.644-11.219zm-11.212 24.4a13.17 13.17 0 0 1-6.713-1.837l-.481-.288-4.987 1.306 1.331-4.863-.313-.5a13.086 13.086 0 0 1-2.019-7.012c0-7.269 5.912-13.181 13.188-13.181 3.519 0 6.831 1.375 9.319 3.862a13.108 13.108 0 0 1 3.856 9.325c-.006 7.275-5.919 13.188-13.181 13.188zm7.225-9.875c-.394-.2-2.344-1.156-2.706-1.288s-.625-.2-.894.2c-.262.394-1.025 1.288-1.256 1.556-.231.262-.462.3-.856.1s-1.675-.619-3.188-1.969c-1.175-1.05-1.975-2.35-2.206-2.744s-.025-.613.175-.806c.181-.175.394-.463.594-.694s.262-.394.394-.662c.131-.262.069-.494-.031-.694s-.894-2.15-1.219-2.944c-.319-.775-.65-.669-.894-.681-.231-.012-.494-.012-.756-.012s-.694.1-1.056.494c-.363.394-1.387 1.356-1.387 3.306s1.419 3.831 1.619 4.1c.2.262 2.794 4.269 6.769 5.981.944.406 1.681.65 2.256.837.95.3 1.813.256 2.494.156.762-.113 2.344-.956 2.675-1.881s.331-1.719.231-1.881c-.094-.175-.356-.275-.756-.475z"/></symbol></defs></svg>