<svg aria-hidden="true" style="width:0;height:0;position:absolute;overflow:hidden" xmlns="http://www.w3.org/2000/svg"><defs><symbol id="icon-daylogo" viewBox="0 0 44 32"><path d="M8.284 19.972v-4.339h2.053c.354 0 .665.005.933.016s.483.026.645.046c.216.027.414.063.593.108.18.046.343.102.487.167.151.068.288.157.409.268a1.793 1.793 0 0 1 .534.936c.046.205.069.434.069.688s-.023.481-.069.679a1.551 1.551 0 0 1-.216.521c-.094.142-.206.268-.337.378s-.279.203-.446.282h-.001a3.151 3.151 0 0 1-.559.194c-.204.051-.429.09-.676.116-.182.02-.454.036-.815.046-.364.01-.805.016-1.321.016H8.284v-.122zm-1.487 1.234h3.841c.447 0 .838-.011 1.174-.033s.618-.055.847-.1c.307-.06.592-.143.855-.249.261-.105.5-.234.716-.385h.001c.218-.151.409-.318.573-.502s.302-.384.415-.602a2.84 2.84 0 0 0 .252-.728 4.39 4.39 0 0 0 .085-.891c0-.284-.027-.546-.08-.789a2.657 2.657 0 0 0-.237-.663h-.001a3.14 3.14 0 0 0-1.107-1.206 3.261 3.261 0 0 0-.64-.311 6.025 6.025 0 0 0-1.665-.348 14.214 14.214 0 0 0-1.071-.037H6.797v6.844zm3.841.244H6.554v-7.331h4.202c.403 0 .766.013 1.09.038s.609.064.854.115h.001c.326.069.619.152.877.247a3.407 3.407 0 0 1 1.371.907c.198.216.368.459.507.727.115.221.202.462.259.723s.086.54.086.84c0 .339-.03.652-.091.94-.061.29-.152.554-.274.79s-.272.453-.45.653a3.462 3.462 0 0 1-.616.54c-.232.162-.487.299-.764.411s-.578.199-.9.262c-.239.046-.531.081-.877.104s-.742.034-1.189.034zm-2.11-5.573v3.974h1.04c.534 0 .972-.005 1.315-.015.351-.01.616-.025.795-.045h.001c.235-.025.45-.062.643-.111s.365-.108.515-.178c.147-.07.279-.153.393-.249s.211-.204.291-.325l.001-.001c.08-.119.14-.266.18-.44.041-.179.062-.387.062-.625s-.021-.45-.062-.635a1.52 1.52 0 0 0-.183-.469h-.001c-.081-.132-.173-.246-.277-.34s-.218-.169-.345-.226a2.776 2.776 0 0 0-.447-.153 4.648 4.648 0 0 0-.562-.103 7.632 7.632 0 0 0-.624-.045c-.252-.01-.559-.015-.924-.015H8.53zM6.675 5.472h3.963c.894 0 1.575.043 2.044.132.629.119 1.17.331 1.618.636.451.304.792.677 1.027 1.119.233.44.351.985.351 1.631 0 .569-.11 1.058-.331 1.469-.268.503-.651.91-1.15 1.22-.376.236-.884.419-1.523.551-.478.098-1.117.146-1.919.146h-4.08V5.471zm1.731 1.321v4.109h1.931c.721 0 1.242-.02 1.563-.059.422-.051.769-.137 1.045-.259.278-.121.503-.321.677-.598.177-.277.263-.657.263-1.137s-.087-.847-.263-1.104a1.732 1.732 0 0 0-.733-.601c-.314-.143-.712-.241-1.197-.292-.359-.039-1.069-.059-2.122-.059H8.408zM26.308 12.377h-1.991l-.88-1.572h-4.546l-.846 1.572h-1.951l3.955-6.905h2.179l4.08 6.905zm-3.54-2.739-1.646-2.924-1.651 2.924h3.297zM26.098 14.363h-1.709l-.88 1.613h-4.691l-.846-1.613h-1.671l3.819 6.844h2.038l3.94-6.844zm-1.781-.244h2.201l-4.221 7.331h-2.32l-4.091-7.331h2.231l.846 1.613h4.401l.88-1.613h.072zm-1.442 2.991-1.752 3.195-1.858-3.376h3.709l-.099.18zm-1.753 2.69 1.44-2.627h-2.886l1.445 2.627zM28.774 12.377V9.885l-3.542-4.413h2.142l2.37 2.987 2.311-2.987h2.1l-3.542 4.423v2.482zM28.896 14.363v2.477l-3.415 4.367h1.834l2.431-3.145 2.37 3.145h1.791l-3.415-4.377v-2.467h-1.596zm-.244 2.394v-2.638h2.083v2.628l3.67 4.703h-2.41l-2.251-2.988-2.31 2.988h-2.451l3.67-4.693zM33.174 10.14h1.32c.262 0 .456.008.585.023s.244.048.345.096c.101.049.186.113.254.194s.101.172.101.272c0 .108-.041.209-.124.299s-.196.159-.338.204c.201.042.354.112.463.212s.161.217.161.352c0 .106-.035.209-.105.309s-.165.18-.287.241c-.121.06-.27.096-.447.111-.111.008-.379.014-.804.016h-1.124v-2.328zm.668.387v.537h.436c.259 0 .42-.003.483-.008.114-.009.204-.037.269-.083s.098-.106.098-.181c0-.072-.028-.13-.084-.175s-.14-.072-.25-.081a11.394 11.394 0 0 0-.569-.008h-.383zm0 .924v.624h.618c.24 0 .393-.005.457-.014.099-.013.18-.044.242-.093s.094-.115.094-.198c0-.07-.024-.13-.072-.178s-.118-.085-.208-.107c-.091-.022-.288-.034-.592-.034h-.539zm3.233 1.018v-.819l-1.21-1.51h.781l.781 1.083.76-1.083h.767l-1.21 1.513v.815h-.668zM6.618 24.241v-1.17h.185v.482h.721v-.482h.185v1.17h-.185v-.551h-.721v.551h-.185zm2.552 0 .535-1.17h.203l.568 1.17h-.21l-.162-.354h-.588l-.151.354h-.196zm.401-.48h.476l-.146-.324a3.715 3.715 0 0 1-.1-.244 1.458 1.458 0 0 1-.077.225l-.153.343zm2.388.48v-1.17h.185v1.17h-.185zm1.819 0v-1.17h.619c.124 0 .219.011.284.032a.302.302 0 0 1 .213.287c0 .083-.032.153-.096.21s-.163.093-.297.108c.049.02.086.039.111.058a.81.81 0 0 1 .153.156l.241.319h-.231l-.185-.243c-.054-.07-.098-.124-.133-.161s-.066-.063-.094-.078a.306.306 0 0 0-.084-.031.644.644 0 0 0-.103-.005h-.214v.52h-.185zm.185-.653h.396c.084 0 .15-.007.198-.022s.084-.038.108-.07a.167.167 0 0 0-.034-.242c-.047-.036-.123-.053-.226-.053h-.441v.387zm4.7.653v-1.17h.942v.137h-.756v.364h.655v.137h-.655v.531h-.185zm2.517 0v-1.17h.185v1.17h-.185zm2.17 0v-1.032h-.46v-.137h1.105v.137h-.46v1.032h-.185zm2.138 0v-1.17h.19l.732.918v-.918h.177v1.17h-.19l-.732-.918v.918h-.177zm2.719 0v-1.17h1.008v.137h-.823v.359h.77v.137h-.77v.399h.856v.137h-1.041zm2.541-.375.174-.013c.008.059.027.107.058.145s.077.068.14.091a.624.624 0 0 0 .214.035c.071 0 .133-.009.186-.026s.094-.042.12-.073c.026-.031.04-.064.04-.1s-.013-.068-.038-.096a.294.294 0 0 0-.126-.069c-.037-.012-.12-.031-.249-.057s-.218-.05-.269-.073c-.067-.029-.116-.066-.148-.109s-.049-.092-.049-.146c0-.059.02-.115.06-.166s.098-.09.175-.117a.768.768 0 0 1 .256-.04c.103 0 .195.014.274.042s.14.069.182.123a.318.318 0 0 1 .069.184l-.177.011c-.009-.074-.042-.13-.096-.167s-.136-.057-.243-.057c-.112 0-.193.017-.244.051s-.077.076-.077.124c0 .042.018.077.054.104s.128.055.278.083c.15.029.253.053.309.075.081.031.141.071.18.119s.058.103.058.166c0 .062-.021.121-.064.176s-.103.098-.183.128-.169.046-.269.046c-.126 0-.232-.016-.317-.046s-.152-.077-.2-.139a.352.352 0 0 1-.077-.21zm2.604 0 .173-.013c.008.059.027.107.057.145s.077.068.14.091a.624.624 0 0 0 .214.035c.071 0 .133-.009.187-.026s.094-.042.12-.073c.026-.031.04-.064.04-.1s-.013-.068-.038-.096a.294.294 0 0 0-.126-.069c-.037-.012-.12-.031-.249-.057s-.218-.05-.269-.073c-.067-.029-.116-.066-.148-.109s-.049-.092-.049-.146c0-.059.02-.115.06-.166s.098-.09.175-.117a.768.768 0 0 1 .256-.04c.103 0 .195.014.274.042s.14.069.182.123a.318.318 0 0 1 .069.184l-.177.011c-.009-.074-.042-.13-.096-.167s-.136-.057-.243-.057c-.112 0-.193.017-.244.051s-.077.076-.077.124c0 .042.018.077.054.104s.128.055.278.083c.15.029.253.053.309.075.081.031.141.071.18.119s.058.103.058.166c0 .062-.021.121-.064.176s-.103.098-.183.128a.961.961 0 0 1-.586 0 .426.426 0 0 1-.2-.139.352.352 0 0 1-.077-.21z"/></symbol><symbol id="icon-crewblack" viewBox="0 0 58 32"><path d="M19.904.749c0 .032-.058.41-.128.851s-.128.864-.128.941c0 .224.186.186.237-.045.038-.211.275-.282.275-.083 0 .173.102.301.205.256.083-.026.077-.134-.019-.794-.192-1.222-.179-1.171-.314-1.171-.07 0-.128.019-.128.045zM22.208 1.69c0 .954.006.998.128.998.115 0 .128-.045.134-.499.006-.435.013-.467.07-.288.083.256.224.275.288.032.038-.134.058-.077.083.275.026.358.051.448.147.467.102.019.109-.058.109-.973 0-.563-.026-.998-.058-.998s-.122.192-.198.429a4.903 4.903 0 0 1-.186.486c-.026.026-.122-.16-.211-.416-.256-.736-.307-.653-.307.486zM25.011 1.325c-.006.346-.006.781.013.979l.032.352h.32c.243 0 .32-.026.32-.096 0-.058-.07-.102-.173-.115-.154-.019-.179-.051-.179-.211 0-.141.032-.186.128-.186.083 0 .128-.045.128-.128s-.045-.128-.128-.128c-.115 0-.128-.045-.128-.416 0-.403.006-.416.16-.416.115 0 .16-.032.16-.128 0-.109-.045-.128-.314-.128h-.314l-.026.621zM27.456 1.696c0 .947.006.992.128.992.109 0 .128-.045.128-.307.006-.275.013-.294.096-.179a.55.55 0 0 1 .096.275c0 .173.166.262.275.154.051-.051.032-.154-.07-.403-.128-.301-.128-.339-.038-.442.134-.147.186-.531.096-.755-.083-.198-.301-.326-.55-.326h-.16v.992zM34.81.717c-.058.275-.282 1.92-.262 1.939.09.083.192.013.23-.16.045-.25.294-.282.294-.038 0 .173.09.262.218.211.064-.026.045-.23-.064-.947-.083-.506-.147-.941-.154-.973 0-.038-.25-.07-.262-.032zM37.12 1.69c0 .954.006.998.128.998.115 0 .128-.045.128-.493 0-.269.019-.467.045-.442.026.019.115.23.205.461.09.237.198.422.23.416.038-.006.07-.384.083-.966.013-.928.013-.96-.115-.96-.115 0-.128.038-.128.48 0 .262-.019.48-.051.48-.026 0-.122-.205-.211-.461-.262-.73-.314-.653-.314.486zM24.077 5.229c2.598.013 6.848.013 9.44 0 2.598-.006.474-.013-4.717-.013s-7.315.006-4.723.013zM16.813 8.006c-1.466.346-2.31 1.914-2.669 4.954-.096.8-.128 3.482-.058 4.448.23 3.04.992 4.883 2.278 5.517.352.173.512.211.973.23.301.013.653 0 .774-.032.224-.058.224-.064.243-.454l.019-.397h-.474c-.378 0-.531-.032-.8-.166-.806-.397-1.357-1.562-1.645-3.45-.16-1.075-.237-3.078-.16-4.461.198-3.738 1.069-5.491 2.656-5.344l.416.038v-.813l-.282-.07c-.333-.083-.922-.083-1.274 0zM21.184 15.584v7.52H22.4l.013-2.669.019-2.675.346.538c.506.787 1.005 1.869 1.184 2.579.09.339.198.979.243 1.427l.077.806 1.094-.038-.019-.448c-.064-1.523-.685-3.354-1.574-4.634-.179-.256-.352-.506-.384-.55-.045-.058.077-.218.422-.55.736-.723 1.235-1.587 1.536-2.682.128-.486.147-.678.147-1.824 0-1.139-.019-1.338-.147-1.779-.378-1.306-1.062-2.074-2.15-2.406-.339-.102-.608-.134-1.229-.134h-.794v7.52zm1.971-6.483c.8.371 1.21 1.651 1.146 3.571-.038 1.197-.211 1.958-.627 2.765-.269.512-.819 1.158-1.126 1.325l-.147.077V8.89l.243.045c.128.019.358.096.512.166zM28.608 12.506v4.448l-.237.019-.23.019-.026.794.461.038.064 5.248h3.776v-.832l-1.293-.019-1.299-.013v-4.416h1.984v-.832h-1.984V8.896h2.624v-.832h-3.84v4.442zM34.4 8.269c.019.115.109.698.198 1.299.083.595.358 2.368.602 3.936s.576 3.699.73 4.736c.16 1.037.39 2.541.518 3.341.122.806.224 1.472.224 1.491s.141.032.314.032c.314 0 .314 0 .352-.243.141-.89.858-5.562 1.101-7.149.314-2.074.352-2.291.39-2.144.006.051.32 2.08.691 4.512.371 2.426.691 4.544.717 4.704l.051.288.301.019c.269.019.307.006.339-.128.013-.083.333-2.118.704-4.531.365-2.413.87-5.69 1.12-7.277.243-1.594.448-2.944.448-2.995 0-.077-.102-.096-.512-.096-.282 0-.512.013-.512.026 0 .026-1.389 9.472-1.446 9.818-.026.154-.051.262-.064.25s-.192-1.197-.403-2.643c-.403-2.758-.992-6.72-1.069-7.181-.045-.269-.045-.269-.314-.269-.25 0-.282.019-.314.173-.038.205-1.19 7.962-1.357 9.158-.064.429-.122.768-.134.755-.038-.032-1.491-9.818-1.491-10.029 0-.032-.269-.058-.608-.058h-.614l.038.205zM42.899 22.336c-.352.141-.429.653-.128.864.397.282.89-.166.71-.64-.032-.083-.352-.301-.422-.282-.013 0-.083.026-.16.058zM19.392 25.984c0 .045 3.181.064 9.408.064s9.408-.019 9.408-.064-3.181-.064-9.408-.064-9.408.019-9.408.064zM14.355 28.672c-.666.339-.71 1.53-.07 1.92.294.179.896.179 1.19 0 .442-.269.608-1.158.294-1.581a1.112 1.112 0 0 0-1.414-.339zm1.043.346c.198.198.218.25.218.589 0 .589-.269.922-.742.922a.78.78 0 0 1-.634-.384c-.205-.397-.064-1.12.243-1.267.077-.038.269-.07.422-.07.23-.006.307.026.493.211zM24.134 28.71c-.16.134-.198.218-.198.41 0 .307.179.467.659.576.442.102.621.224.621.416 0 .403-.614.576-.928.256-.09-.083-.16-.198-.16-.256 0-.064-.058-.096-.166-.096-.147 0-.16.019-.128.173a.84.84 0 0 0 .237.352c.16.154.243.179.576.179.576 0 .883-.218.89-.614 0-.326-.198-.506-.685-.634-.243-.064-.486-.166-.557-.224-.288-.275.192-.608.621-.422.122.051.243.154.269.224.051.166.288.186.288.019-.006-.134-.179-.358-.365-.454-.077-.038-.282-.07-.461-.07-.25 0-.358.038-.512.166zM17.446 28.749a.687.687 0 0 0-.102.352c0 .147-.032.211-.096.211-.051 0-.096.045-.096.096s.045.096.096.096c.07 0 .096.122.109.589.019.506.038.595.134.614s.109-.038.109-.589c0-.57.006-.614.128-.614.166 0 .166-.166-.006-.211-.192-.051-.154-.454.058-.48.218-.032.179-.205-.045-.205a.334.334 0 0 0-.288.141zM38.144 29.664c0 1.011.006 1.056.128 1.056s.128-.045.134-.851v-.845l.314.832c.397 1.075.442 1.082.813.128.416-1.069.403-1.062.384-.128-.013.794-.006.832.115.832s.128-.051.147-1.043l.013-1.037H40c-.218 0-.179-.07-.608 1.05l-.243.64-.218-.576c-.115-.314-.256-.691-.314-.845-.09-.23-.128-.269-.288-.269h-.186v1.056zM18.95 29.408c-.365.314-.307 1.056.096 1.242.282.128.653.09.826-.09.179-.173.205-.32.064-.378-.064-.019-.128.032-.192.154-.083.154-.141.192-.314.192-.294 0-.454-.192-.454-.544 0-.506.448-.736.73-.378.102.128.154.147.237.102.102-.058.096-.083-.083-.262-.262-.262-.621-.275-.909-.038zM21.088 29.408c-.09.083-.16.186-.16.224 0 .115.224.07.307-.064.122-.198.448-.173.525.038.09.224.051.262-.32.294-.365.038-.576.186-.576.416 0 .339.493.531.813.307.115-.083.141-.083.211 0 .115.141.32.122.32-.026a.195.195 0 0 0-.096-.16c-.07-.026-.096-.141-.096-.486 0-.365-.026-.474-.128-.576-.186-.186-.602-.173-.8.032zM27.347 29.293c-.064.026-.083.294-.083 1.05 0 .941.006 1.018.115 1.018.102 0 .115-.045.09-.397-.026-.365-.019-.39.09-.339.07.032.243.064.39.083.237.019.301 0 .467-.166.16-.16.192-.25.192-.493 0-.333-.077-.525-.282-.685-.166-.141-.486-.147-.653-.019-.141.102-.243.128-.186.038.045-.077-.038-.128-.141-.09zm.839.281c.339.262.166.954-.243.954-.262 0-.442-.198-.442-.499 0-.282.096-.442.307-.525.186-.077.192-.077.378.07zM29.261 29.35c-.077.051-.141.064-.141.032 0-.038-.058-.07-.128-.07-.122 0-.128.045-.128 1.024s.006 1.024.128 1.024c.115 0 .128-.045.128-.384 0-.365.006-.384.122-.32.25.128.582.077.781-.122.16-.166.186-.237.186-.55s-.026-.384-.186-.55c-.218-.211-.531-.25-.762-.083zm.685.416c.134.384-.077.762-.422.762-.461 0-.563-.858-.128-1.018a.431.431 0 0 1 .55.256zM31.981 29.376c-.23.186-.326.506-.237.826.141.525.704.691 1.101.326.179-.16.198-.198.115-.256-.07-.045-.128-.026-.211.096-.224.301-.749.154-.749-.211 0-.134.032-.141.518-.141h.525l-.038-.243a.642.642 0 0 0-1.024-.397zM36.026 29.427c-.346.314-.307 1.024.064 1.229.211.109.614.077.794-.064.218-.173.32-.531.237-.845-.134-.499-.704-.666-1.094-.32zm.736.154c.058.077.102.262.102.403 0 .333-.147.544-.371.544-.211 0-.288-.051-.39-.237-.186-.358.032-.851.378-.851a.34.34 0 0 1 .282.141zM40.858 29.312c-.23.09-.346.32-.346.691 0 .294.026.371.186.531.256.25.698.262.934.026.179-.179.198-.256.07-.307-.058-.019-.134.026-.192.122-.205.307-.742.134-.742-.243 0-.102.064-.115.512-.115h.512v-.198c0-.275-.301-.57-.589-.563-.115 0-.275.026-.346.058zM42.509 29.35c-.077.051-.141.064-.141.032 0-.038-.058-.07-.128-.07-.128 0-.134.032-.115.685.019.595.032.691.134.71.096.019.109-.038.109-.48 0-.544.019-.602.243-.717.122-.064.179-.064.307.026.141.09.154.134.154.64 0 .442.019.544.096.544s.096-.109.096-.608c0-.525-.019-.627-.128-.736-.154-.154-.429-.166-.627-.026zM25.754 29.408c-.026.051-.026.307-.013.57.013.352.051.512.141.608.147.16.461.179.666.032.128-.09.141-.09.141.006 0 .064.045.096.115.083.096-.019.109-.115.128-.71.019-.653.013-.685-.115-.685-.115 0-.128.038-.128.474 0 .499-.058.627-.326.71-.083.026-.173 0-.256-.07-.102-.09-.122-.198-.122-.614 0-.403-.019-.499-.096-.499a.153.153 0 0 0-.134.096z"/></symbol><symbol id="icon-crew-1" viewBox="0 0 32 32"><path d="M4.981 4.772c-.082.555-.16 1.035-.171 1.067-.011.053.007.064.11.064.121 0 .124 0 .146-.196l.025-.196h.306l.032.185c.028.178.036.188.146.199.146.014.146.043-.007-.939a29.698 29.698 0 0 1-.146-.985l-.025-.203h-.263l-.153 1.003zM7.964 4.836v1.067h.249v-.54c0-.316.014-.526.032-.508.018.021.068.135.11.256.046.124.1.224.128.224.025 0 .078-.103.121-.231s.092-.238.11-.249c.018-.014.032.196.032.512v.537h.249V4.837c0-1.362-.004-1.365-.373-.324-.117.338-.149.395-.174.324-.011-.028-.089-.252-.178-.498-.206-.583-.199-.569-.256-.569-.043 0-.05.178-.05 1.067zM11.378 4.373c0 .512-.007.604-.053.604-.036 0-.053.036-.053.103 0 .057.021.11.053.124.043.014.053.089.053.359v.338h.676v-.107c0-.107-.004-.107-.192-.107-.213 0-.235-.021-.235-.249 0-.213.025-.249.181-.249.114 0 .139-.011.139-.071 0-.039.004-.082.011-.1.004-.014-.064-.032-.153-.043l-.16-.018-.011-.409c-.014-.569-.014-.569.224-.569.192 0 .196 0 .196-.107v-.107h-.676v.604zM14.318 3.794c-.014.011-.025.491-.025 1.067v1.042h.284v-.32c0-.178.014-.32.028-.32.05 0 .199.327.22.48.018.135.025.142.153.153l.135.011-.021-.171a1.822 1.822 0 0 0-.142-.409c-.103-.213-.11-.245-.06-.284.11-.092.22-.395.22-.608 0-.345-.132-.551-.409-.626-.16-.043-.348-.05-.384-.014zm.494.384c.085.21.05.487-.089.683-.121.171-.146.103-.146-.373 0-.252.011-.469.021-.48.046-.043.164.053.213.171zM17.422 4.832v1.07h.249l.004-.996c.004-.548.007-1.024.011-1.06.004-.046-.028-.064-.128-.071l-.135-.011v1.067zM20.348 3.826c-.082.039-.146.121-.213.26-.096.192-.1.22-.1.75 0 .523.004.562.096.754.103.224.228.313.43.313.11 0 .124-.011.139-.107s.007-.107-.078-.107c-.22 0-.331-.284-.334-.853 0-.544.117-.853.32-.853.071 0 .085-.018.085-.107 0-.096-.011-.107-.114-.107a.654.654 0 0 0-.231.057zM23.275 3.801c-.014.018-.06.295-.11.615a48.416 48.416 0 0 1-.217 1.387c-.018.092-.011.1.1.1.121 0 .124-.004.156-.188l.032-.185.149-.011c.16-.011.156-.014.199.313.004.032.053.057.124.064.146.014.149.057-.039-1.148l-.149-.96-.114-.011c-.06-.007-.121.004-.132.025zM26.098 4.832v1.07h.249v-.569c0-.313.014-.569.028-.569.018 0 .132.256.252.572.171.437.235.565.281.558.057-.011.06-.203.043-2.084 0-.032-.039-.043-.114-.036l-.117.011-.018.587c-.021.676 0 .679-.299-.089-.295-.768-.306-.747-.306.548zM10.318 8.167c3.044.007 8.036.007 11.093 0 3.058-.004.565-.007-5.536-.007s-8.601.004-5.557.007zM6.884 10.436c-1.22.309-1.874 1.767-2.048 4.551a20.22 20.22 0 0 0-.032 1.244c.032 3.14.626 4.974 1.792 5.529.299.142.597.192.988.167.512-.036.487-.018.487-.366v-.295l-.242.021c-1.07.089-1.739-.949-2.02-3.125-.075-.587-.107-2.748-.053-3.463.107-1.394.352-2.372.747-2.972.309-.476.644-.683 1.106-.686.146 0 .309.011.366.028l.096.025v-.302c0-.299-.004-.306-.096-.345-.16-.064-.85-.071-1.092-.011zM10.24 16.156v5.71h.444c.398 0 .444-.007.444-.064.004-.032.007-.928.011-1.988.004-1.191.021-1.934.043-1.938.11-.032.875 1.358 1.063 1.927.142.441.267 1.056.309 1.572l.043.491h.818l-.021-.366c-.082-1.34-.647-2.848-1.44-3.826l-.124-.153.306-.284c.711-.654 1.152-1.49 1.33-2.51.078-.466.078-1.497 0-1.966-.203-1.191-.821-1.963-1.785-2.222-.139-.039-.427-.064-.825-.075l-.615-.021v5.714zm1.44-4.96c.412.185.708.665.871 1.426.068.295.089 1.536.036 1.945-.121.971-.505 1.824-1.038 2.304-.235.21-.341.263-.384.196-.032-.053-.043-5.895-.011-5.948.028-.046.356.004.526.078zM15.893 13.828v3.378l-.373.021-.021.619.377.021.011 1.998.007 2.002h2.844l.004-.267c.004-.146.007-.288.011-.313.004-.032-.22-.046-.974-.06l-.978-.018v-3.342l.757-.011.757-.007-.011-.313-.011-.309-.757-.011-.754-.007.007-3.051.011-3.047.96-.011c.672-.007.964-.021.981-.05.014-.021.021-.096.014-.167s-.011-.196-.014-.281l-.004-.149h-2.844v3.374zM20.267 10.464c0 .007.039.277.089.597s.139.903.196 1.294c.06.391.132.846.16 1.013s.1.622.156 1.013l.249 1.636.825 5.358.075.491h.452l.021-.117c.011-.06.05-.331.089-.594.1-.654.32-2.098.498-3.236.082-.519.21-1.351.284-1.849s.156-1.028.178-1.173c.05-.306.064-.373.089-.348.021.018.142.789.444 2.802.1.654.217 1.447.267 1.76.217 1.401.409 2.67.409 2.709 0 .032.071.046.231.046h.228l.021-.117c.011-.06.1-.644.196-1.287.181-1.18.338-2.204.533-3.449.132-.853.299-1.927.412-2.684.046-.324.11-.722.139-.889s.085-.526.124-.8c.039-.274.124-.85.196-1.28.068-.43.124-.811.124-.846 0-.053-.043-.06-.373-.06-.206 0-.373.011-.373.025 0 .018-.025.171-.053.348-.025.174-.082.544-.121.818s-.16 1.099-.27 1.831l-.249 1.689c-.185 1.291-.444 2.983-.459 2.997-.036.032-.057-.078-.199-1.06-.075-.537-.213-1.476-.302-2.08l-.267-1.813-.171-1.156a85.645 85.645 0 0 1-.153-1.024l-.082-.576h-.206c-.114 0-.206.007-.206.018a339 339 0 0 1-.391 2.631c-.039.252-.117.789-.178 1.191A188.2 188.2 0 0 1 22.65 16c-.22 1.49-.32 2.176-.32 2.19 0 .007-.014.014-.036.014-.018 0-.036-.039-.036-.085 0-.078-.384-2.724-.672-4.644-.06-.38-.185-1.216-.277-1.856l-.171-1.166h-.434a5.23 5.23 0 0 0-.437.011zM5.163 26.457c-.544.27-.462 1.163.121 1.333.352.103.693-.043.836-.359.124-.274.06-.708-.132-.878-.203-.178-.569-.22-.825-.096zm.625.135c.192.103.277.523.156.793-.082.188-.196.277-.391.302-.38.05-.647-.327-.54-.768.085-.359.434-.508.775-.327zM12.409 26.421c-.213.085-.299.292-.199.487.06.117.21.188.526.256.316.064.402.238.21.43-.082.078-.139.103-.245.103-.171 0-.37-.124-.398-.249-.014-.064-.046-.089-.107-.089-.075 0-.089.014-.078.089.025.228.235.366.558.366.252 0 .42-.075.498-.224.142-.274.007-.491-.363-.583-.348-.085-.437-.128-.459-.217-.028-.121.039-.22.181-.267.206-.068.412.018.484.203.018.046.057.082.085.082.16 0 .05-.281-.146-.373a.899.899 0 0 0-.548-.014zM6.652 26.485c-.053.053-.075.121-.075.231 0 .139-.011.16-.078.171-.1.014-.096.078.007.092.068.011.071.036.071.402 0 .363.004.388.071.388s.071-.025.071-.391v-.391h.089c.057 0 .089-.021.089-.053s-.036-.053-.092-.053c-.085 0-.089-.007-.078-.171.011-.153.018-.167.11-.178.124-.014.11-.092-.021-.107a.21.21 0 0 0-.164.06zM7.292 26.492c-.053.057-.075.128-.075.235 0 .128-.011.153-.071.153-.039 0-.071.025-.071.053s.032.053.071.053c.064 0 .071.028.078.398.007.331.021.402.064.402s.057-.071.064-.402c.011-.398.011-.398.096-.398.057 0 .089-.021.089-.053s-.032-.053-.089-.053c-.078 0-.089-.014-.089-.135 0-.149.05-.22.153-.22.1 0 .053-.085-.053-.1-.06-.007-.117.018-.167.068zM16.96 27.093c0 .651.004.676.071.676s.071-.025.071-.676-.004-.676-.071-.676-.071.025-.071.676zM23.04 27.1c0 .665.004.69.071.693.068.007.071-.018.071-.551.004-.373.014-.54.036-.501.018.032.114.274.213.533s.196.491.217.512c.064.06.146-.085.331-.58.096-.26.188-.469.21-.469s.028.188.021.523c-.014.508-.011.526.057.526s.071-.028.082-.686l.007-.683h-.235l-.188.508c-.103.281-.203.533-.217.562-.036.057-.014.1-.267-.572-.174-.473-.181-.48-.295-.491l-.114-.011v.686zM20.569 26.606a1.137 1.137 0 0 0-.025.149c-.007.078-.032.11-.089.117-.046.007-.082.036-.082.06s.036.053.082.06c.075.011.078.028.089.384.007.242.025.38.053.398.078.05.238.032.238-.025 0-.028-.032-.053-.071-.053-.068 0-.071-.025-.071-.352 0-.331.004-.356.071-.366.103-.014.107-.078.011-.092-.068-.011-.082-.036-.082-.149 0-.132-.092-.231-.124-.132zM8.405 26.908c-.146.092-.206.245-.185.494.014.171.036.217.132.302.092.082.142.1.302.1.164 0 .21-.014.306-.107.114-.107.132-.224.036-.238-.032-.007-.075.039-.107.107-.057.121-.171.16-.341.117-.16-.043-.235-.309-.153-.551.075-.213.327-.252.469-.071.068.089.1.103.149.078.057-.032.053-.046-.043-.153a.467.467 0 0 0-.565-.078zM9.991 26.869c-.167.064-.245.26-.107.26.039 0 .071-.025.071-.053 0-.075.153-.139.267-.11.092.025.178.171.146.252-.007.025-.117.053-.242.064-.181.018-.238.036-.302.114-.107.121-.103.213.007.32.103.107.313.121.437.032.075-.053.089-.053.146 0 .092.082.217.075.217-.014 0-.039-.021-.071-.05-.071-.039 0-.053-.075-.064-.32-.007-.267-.021-.331-.085-.395-.078-.075-.334-.124-.441-.078zM14.884 26.908c-.078.046-.107.05-.117.014-.011-.021-.046-.043-.085-.043-.064 0-.068.032-.068.676 0 .651.004.676.071.676.064 0 .071-.025.071-.252 0-.245.004-.252.082-.228.153.05.373.06.448.018.206-.107.277-.455.149-.704a.377.377 0 0 0-.551-.156zm.369.143c.057.046.085.114.096.242.018.153.007.192-.078.292-.196.235-.516.082-.516-.245 0-.121.082-.302.149-.327.1-.043.274-.021.348.039zM16.046 26.916c-.096.057-.117.06-.117.018 0-.028-.032-.053-.071-.053-.068 0-.071.025-.071.676s.004.676.071.676c.064 0 .071-.025.071-.267v-.27l.107.057c.146.075.363.068.473-.018.117-.092.181-.288.156-.491-.014-.132-.043-.188-.146-.281-.149-.139-.299-.153-.473-.046zm.327.092c.071.028.16.199.16.309 0 .228-.132.38-.331.38-.224-.004-.348-.32-.22-.569.028-.053.071-.107.096-.117a.568.568 0 0 1 .295-.004zM18.073 26.916a.535.535 0 0 0-.171.174c-.114.224-.028.562.164.661.21.11.512.039.594-.139.036-.078.032-.092-.018-.092-.036 0-.096.043-.139.096-.142.181-.452.075-.484-.167l-.011-.089.348-.011c.388-.011.398-.021.295-.274-.092-.217-.363-.292-.58-.16zM21.259 26.894c-.149.085-.22.263-.203.501.014.178.036.224.132.309.092.082.142.1.292.1.156 0 .196-.014.299-.117a.52.52 0 0 0 0-.736c-.107-.103-.384-.132-.519-.057zm.412.146c.071.071.089.121.089.277 0 .249-.092.38-.267.38-.188 0-.274-.096-.295-.331-.014-.185-.007-.206.092-.309.132-.132.263-.139.38-.018zM24.868 26.916c-.149.096-.206.242-.185.484.021.267.128.377.391.398.153.011.206 0 .288-.064.146-.117.181-.203.092-.224-.05-.014-.082.004-.11.064-.046.103-.213.167-.324.128-.11-.043-.164-.114-.188-.245l-.021-.114h.359c.398 0 .402-.004.309-.228-.107-.256-.384-.345-.612-.199zM26.062 26.905c-.06.043-.089.046-.1.018-.007-.025-.043-.043-.082-.043-.064 0-.068.032-.068.466 0 .423.007.462.064.452.05-.011.06-.057.068-.277l.007-.331c.004-.096.135-.203.249-.203.181 0 .217.071.217.444 0 .249.011.334.05.348.082.032.092-.007.092-.373 0-.345-.004-.356-.103-.459-.121-.117-.263-.135-.395-.043zM13.547 27.271c0 .345.007.398.071.462.085.085.263.092.391.018.114-.064.142-.064.142-.004 0 .028.028.046.064.043.053-.011.06-.064.071-.459.007-.434.007-.452-.064-.452-.068 0-.071.021-.071.309-.004.341-.032.409-.196.473-.078.028-.117.025-.181-.018-.082-.053-.085-.075-.085-.409 0-.331-.004-.356-.071-.356s-.071.025-.071.391z"/></symbol><symbol id="icon-bes_logo" viewBox="0 0 66 32"><path d="M0 11.733v11.733h65.524V-.001H0v11.733zm21.537 0v10.921H.813V.813h20.724v10.921zm21.536 0v10.921H22.451V.813h20.622v10.921zm21.638 0v10.921H44.038V.813h20.673v10.921z"/><path d="m6.623 12.201.03 7.964 2.337-.01c1.829 0 2.509-.041 3.129-.183 1.625-.366 2.834-1.239 3.403-2.479.345-.752.427-2.143.183-2.987-.335-1.178-1.351-2.306-2.408-2.692l-.467-.173.315-.213c.823-.549 1.341-1.839 1.25-3.139-.071-1.138-.376-1.91-1.026-2.55-1.026-1.026-2.133-1.361-4.866-1.443l-1.9-.061.02 7.964zm4.501-5.76c.904.386 1.31 1.097 1.3 2.316-.01 1.676-.762 2.347-2.794 2.489l-.894.061v-5.14l.996.051c.589.03 1.148.122 1.392.223zm.467 6.725c.894.203 1.585.66 1.92 1.26.345.63.356 1.656.01 2.367-.488.996-1.382 1.382-3.434 1.463l-1.351.061v-5.313h1.077c.61 0 1.371.071 1.778.163zM28.444 12.19v7.924h8.533v-1.93h-6.39l-.061-5.79h6.349v-1.93h-6.349V6.248l6.471-.102V4.317l-4.277-.03-4.277-.02v7.924zM53.059 4.104c-1.331.325-2.458 1.178-2.997 2.276-.315.63-.335.752-.335 1.697 0 .823.041 1.107.224 1.493.477 1.036 1.615 1.92 3.535 2.723 2.042.864 2.621 1.239 3.078 2.011.234.406.274.589.274 1.239-.01 1.839-1.26 3.037-3.017 2.926-1.473-.102-2.53-1.046-2.692-2.428-.03-.274-.091-.498-.122-.498-.142 0-1.991.416-2.032.467-.02.02.01.295.081.599.315 1.392 1.412 2.794 2.662 3.383 2.489 1.189 5.526.183 6.735-2.215.914-1.839.65-3.952-.67-5.343-.681-.721-1.514-1.209-3.271-1.92-2.225-.894-2.763-1.422-2.682-2.601.051-.762.416-1.239 1.25-1.666.508-.254.721-.295 1.321-.295.599.01.823.061 1.27.305.305.163.67.477.833.701s.325.406.366.406c.051 0 1.392-.762 1.625-.924.081-.051-.599-.935-.975-1.28-1.168-1.056-2.834-1.443-4.46-1.056zM30.415 26.453c-.437.437-.477 1.006-.102 1.453l.254.295-.335.264c-.437.345-.67.863-.67 1.453 0 .599.224.985.731 1.27.559.315 1.737.264 2.215-.091l.325-.234.142.213c.132.173.264.213.762.213h.599l-.447-.579c-.416-.518-.437-.589-.315-.782.203-.315.416-.955.498-1.514l.071-.477h-.457c-.447 0-.457.01-.518.376-.091.508-.264 1.067-.315 1.016-.03-.03-.224-.284-.437-.569l-.396-.528.295-.295c.437-.427.416-1.016-.051-1.483-.315-.315-.406-.345-.924-.345s-.61.03-.924.345zm1.331 2.967.498.681-.234.183c-.325.264-.965.254-1.229-.01-.305-.305-.254-.742.112-1.168.173-.193.325-.356.335-.356s.244.305.518.67zM37.435 26.23c-.66.366-.955 1.006-.762 1.697.122.467.498.813 1.331 1.239.325.163.67.406.762.549.152.234.152.274-.01.518-.152.244-.224.264-.67.224-.345-.041-.589-.132-.762-.295l-.254-.234-.305.315c-.284.274-.305.325-.173.528.213.356.884.62 1.544.62 1.077 0 1.727-.538 1.727-1.412-.01-.752-.224-1.046-1.158-1.524-.447-.234-.894-.538-.975-.681-.152-.224-.152-.264 0-.498.203-.305.792-.345 1.168-.081.244.163.254.163.528-.173.325-.386.284-.498-.254-.752-.396-.183-1.432-.213-1.737-.041zM42.077 26.24c-.975.356-1.544 1.28-1.544 2.509.01 1.676.945 2.641 2.59 2.641.691 0 1.453-.234 1.615-.488.03-.061-.01-.264-.102-.467l-.173-.345-.366.193c-.488.264-1.25.254-1.737-.02-1.046-.589-1.107-2.326-.102-3.017.396-.264 1.138-.305 1.697-.071.203.081.376.142.386.132 0-.02.091-.152.183-.305.254-.396.224-.477-.254-.691-.498-.224-1.656-.264-2.194-.071zM59.246 26.24c-.975.356-1.544 1.28-1.544 2.509.01 1.676.945 2.641 2.59 2.641.691 0 1.453-.234 1.615-.488.03-.061-.01-.264-.102-.467l-.173-.345-.366.193c-.488.264-1.25.254-1.737-.02-1.046-.589-1.107-2.326-.102-3.017.396-.264 1.138-.305 1.697-.071.203.081.376.142.386.132 0-.02.091-.152.183-.305.254-.396.224-.477-.254-.691-.498-.224-1.656-.264-2.194-.071zM.102 28.749v2.54h1.097c1.25 0 1.646-.142 2.032-.711.203-.295.234-.447.203-.894-.051-.559-.356-1.036-.681-1.036-.142-.01-.132-.02.02-.112.437-.254.62-1.158.325-1.707-.234-.467-.701-.62-1.92-.62H.101v2.54zm2.184.661c.305.295.315.356.041.701-.183.224-.284.264-.762.264h-.549v-1.219h.508c.417 0 .569.051.762.254zM4.571 28.749v2.54h3.048v-.914H5.486v-1.219h1.829v-.914H5.486v-1.117h2.032v-.914H4.572v2.54zM9.244 28.414a546.854 546.854 0 0 1-1.087 2.55l-.142.335 1.046-.061.447-1.117 2.154-.061.244.62.234.61h1.067l-.193-.488a624.27 624.27 0 0 1-1.056-2.509l-.874-2.032-.904-.061-.935 2.215zM13.816 27.906c0 1.92.071 2.316.538 2.844.427.477.833.64 1.646.64.833 0 1.371-.254 1.747-.833.284-.416.284-.437.315-2.387l.041-1.961h-.935v1.422c0 2.306-.224 2.844-1.178 2.844-.579 0-.996-.345-1.148-.955-.061-.254-.112-1.097-.112-1.879v-1.432h-.914v1.697zM18.692 26.667v.457h1.727v4.165h.914v-4.165h1.625v-.914h-4.267v.457zM23.162 26.413c.061.112.477.803.914 1.524l.813 1.321v2.032h.914v-2.062l.782-1.28.924-1.514c.142-.224.142-.224-.406-.224h-.549l-.559.965c-.305.528-.579.965-.61.965-.041 0-.325-.437-.64-.965l-.579-.965h-.559c-.528 0-.549.01-.447.203zM45.714 28.749v2.54h.914V26.21h-.914v2.54zM48.152 28.749v2.54H51.2v-.914h-2.133v-1.219h1.829v-.914h-1.829v-1.117h2.032v-.914h-2.946v2.54zM52.317 28.749v2.54h.914l.02-1.636.03-1.625 1.31 1.625c1.29 1.595 1.321 1.636 1.707 1.636h.386V26.21h-.914l-.02 1.646-.03 1.646-1.31-1.646c-1.29-1.615-1.321-1.646-1.707-1.646h-.386v2.54zM62.883 28.749v2.54h2.641v-.914h-1.727v-1.219h1.727v-.914h-1.727v-1.117h1.727v-.914h-2.641v2.54z"/></symbol><symbol id="icon-crewm" viewBox="0 0 53 32"><path d="M17.664.73c0 .013-.058.39-.128.845s-.128.89-.128.966c0 .218.173.179.224-.045.045-.211.288-.282.288-.083 0 .173.102.301.205.256.077-.026.077-.141-.019-.794-.179-1.184-.179-1.171-.314-1.171-.07 0-.128.013-.128.026zM19.968 1.69c0 .954.006.998.128.998.115 0 .128-.045.134-.499.006-.435.013-.467.07-.288.083.256.224.275.288.032.038-.134.058-.077.083.275.026.358.051.448.147.467.102.019.109-.058.109-.973 0-.563-.026-.998-.058-.998s-.122.192-.198.429a4.903 4.903 0 0 1-.186.486c-.026.026-.122-.16-.211-.416-.256-.736-.307-.653-.307.486zM22.771 1.338c-.013.352-.006.794.013.979l.032.339h.32c.243 0 .32-.026.32-.096 0-.058-.07-.102-.173-.115-.154-.019-.179-.051-.179-.211 0-.141.032-.186.128-.186.083 0 .128-.045.128-.128s-.045-.128-.128-.128c-.115 0-.128-.045-.128-.41 0-.403.006-.416.179-.435.102-.013.173-.058.173-.115 0-.07-.09-.102-.326-.115l-.333-.019-.026.64zM25.229 1.677c.019.87.032.979.134.998.09.019.109-.026.109-.288.006-.282.013-.301.096-.186a.55.55 0 0 1 .096.275c0 .173.166.262.275.154.051-.051.032-.154-.07-.403-.128-.301-.128-.339-.038-.442.134-.147.186-.531.096-.755-.083-.198-.301-.326-.557-.326h-.16l.019.973zM30.112.813c-.173.166-.224.378-.224.89 0 .646.186.986.538.986.147 0 .128-.237-.026-.275-.166-.045-.256-.294-.256-.71 0-.429.102-.723.262-.762.064-.019.122-.077.122-.134 0-.134-.282-.134-.416.006zM32.576.717c-.096.486-.294 1.888-.275 1.92.064.115.198.038.237-.141.045-.256.294-.275.294-.032 0 .16.134.269.243.198.032-.019.006-.365-.058-.787-.192-1.222-.179-1.171-.314-1.171-.07 0-.128.006-.128.013zM34.88 1.69c0 .954.006.998.128.998.115 0 .128-.045.128-.493 0-.269.019-.467.045-.442.026.019.115.23.205.461.09.237.198.422.23.416.038-.006.07-.384.083-.966.013-.928.013-.96-.115-.96-.115 0-.128.038-.128.48 0 .262-.019.48-.051.48-.026 0-.122-.205-.211-.461-.262-.73-.314-.653-.314.486zM21.837 5.229c2.598.013 6.848.013 9.44 0 2.598-.006.474-.013-4.717-.013s-7.315.006-4.723.013zM14.573 8.006c-1.267.301-2.131 1.626-2.509 3.866-.275 1.626-.352 3.456-.224 5.376.211 3.142.973 5.03 2.291 5.677.358.179.512.218.973.23.301.013.646 0 .768-.032.224-.058.224-.064.243-.454l.019-.397h-.474c-.378 0-.531-.032-.806-.166-.614-.307-1.101-1.107-1.408-2.298-.538-2.086-.57-6.035-.064-8.301.41-1.869 1.197-2.758 2.33-2.656l.416.038v-.813l-.32-.07a3.093 3.093 0 0 0-1.235 0zM18.944 15.584v7.52h1.216V17.76l.256.352c.365.512.941 1.645 1.158 2.285a8.53 8.53 0 0 1 .416 2.125l.045.582h.531c.288 0 .55-.026.57-.064.051-.083-.07-1.152-.198-1.766-.23-1.126-.826-2.496-1.459-3.373-.198-.275-.358-.512-.358-.525s.224-.25.506-.525a5.835 5.835 0 0 0 1.574-3.059c.154-.813.102-2.547-.09-3.219-.198-.678-.48-1.203-.89-1.626-.608-.64-1.306-.883-2.522-.883h-.755v7.52zm1.894-6.528c.256.102.634.48.794.8.07.134.192.474.269.749.134.448.147.627.141 1.811-.006 1.126-.026 1.382-.141 1.824-.282 1.043-.973 2.15-1.542 2.483l-.198.115V8.889l.243.045c.128.026.326.077.435.122zM26.368 12.512v4.448h-.506l.013.397.013.403.448.064.019 2.643.013 2.637 1.907-.013 1.901-.019v-.832l-1.299-.019-1.293-.013.013-2.195.019-2.189 1.952-.038v-.826h-1.984V8.896h2.624v-.832h-3.84v4.448zM32.128 8.077c0 .051.352 2.374.608 3.987.16 1.018.48 3.078.704 4.576.23 1.498.544 3.546.704 4.55.16 1.011.288 1.856.288 1.875 0 .07.57.038.614-.032.019-.038.154-.794.288-1.683.57-3.718 1.21-7.802 1.222-7.821.013-.006.333 2.035.717 4.538.384 2.509.717 4.659.736 4.781.045.211.058.224.346.243.346.026.301.122.486-1.107.07-.461.218-1.395.326-2.08.102-.685.262-1.722.346-2.304.09-.582.435-2.816.768-4.96.333-2.15.627-4.058.653-4.243l.045-.333h-.525c-.282 0-.518.013-.518.032s-.115.819-.256 1.779c-.147.96-.39 2.618-.544 3.693-.16 1.075-.378 2.522-.48 3.213a36.775 36.775 0 0 0-.192 1.338c0 .045-.013.064-.032.051-.026-.032-.109-.55-.672-4.442-.141-.954-.384-2.598-.544-3.667-.16-1.062-.288-1.946-.288-1.965s-.128-.032-.282-.032c-.339 0-.256-.307-.678 2.528-.179 1.197-.403 2.739-.512 3.424-.102.685-.282 1.901-.397 2.701s-.218 1.44-.23 1.434c-.026-.032-.563-3.59-1.229-8.224-.141-.966-.256-1.779-.256-1.811 0-.026-.275-.051-.608-.051s-.608.006-.608.013zM17.152 25.984c0 .045 3.181.064 9.408.064s9.408-.019 9.408-.064-3.181-.064-9.408-.064-9.408.019-9.408.064zM12.192 28.634c-.55.243-.768.934-.48 1.555.166.378.442.531.928.531s.762-.154.928-.531c.269-.589.083-1.274-.41-1.51a1.19 1.19 0 0 0-.966-.045zm.986.384c.205.211.262.813.109 1.114a.715.715 0 0 1-1.286-.026c-.154-.326-.109-.864.096-1.082.294-.314.768-.314 1.082-.006zM21.894 28.71c-.16.134-.198.218-.198.41 0 .307.179.467.659.576.442.102.621.224.621.416 0 .403-.614.576-.928.256-.09-.083-.16-.198-.16-.256 0-.064-.058-.096-.166-.096-.147 0-.16.019-.128.173.096.39.461.582 1.03.538.576-.051.87-.57.55-.979-.122-.147-.25-.205-.877-.365-.422-.109-.454-.448-.058-.582.262-.09.64.045.704.25.045.154.288.186.288.032 0-.486-.902-.736-1.338-.371zM15.206 28.749a.687.687 0 0 0-.102.352c0 .147-.032.211-.096.211-.051 0-.096.045-.096.096s.045.096.096.096c.07 0 .096.122.109.589.019.506.038.595.134.614s.109-.038.109-.589c0-.57.006-.614.128-.614.166 0 .166-.166-.006-.211-.192-.051-.154-.454.058-.48.218-.032.179-.205-.045-.205a.334.334 0 0 0-.288.141zM35.904 29.664c0 1.011.006 1.056.128 1.056s.128-.045.134-.851v-.845l.314.832c.403 1.094.442 1.094.845.038.166-.435.32-.806.346-.832.019-.019.026.333.019.794-.026.8-.019.832.102.832s.128-.051.147-1.043l.019-1.037h-.198c-.218 0-.179-.07-.608 1.05l-.243.64-.218-.576c-.115-.314-.256-.691-.314-.845-.09-.23-.128-.269-.288-.269h-.186v1.056zM16.704 29.421c-.256.224-.32.602-.166.928.128.262.326.371.672.371.378 0 .768-.429.486-.531-.058-.026-.122.026-.173.134-.109.23-.48.275-.659.077-.16-.173-.16-.653 0-.832s.442-.166.595.032c.083.102.166.147.23.122.147-.058.128-.122-.096-.307-.275-.23-.627-.23-.89.006zM18.848 29.408c-.09.083-.16.186-.16.224 0 .115.224.07.307-.064.122-.198.448-.173.531.038.032.096.045.186.026.205-.013.019-.179.058-.358.083-.179.032-.384.102-.448.16-.16.141-.154.378.006.538.154.154.582.173.704.032.077-.09.096-.09.192 0 .147.134.32.122.32-.026 0-.07-.032-.134-.07-.147-.045-.013-.083-.211-.09-.499-.006-.403-.032-.486-.154-.589-.218-.173-.614-.154-.806.045zM23.558 29.306c-.141.09-.07 1.107.083 1.28.147.16.461.179.666.032.128-.09.141-.09.141.006 0 .064.045.096.115.083.096-.019.109-.102.109-.723s-.013-.704-.109-.723c-.102-.019-.115.038-.115.493 0 .474-.013.518-.166.64-.211.166-.294.166-.429.019-.083-.09-.109-.243-.109-.608 0-.493-.038-.589-.186-.499zM25.408 29.357c-.109.077-.16.083-.179.032-.013-.045-.064-.077-.115-.077-.07 0-.09.186-.09 1.024 0 .998 0 1.024.134 1.024.128 0 .134-.026.109-.384-.026-.333-.013-.384.07-.346.058.026.218.058.365.077.352.032.595-.166.646-.544.045-.358-.013-.576-.218-.762a.578.578 0 0 0-.723-.045zm.538.217c.333.262.166.954-.237.954-.288 0-.429-.173-.429-.512 0-.262.026-.333.166-.442.096-.077.205-.134.25-.134s.154.058.25.134zM27.021 29.35c-.077.051-.141.064-.141.032 0-.038-.058-.07-.128-.07-.122 0-.128.045-.128 1.024s.006 1.024.128 1.024c.115 0 .128-.045.128-.384 0-.365.006-.384.122-.32.23.122.614.077.762-.083.448-.48.192-1.325-.397-1.325a.692.692 0 0 0-.346.102zm.691.436c.173.525-.346.973-.704.614-.141-.141-.173-.499-.058-.71.166-.314.646-.25.762.096zM29.856 29.312c-.294.115-.454.525-.352.902.141.512.71.672 1.101.314.179-.16.198-.198.115-.256-.07-.045-.128-.026-.211.096-.224.301-.749.154-.749-.211 0-.134.032-.141.512-.141h.512v-.186c0-.275-.314-.582-.589-.576-.115 0-.269.026-.339.058zM33.798 29.414c-.23.192-.307.512-.205.864.096.307.282.442.621.442.499 0 .819-.461.672-.966-.147-.499-.698-.672-1.088-.339zm.724.167c.058.077.102.262.102.403 0 .333-.147.544-.378.544-.269 0-.397-.134-.435-.454-.026-.224-.006-.32.109-.461.173-.218.461-.237.602-.032zM38.47 29.446c-.173.173-.198.237-.198.55 0 .301.026.378.186.538.256.25.698.262.934.026.179-.179.198-.256.07-.307-.058-.019-.134.026-.192.122-.205.307-.742.134-.742-.243 0-.102.064-.115.512-.115h.512v-.198c0-.294-.301-.57-.627-.57-.205 0-.301.045-.454.198zM39.987 29.299c-.102.019-.115.109-.115.723 0 .653.006.698.128.698.115 0 .128-.045.128-.499 0-.538.019-.595.243-.71.122-.064.179-.064.307.026.141.09.154.134.154.64 0 .442.019.544.096.544s.096-.109.096-.608c0-.525-.019-.627-.128-.736-.154-.154-.429-.166-.621-.032-.109.077-.141.077-.16.013-.013-.045-.07-.07-.128-.058z"/></symbol><symbol id="icon-crews" viewBox="0 0 32 32"><path d="M6.599 10.581c-.626.284-1.01.839-1.38 1.991-.27.882-.313 1.323-.313 3.57s.043 2.688.313 3.57c.498 1.579 1.152 2.19 2.318 2.19.455 0 .569-.057.569-.27 0-.199-.142-.284-.569-.356-1.124-.185-1.678-1.522-1.806-4.423-.114-2.66.213-4.551.939-5.376.313-.341.526-.441.924-.441.441 0 .512-.043.484-.299-.057-.356-.825-.441-1.479-.156zM10.24 16.213v5.689h.853v-1.991c0-1.095.057-1.991.128-1.991.057 0 .313.37.555.811.412.782.626 1.465.811 2.631.071.469.142.54.455.54.356 0 .37-.014.27-.796-.114-1.038-.526-2.176-1.052-2.958l-.427-.626.412-.398c.228-.228.597-.754.811-1.195.341-.697.384-.939.384-2.204 0-1.237-.043-1.493-.341-2.005-.441-.768-1.195-1.195-2.133-1.195h-.725v5.689zm1.778-4.778c.981.981.782 4.139-.341 5.305-.171.185-.37.327-.441.327-.085 0-.142-1.166-.142-2.987 0-2.916 0-2.987.284-2.987.171 0 .455.156.64.341zM15.929 13.867c0 2.873-.028 3.342-.213 3.342-.114 0-.213.128-.213.27s.1.299.213.356c.171.057.213.427.213 2.076v1.991h2.844v-.356c0-.341-.028-.356-.996-.356h-.996v-3.413h.711c.612 0 .711-.043.711-.284s-.1-.284-.711-.284h-.711v-6.116h.996c.896 0 .996-.028.996-.284 0-.27-.1-.284-1.422-.284h-1.422v3.342zM20.338 10.667c0 .156 1.479 9.842 1.636 10.766.057.284.171.469.284.469s.213-.043.213-.114c0-.37 1.052-6.94 1.138-7.04.043-.057.228.868.412 2.062.683 4.636.768 5.092.953 5.092.1 0 .213-.171.256-.398.128-.626 1.65-10.581 1.65-10.78 0-.114-.142-.199-.327-.199-.327 0-.341.071-.882 3.769-.313 2.076-.597 3.769-.64 3.769s-.213-1.038-.398-2.318c-.668-4.636-.768-5.22-.967-5.22-.114 0-.199.043-.199.1-.014.37-1.109 7.452-1.152 7.509-.043.028-.313-1.664-.626-3.769l-.555-3.84h-.398c-.213 0-.398.071-.398.142z"/></symbol><symbol id="icon-alpecincb" viewBox="0 0 53 32"><path d="M24.764 2.296c-1.8.294-3.75 1.024-5.195 1.958-1.257.806-2.696 2.138-3.516 3.253l-.346.474H2.109v15.586h13.289l.467.655c.256.369.753.971 1.107 1.348 1.912 2.056 4.352 3.411 7.206 4.036.685.143 1.001.166 2.552.166 2.01.008 2.575-.083 4.247-.64 2.086-.693 3.802-1.784 5.399-3.433.663-.685 1.649-1.92 1.649-2.071 0-.03 2.982-.06 6.626-.06h6.626V7.982H37.814l-.489-.625c-.625-.798-1.875-2.01-2.665-2.59-1.551-1.152-3.388-1.958-5.368-2.372-.956-.196-3.569-.256-4.525-.098zm14.652 7.485c.376.218.565.572.565 1.062 0 .926-.783 1.491-1.619 1.167-.467-.173-.73-.535-.776-1.047-.083-1.047.926-1.702 1.83-1.182zm-25.441 5.504c.964 2.839 1.754 5.203 1.754 5.248.008.12-2.515.143-2.59.023a9.243 9.243 0 0 1-.233-.738l-.339-1.167-.151-.504H9.57l-.151.504c-.083.286-.241.843-.354 1.242l-.211.738H7.551c-.715 0-1.303-.03-1.303-.06 0-.045 3.298-9.841 3.501-10.391.023-.075.316-.09 1.25-.075l1.22.023 1.754 5.158zm4.246.075v5.278l-2.296-.045-.023-5.256-.015-5.248h2.334v5.271zm18.545-2.974.354.128v2.01l-.316-.143c-.437-.196-.708-.188-1.167.038-.663.331-1.001 1.024-1.001 2.04 0 1.054.512 1.852 1.325 2.056.346.09.873.008.971-.143.143-.226.188.015.188.941v1.009l-.392.128c-.218.068-.723.136-1.114.158-.61.03-.783.015-1.137-.12-.851-.324-1.611-1.257-2.003-2.455-.166-.504-.196-.753-.203-1.544-.008-1.092.075-1.521.482-2.372.437-.919 1.039-1.521 1.792-1.807.376-.151 1.724-.105 2.221.075zm-13.086.105c.693.316 1.25 1.039 1.596 2.071.188.572.203.693.203 1.928 0 1.227-.015 1.355-.203 1.92-.369 1.114-1.039 1.897-1.852 2.184-.474.158-1.348.143-1.815-.03l-.376-.143v3.674h-2.259V12.424h2.259v.776l.346-.316c.188-.181.444-.369.58-.422.346-.158 1.16-.136 1.521.03zm6.4.098c.693.361 1.242 1.047 1.536 1.92.188.565.331 1.792.264 2.296l-.053.361h-1.83c-1.8 0-1.837 0-1.837.151 0 .226.203.685.399.888.316.346.715.489 1.325.482.309-.008.67-.03.791-.06.279-.06.783-.301.971-.467.12-.105.128-.06.128.956v1.069l-.354.151c-.655.279-1.288.384-2.168.354-.76-.023-.873-.045-1.333-.271-1.25-.61-2.086-2.168-2.093-3.87 0-1.928.926-3.584 2.304-4.096.474-.173 1.483-.105 1.95.136zm15.789.03c.384.279.776.986.888 1.604.045.226.075 1.747.075 3.411v3.004l-2.296-.045-.038-2.62-.038-2.628-.211-.181c-.113-.098-.256-.181-.316-.181-.226 0-.497.188-.663.444-.158.264-.166.354-.203 2.718l-.038 2.447-2.296.045v-8.222l2.296.045.075.873.339-.354c.497-.512.813-.64 1.521-.617.504.023.61.053.904.256zm-5.963 3.908v4.104h-2.259v-8.207h2.259v4.104z"/><path d="M10.639 14.509c-.211.783-.376 1.423-.369 1.438.015.008.376.008.813 0l.783-.023-.376-1.408c-.211-.783-.399-1.416-.422-1.416s-.218.632-.429 1.408zM21.843 14.456a2.566 2.566 0 0 0-.392.233l-.218.151v3.381l.301.151c.866.444 1.551-.196 1.687-1.581.143-1.431-.58-2.658-1.378-2.334zM28.552 14.276c-.211.143-.286.294-.354.685l-.053.324h1.596v-.309c0-.61-.715-1.032-1.19-.7z"/></symbol><symbol id="icon-redken" viewBox="0 0 102 32"><path d="m22.654 2.21-5.156.076.508.686c.508.635.533.965.533 8.61 0 4.394-.102 8-.229 8.076-.356.229-3.048-2.54-5.156-5.283l-1.956-2.514 1.194-.559c1.321-.61 2.743-2.083 2.997-3.073.102-.356.102-1.27.051-2.057-.102-1.27-.229-1.524-1.143-2.387-.559-.508-1.473-1.067-2.006-1.219-.559-.152-2.844-.279-5.13-.279H3.047l.508.508c.483.483.508.889.584 6.146.102 9.778.076 10.489-.406 11.225l-.432.66h2.413c2.235 0 2.413-.025 2.057-.406-.229-.203-.457-.635-.533-.94s-.102-3.886-.076-7.924l.076-7.365 1.575-.076c2.59-.127 3.886.965 3.886 3.225 0 1.651-1.397 2.946-3.886 3.683l-1.016.279 1.473 2.159c2.108 3.124 4.978 6.603 5.765 7.01.533.279 2.159.356 7.517.356h6.806l.457-1.473c.254-.787.533-1.625.61-1.829.102-.229-.102-.178-.559.203-.406.305-1.194.686-1.778.838-1.117.33-4.47.381-5.74.102l-.762-.178v-6.756h1.295c.736-.025 1.752.127 2.286.305l.99.356V9.652h-4.571V4.319h2.235c1.727 0 2.413.102 3.175.508l.94.508V3.684c0-.914-.025-1.625-.051-1.6-.051.051-2.387.102-5.232.127zM71.822 2.21l-5.003.076.483.838c.483.762.508 1.295.508 8.356 0 7.492-.127 8.711-.889 8.99-.737.305-2.514-1.448-5.613-5.511-1.727-2.26-3.149-4.216-3.149-4.343s1.422-2.057 3.175-4.292l3.175-4.038h-2.463c-1.905 0-2.387.076-2.159.305.711.711.279 1.625-2.235 5.029-1.397 1.879-2.54 3.505-2.54 3.632 0 .508 6.476 8.863 7.136 9.194.584.305 2.159.381 8.457.381h7.746l.508-1.397c.305-.787.533-1.524.533-1.651s-.635.076-1.422.432c-1.219.559-1.752.635-3.81.61-1.321 0-2.667-.076-3.022-.178l-.66-.152.076-3.352.076-3.327 1.803.025c.99.025 2.032.178 2.337.33.533.279.559.254.559-1.117V9.653h-4.851l.076-2.616.076-2.59h2.565c2.184 0 2.667.076 3.124.483l.533.483V3.737c0-.94-.025-1.676-.051-1.651-.051.051-2.337.102-5.079.127zM32.762 2.997c.508.686.533.965.457 8.736-.076 7.467-.102 8.051-.559 8.559l-.483.533h4.571c5.333 0 6.959-.356 9.092-1.956 2.743-2.108 3.835-4.495 3.632-8.051-.127-2.438-.813-4.14-2.184-5.562-2.26-2.362-4.47-2.971-10.794-2.971h-4.267l.533.711zm10.006 2.184c2.514 1.244 3.581 3.378 3.403 6.806-.127 2.463-.711 3.81-2.159 5.003-1.473 1.219-3.327 1.803-5.663 1.803h-2.032v-7.086c0-8.178-.305-7.39 2.946-7.289 1.651.051 2.337.203 3.505.762zM50.819 3.149c.483.813.508 1.244.432 8.736-.076 7.314-.102 7.898-.559 8.406l-.483.533h4.978l-.483-.533c-.457-.508-.483-1.092-.559-8.279-.076-7.238-.051-7.822.406-8.736l.483-.99H50.31l.508.864zM80.559 3.073c.584.762.584.864.584 8.483s0 7.721-.584 8.483l-.584.787h2.311c2.286 0 2.286 0 1.778-.508-.279-.279-.559-.762-.635-1.067-.076-.33-.102-3.327-.076-6.679l.076-6.095 5.054 6.349c2.768 3.479 5.41 6.73 5.841 7.187.66.736 2.362 1.829 2.794 1.829.076 0 .178-4.114.203-9.117l.076-9.117 1.219-1.321h-4.724l.61.66c.61.66.61.66.686 7.162.076 5.714.025 6.476-.305 6.146-.533-.559-10.235-12.851-10.616-13.46-.279-.432-.584-.508-2.311-.508h-1.981l.584.787z"/></symbol><symbol id="icon-coiffm" viewBox="0 0 79 32"><path d="M39.023.03c-1.38.168-2.537.717-3.462 1.652-1.736 1.741-2.166 4.333-1.088 6.504a5.96 5.96 0 0 0 1.983 2.245c.885.584 1.736.841 2.888.88 1.058.035 1.86-.119 2.72-.529.747-.356 1.657-1.143 2.156-1.865a5.655 5.655 0 0 0-.643-7.231A5.77 5.77 0 0 0 40.694.123c-.356-.079-1.355-.134-1.672-.094zm.9 1.721c.989.188 1.968.791 2.438 1.504.124.188.124.213.114.905l-.015.712-.134-.247c-.425-.806-1.162-1.202-2.171-1.152-.584.03-.955.208-1.39.678-.841.905-1.029 2.28-.47 3.408.227.46.702.959 1.113 1.157.574.287 1.434.252 2.053-.074.326-.173.673-.529.866-.9l.134-.247.015.717c.015.821.025.796-.48.989-.549.208-.89.267-1.637.267-.648 0-.757-.015-1.113-.134a3.443 3.443 0 0 1-2.161-2.033c-.153-.386-.163-.43-.163-1.093 0-.598.015-.737.114-1.014a3.514 3.514 0 0 1 2.221-2.166c.346-.114.46-.129 1.103-.129.48.005.826.03 1.039.079l.321.079-.237-.208a2.88 2.88 0 0 0-.593-.386c-1.167-.579-2.181-.336-3.373.806-.317.302-.509.435-.955.663-.658.331-.752.445-.653.791.079.272.049.321-.406.697-.445.371-.509.504-.321.702.163.173.173.346.025.401-.247.094-.584-.277-.514-.564.02-.069.168-.272.331-.45.391-.42.47-.598.366-.841-.064-.163-.064-.193.025-.366.119-.237.341-.406.668-.514.381-.124.603-.312 1.024-.851.42-.549.613-.742.94-.925.539-.307 1.177-.396 1.879-.262zM77.408 16.836c-.598.218-.92.915-.727 1.583.163.549.589.87 1.167.87.757 0 1.251-.5 1.251-1.261 0-.574-.262-.974-.776-1.187-.208-.089-.678-.089-.915-.005zm.886.203c.188.094.396.321.475.514.094.227.099.732.005.945-.242.574-1.019.786-1.508.415-.574-.44-.509-1.513.114-1.84.312-.158.638-.173.915-.035z"/><path d="M77.354 18.053v.692h.124c.119 0 .124-.015.124-.297s.005-.297.119-.297c.094 0 .163.064.307.297.138.227.208.297.302.297.114 0 .114-.005-.084-.297l-.203-.297.114-.044c.178-.064.257-.193.252-.391-.01-.282-.138-.356-.638-.356h-.415v.692zM4.031 17.187c-1.083.203-1.968.673-2.661 1.405a5.044 5.044 0 0 0-1.227 2.181c-.143.554-.158 1.568-.03 2.137.336 1.454 1.261 2.607 2.631 3.279.831.41 1.197.49 2.275.495.539 0 1.039-.025 1.261-.069.519-.094 1.207-.321 1.558-.514l.297-.168.015-.994.01-.999h-.158c-.148 0-.173.025-.287.262-.193.396-.752.94-1.192 1.147-.544.257-.925.341-1.553.341-.445.005-.603-.015-.875-.109-.633-.218-1.256-.712-1.647-1.296-.905-1.36-.9-3.442.015-4.783.376-.544.87-.959 1.419-1.192.351-.153.638-.208 1.063-.203 1.227 0 2.231.529 2.745 1.449.158.287.198.326.326.326h.143v-2.018l-.41-.203c-.93-.46-2.631-.678-3.719-.475zM14.269 17.167c-.772.099-1.578.396-2.161.791-.401.272-1.098.974-1.36 1.365-.237.361-.475.91-.618 1.439s-.153 1.696-.02 2.236c.267 1.068.791 1.919 1.573 2.557.994.811 1.954 1.157 3.18 1.157 1.375 0 2.527-.475 3.492-1.434 2.097-2.097 1.835-5.401-.574-7.211-.92-.692-2.344-1.053-3.512-.9zm1.444 1.088c.43.134 1.014.544 1.355.95.589.697.88 1.494.92 2.513.03.707-.02 1.088-.227 1.706-.198.584-.41.92-.895 1.405-.633.633-1.212.89-2.013.89-1.434 0-2.696-1.207-3.062-2.933-.094-.445-.089-1.281.01-1.756.252-1.232 1.103-2.339 2.107-2.735.534-.208 1.202-.223 1.805-.04zM21.599 17.172c-.079.059-.084.361-.094 4.773-.015 4.669-.015 4.709.084 4.748.054.02.445.03.866.015l.767-.025.015-4.738.01-4.738-.109-.04c-.193-.074-1.439-.069-1.538.005zM25.006 17.147c-.015.015-.03 2.137-.03 4.713 0 4.476.005 4.689.089 4.763.079.069.218.084.89.084h.801v-4.105h3.749l.079-.124c.119-.183.114-1.019-.01-1.128-.084-.074-.292-.084-1.954-.084h-1.865v-3.165h2.107c2.478.005 2.31.044 2.285-.514-.015-.317-.025-.356-.139-.41-.094-.049-.781-.064-3.047-.064-1.607 0-2.938.015-2.958.035zM32.89 21.831c0 4.501.005 4.718.089 4.793.079.069.213.084.866.084h.776v-4.105h1.87c1.751 0 1.879-.005 1.954-.089.109-.119.124-1.103.02-1.192-.049-.035-.658-.059-1.944-.064l-1.874-.015v-3.116l2.122-.015c2.463-.015 2.305.02 2.305-.48 0-.252-.02-.321-.114-.41l-.119-.109-5.95.005v4.713zM43.049 17.152c-.035.02-.163.297-.287.613-.129.321-.49 1.197-.801 1.954-.317.757-.801 1.944-1.083 2.636a118.35 118.35 0 0 1-.915 2.226c-.41.974-.841 2.053-.841 2.117 0 .02.317.03.707.02l.702-.015.485-1.321c.262-.727.554-1.528.638-1.781l.163-.455 1.36.01 1.36.015.351 1.014c.198.559.475 1.345.623 1.756l.267.742.95.015c.524.005.95-.005.95-.02 0-.049-.89-2.325-1.395-3.556-.242-.598-.727-1.81-1.078-2.696s-.791-1.983-.979-2.448l-.341-.841-.391-.01c-.213-.01-.415 0-.445.025zm.618 3.616c.247.687.45 1.261.45 1.271s-.435.02-.969.02-.959-.02-.95-.04l.485-1.311c.258-.698.485-1.251.5-1.232.02.02.237.598.485 1.291zM49.672 17.197l-.104.089-.049 4.624c-.044 4.155-.04 4.634.03 4.709.109.124 1.004.129 1.103.01.054-.069.064-.683.054-3.502l-.015-3.418.208.223c.114.124.42.49.683.816.257.326.663.816.895 1.088s.722.861 1.088 1.311c.366.45.945 1.152 1.286 1.563l1.133 1.37.514.628.45.005c.247 0 .5.01.564.015.064.01.168-.03.232-.079l.119-.094v-3.274c.005-1.8.02-3.868.035-4.59.044-1.657.069-1.588-.603-1.573-.683.01-.673-.005-.638.851.044 1.326.079 6.069.04 6.064-.02 0-.183-.183-.361-.406s-.544-.658-.816-.974c-.272-.312-.776-.905-1.123-1.311a799.639 799.639 0 0 0-3.398-4.011l-.173-.193-.519-.015c-.455-.02-.539-.01-.633.074zM63.995 17.162c-1.914.218-3.502 1.489-4.095 3.289-.866 2.621.687 5.376 3.467 6.143.396.114 2.211.129 2.686.025.668-.148 1.296-.386 1.622-.613l.134-.094v-1.973h-.143c-.129 0-.168.04-.312.307-.485.91-1.538 1.474-2.755 1.474-.846 0-1.385-.237-2.062-.915-.678-.673-.994-1.365-1.108-2.399-.109-1.004.109-1.998.603-2.775.391-.608.979-1.113 1.548-1.325.846-.317 1.983-.203 2.799.272.356.208.826.712 1.004 1.073.119.247.153.282.282.282h.143v-2.028l-.257-.148c-.767-.44-2.433-.717-3.556-.593zM69.673 17.202c-.079.084-.084.485-.084 4.738 0 3.551.015 4.664.059 4.709s.772.059 2.958.059c3.353 0 3.066.044 3.066-.504 0-.519.158-.485-2.265-.485H71.32v-3.116h3.497l.104-.114c.094-.104.109-.173.109-.589 0-.391-.015-.485-.089-.549-.079-.074-.297-.084-1.845-.094l-1.751-.015v-3.116l2.072-.015c2.404-.015 2.255.02 2.255-.48 0-.252-.02-.321-.114-.41l-.114-.109h-2.849c-2.691 0-2.849.005-2.923.089zM25.936 28.642c-.223.064-.317.198-.351.485l-.03.252h-.237c-.183 0-.242.02-.242.074s.059.074.247.074h.247v1.731h.321v-1.706l.287-.015c.208-.01.282-.035.282-.084 0-.054-.064-.074-.267-.074-.302 0-.356-.074-.272-.356.054-.203.114-.237.406-.237.203 0 .237-.015.223-.089-.02-.099-.361-.134-.613-.054zM65.138 29.923v1.335h.346v-2.671h-.346v1.335zM12.805 29.329c-.272.044-.589.188-.623.282-.049.124-.114.064-.114-.109 0-.153-.015-.168-.109-.153a.974.974 0 0 1-.148.025c-.025.005-.04.593-.04 1.316v1.311h.297v-.519c0-.287.015-.519.03-.519s.099.054.183.119c.307.232.88.297 1.365.148.786-.232.979-1.187.341-1.667-.277-.208-.757-.302-1.182-.232zm.826.272c.218.129.415.445.415.673 0 .648-.643 1.039-1.35.826a.85.85 0 0 1-.48-1.261c.218-.361.984-.49 1.415-.237zM21.287 29.329c-.336.049-.707.257-.856.475-.262.381-.168.945.213 1.232.529.406 1.543.356 1.988-.094.341-.336.391-.786.124-1.162-.252-.351-.866-.539-1.469-.45zm.762.223c.356.153.554.425.554.776 0 .445-.371.776-.91.816-.282.025-.361.01-.593-.104-.534-.262-.668-.796-.317-1.246.232-.292.861-.41 1.266-.242zM29.576 29.329c-.529.089-.851.346-.945.762-.099.455.089.856.519 1.083.173.094.282.109.722.109.445 0 .554-.015.757-.119.208-.099.43-.341.43-.465 0-.02-.064-.035-.139-.035-.099 0-.173.044-.252.153-.371.504-1.395.425-1.657-.129-.158-.331-.198-.321 1.014-.321h1.098l-.03-.203a1.137 1.137 0 0 0-.158-.401c-.223-.336-.816-.529-1.36-.435zm.772.243c.203.094.415.356.415.519 0 .069-.104.079-.92.079h-.915l.035-.114c.153-.49.841-.732 1.385-.485zM34.191 29.329c-.534.079-.791.317-.678.628.069.203.282.297.935.41.747.134.875.198.856.41-.025.242-.262.356-.757.356-.45 0-.692-.104-.806-.336-.049-.099-.099-.134-.213-.134-.153 0-.173.044-.089.213.148.272.549.43 1.113.43.767 0 1.266-.351 1.058-.747-.089-.158-.396-.277-1.009-.381-.45-.079-.608-.124-.702-.213-.148-.143-.148-.198.01-.346.109-.099.183-.119.504-.134.425-.015.687.074.776.272.064.148.386.168.336.025-.124-.356-.692-.549-1.335-.455zM38.776 29.329c-.623.079-.94.465-.618.762.143.134.341.198.955.302.579.099.692.143.762.297.049.109.04.143-.054.242-.326.346-1.311.277-1.489-.104-.059-.134-.104-.163-.237-.163-.148 0-.163.01-.134.109.104.336.529.534 1.138.534.831 0 1.321-.371 1.034-.786-.114-.158-.346-.247-.88-.331-.554-.089-.737-.143-.846-.267-.064-.069-.069-.114-.03-.193.094-.168.317-.252.683-.252.361 0 .603.099.707.292.035.069.104.104.198.104.173 0 .183-.059.049-.247-.173-.242-.687-.366-1.236-.297zM46.516 29.329c-.856.124-1.276.816-.89 1.469.346.584 1.598.692 2.186.188.242-.203.331-.44.302-.767-.035-.356-.193-.564-.549-.737a1.76 1.76 0 0 0-1.049-.153zm.797.243c.267.124.47.391.5.663.084.821-1.142 1.251-1.776.618-.406-.406-.267-1.034.282-1.281.262-.124.727-.119.994 0zM51.576 29.334c-.242.04-.584.213-.584.297 0 .03-.02.035-.049.02-.025-.015-.049-.084-.049-.153 0-.099-.025-.119-.148-.119h-.148v1.879h.287l.02-.638c.015-.692.049-.786.356-1.014.188-.143.776-.168 1.019-.044.237.124.292.312.292 1.063l.005.633h.297v-.692c0-.821-.049-.984-.331-1.128-.223-.114-.638-.158-.964-.104zM56.448 29.334c-.223.04-.485.163-.534.242-.054.089-.124.049-.124-.074 0-.104-.025-.124-.148-.124h-.148v1.879h.297v-.569c0-.673.064-.88.331-1.063.158-.109.232-.124.598-.124.406 0 .415.005.559.163l.143.158v1.434h.346v-.692c0-.851-.049-.999-.356-1.133-.257-.114-.683-.153-.964-.099zM61.206 29.329c-.277.04-.598.188-.727.331-.317.346-.307.989.02 1.335.168.178.589.312.994.312.584 0 .945-.153 1.138-.485l.094-.158h-.168c-.134 0-.188.03-.237.124-.153.292-.752.455-1.157.321-.317-.104-.623-.445-.623-.692 0-.03.381-.049 1.113-.049h1.113l-.03-.139c-.074-.341-.139-.465-.331-.628-.282-.242-.717-.341-1.197-.272zm.791.262c.193.109.42.386.42.509 0 .054-.183.069-.94.069-.514 0-.94-.01-.94-.025 0-.153.336-.529.544-.613.232-.094.697-.064.915.059zM17.781 29.374a.843.843 0 0 0-.465.272c-.163.173-.203.163-.203-.069 0-.178-.01-.198-.124-.198h-.124v1.879h.297v-.574c0-.485.015-.603.099-.732.124-.203.43-.371.742-.41.198-.025.247-.049.247-.119 0-.074-.035-.094-.158-.089-.089.005-.227.02-.312.04zM42.683 30.318v.94h.346v-1.879h-.346v.94z"/></symbol><symbol id="icon-coiffs" viewBox="0 0 71 32"><path d="M34.027 3.179c-2.176 1.003-3.051 3.499-1.963 5.589.747 1.387 1.877 2.091 3.413 2.112 2.176 0 3.733-1.045 4.224-2.88.917-3.349-2.539-6.272-5.675-4.821zm3.114 1.152c.533.363.747.661.789 1.173.085.789-.021.832-.64.256-.619-.555-1.301-.533-2.005.064-.448.405-.576.683-.576 1.408 0 1.621 1.579 2.56 2.624 1.515.555-.555.64-.533.64.192 0 .576-.064.64-.939.768-1.963.299-3.328-.725-3.328-2.496 0-.512.149-1.152.341-1.408.427-.597 1.387-1.109 2.155-1.109.533-.021.555-.043.213-.235-.213-.128-.619-.171-.896-.107-.789.192-2.304 1.6-2.731 2.517-.277.619-.469.789-.619.64-.384-.384.235-1.557 1.408-2.645.917-.853 1.216-1.003 1.963-1.024.576 0 1.131.171 1.6.491zM7.979 14.72c-1.152.576-1.835 1.557-1.963 2.773-.256 2.645 2.539 4.565 5.269 3.605.555-.192.661-.341.661-.896-.021-.576-.043-.64-.277-.341-.427.555-1.131.832-2.069.832-.725 0-1.024-.128-1.6-.704-1.259-1.259-1.216-3.264.064-4.501.96-.896 2.795-.768 3.605.277.235.299.256.235.277-.32 0-.789-.213-.896-1.899-1.067-.939-.085-1.387-.021-2.069.341zM15.573 14.763c-1.28.661-1.92 1.643-1.92 2.987 0 1.323.427 2.155 1.536 2.944 2.261 1.643 5.504-.043 5.504-2.88 0-.789-.128-1.323-.491-1.835-.555-.832-2.069-1.685-3.029-1.685-.363 0-1.088.213-1.6.469zm3.072.704c1.003.917 1.259 2.432.683 3.819-.384.939-1.109 1.408-2.155 1.408s-1.643-.384-2.112-1.365c-.683-1.451-.32-3.179.853-4.075.661-.512 2.069-.405 2.731.213zM22.4 17.813v3.52h1.067v-7.04H22.4v3.52zM24.96 17.813v3.52h.533c.512 0 .533-.043.533-1.493v-1.493h1.493c1.344 0 1.493-.043 1.493-.427 0-.363-.171-.405-1.429-.469l-1.451-.064-.064-1.237-.064-1.216h1.728c1.365 0 1.707-.064 1.707-.32s-.384-.32-2.24-.32h-2.24v3.52zM30.933 17.813v3.52h.533c.512 0 .533-.043.533-1.493v-1.472l1.429-.064c1.152-.043 1.451-.128 1.515-.427s-.149-.384-1.387-.427l-1.451-.064-.128-2.432 1.643-.064c1.088-.043 1.685-.149 1.749-.341s-.469-.256-2.176-.256h-2.261v3.52zM37.376 17.323c-1.621 3.861-1.664 4.011-1.216 4.011.192 0 .469-.341.661-.811.747-1.92.661-1.856 2.624-1.771.299.021.512.341.811 1.237.363 1.067.491 1.237.981 1.301.32.043.576 0 .576-.085 0-.491-2.709-6.912-2.901-6.912-.149 0-.832 1.365-1.536 3.029zM43.691 14.763c-.043.277-.107 1.856-.149 3.52-.043 2.667-.021 3.051.277 3.051.384 0 .384.149.341-2.837-.021-1.749.043-2.283.256-2.261.149 0 1.216 1.152 2.368 2.56 2.901 3.499 2.923 3.499 2.923-.981 0-2.987-.043-3.52-.32-3.52s-.32.427-.32 2.581c0 1.408-.085 2.539-.192 2.496-.085-.043-.789-.789-1.515-1.664-1.899-2.261-3.029-3.413-3.328-3.413-.128 0-.299.213-.341.469zM53.653 14.549c-1.685.597-2.731 2.475-2.24 4.117s1.877 2.667 3.627 2.667c1.451 0 2.347-.469 2.347-1.216v-.555l-.512.469c-1.024.96-2.709.939-3.712-.043-1.067-1.088-.917-3.541.277-4.587.811-.683 2.283-.661 3.243.085.619.469.704.491.704.149 0-.597-.299-.917-1.088-1.131-.896-.256-1.813-.256-2.645.043zM58.88 17.813v3.52h2.133c1.792 0 2.133-.043 2.133-.341 0-.277-.256-.32-1.536-.256l-1.557.064-.064-1.237-.064-1.216h1.408c1.237 0 1.387-.043 1.387-.427s-.149-.427-1.387-.427h-1.387v-2.56h1.6c1.28 0 1.6-.064 1.6-.32s-.384-.32-2.133-.32H58.88v3.52z"/></symbol><symbol id="icon-bes" viewBox="0 0 89 32"><path d="M0 16v16h89.351V0H0v16zm29.368 0v14.892H1.108V1.108h28.26V16zm29.368 0v14.892H30.615V1.108h28.121V16zm29.506 0v14.892h-28.19V1.108h28.19V16z"/><path d="m9.032 16.637.042 10.861 3.186-.014c2.493 0 3.422-.055 4.267-.249 2.216-.499 3.865-1.69 4.641-3.38.471-1.025.582-2.923.249-4.073-.457-1.607-1.842-3.145-3.283-3.671l-.637-.236.429-.291c1.122-.748 1.829-2.507 1.704-4.281-.097-1.552-.513-2.604-1.399-3.477-1.399-1.399-2.909-1.856-6.636-1.967l-2.59-.083.028 10.861zm6.137-7.854c1.233.526 1.787 1.496 1.773 3.158-.014 2.286-1.039 3.2-3.81 3.394l-1.219.083v-7.01l1.358.069c.803.042 1.565.166 1.898.305zm.637 9.17c1.219.277 2.161.9 2.618 1.718.471.859.485 2.258.014 3.228-.665 1.358-1.884 1.884-4.682 1.995l-1.842.083v-7.245h1.468c.831 0 1.87.097 2.424.222zM38.788 16.623v10.805h11.636v-2.632h-8.713l-.083-7.896h8.658v-2.632h-8.658V8.519l8.824-.139V5.886l-5.832-.042-5.832-.028v10.805zM72.353 5.597c-1.815.443-3.352 1.607-4.087 3.103-.429.859-.457 1.025-.457 2.313 0 1.122.055 1.51.305 2.036.651 1.413 2.203 2.618 4.821 3.713 2.784 1.177 3.574 1.69 4.197 2.743.319.554.374.803.374 1.69-.014 2.507-1.718 4.142-4.114 3.99-2.009-.139-3.449-1.427-3.671-3.311-.042-.374-.125-.679-.166-.679-.194 0-2.715.568-2.771.637-.028.028.014.402.111.817.429 1.898 1.926 3.81 3.629 4.613 3.394 1.621 7.536.249 9.184-3.02 1.247-2.507.887-5.389-.914-7.287-.928-.984-2.064-1.649-4.461-2.618-3.034-1.219-3.768-1.939-3.657-3.546.069-1.039.568-1.69 1.704-2.272.693-.346.984-.402 1.801-.402.817.014 1.122.083 1.732.416.416.222.914.651 1.136.956s.443.554.499.554c.069 0 1.898-1.039 2.216-1.261.111-.069-.817-1.274-1.33-1.745-1.593-1.441-3.865-1.967-6.081-1.441z"/></symbol><symbol id="icon-alpecin" viewBox="0 0 54 32"><path fill="#fff" style="fill:var(--color2,#fff)" d="M53.678 6.451v18.677H39.417c-2.774 3.946-7.315 6.536-12.454 6.536-5.098 0-9.614-2.571-12.39-6.494l-.268-.064H.168V6.452h14.736C17.698 2.773 22.053.388 26.963.388c4.931 0 9.329 2.363 12.123 6.064.205.019 14.592 0 14.592 0z"/><path fill="none" stroke="#d9dadb" style="stroke:var(--color3,#d9dadb)" stroke-miterlimit="10.433" stroke-width="4.896" d="M53.678 6.451v18.677H39.417c-2.774 3.946-7.315 6.536-12.454 6.536-5.098 0-9.614-2.571-12.39-6.494l-.268-.064H.168V6.452h14.736C17.698 2.773 22.053.388 26.963.388c4.931 0 9.329 2.363 12.123 6.064.205.019 14.592 0 14.592 0zm0 0"/><path fill="#cb2b31" style="fill:var(--color4,#cb2b31)" d="M38.76 23.894c-2.508 3.928-6.843 6.514-11.773 6.514-4.954 0-9.29-2.586-11.797-6.531H1.361V7.722h14.113c2.549-3.679 6.763-6.101 11.512-6.101 4.744 0 8.934 2.405 11.483 6.101-.018-.018 14.014 0 14.014 0v16.155s-13.765 0-13.725.017z"/><path fill="#fff" style="fill:var(--color2,#fff)" d="M37.731 12.453s.04 2.055 0 2.031a1.23 1.23 0 0 0-.821-.326c-.885 0-1.748.699-1.788 2.277-.023 1.503.903 2.304 1.788 2.304.309 0 .576-.121.821-.331v2.059c-.512.245-1.169.351-1.869.351-1.728 0-3.142-1.956-3.142-4.359 0-2.427 1.414-4.355 3.142-4.378.803-.023 1.478.146 1.869.373zM15.766 20.769V9.921h2.339v10.848h-2.339zM41.554 20.769v-8.403h2.341v1.111c.64-.902 1.174-1.251 1.914-1.251 1.315 0 2.032 1.129 2.032 2.997v5.547h-2.339v-4.598c0-.843-.209-1.216-.681-1.216-.367 0-.676.291-.925.908v4.907h-2.341zM38.329 20.769v-8.403h2.341v8.403h-2.341zM38.243 10.661c0-.699.559-1.275 1.256-1.275.699 0 1.252.576 1.252 1.275 0 .722-.554 1.297-1.252 1.297-.697 0-1.256-.576-1.256-1.297zM32.202 18.186v2.154c-.821.371-1.479.576-2.607.576-2.056 0-3.557-1.909-3.557-4.376 0-2.469 1.501-4.356 3.248-4.314 2.013.059 3.246 2.054 2.979 4.971h-3.882c0 .861.717 1.686 1.622 1.686.636 0 1.52-.023 2.196-.698zm-2.054-2.9v-.309c0-.512-.389-.925-.861-.925-.454 0-.821.413-.821.925v.309h1.682zM5.675 20.769 9.354 9.921h2.484l3.679 10.848h-2.672l-.739-2.584H9.085l-.717 2.584zm4.109-4.766h1.768l-.883-3.248zM21.254 14.814v3.534c.349.245.611.349.88.349.739 0 1.234-.902 1.234-2.218 0-1.275-.494-2.141-1.234-2.141-.309 0-.531.126-.88.475zm0-2.448v.826c.594-.699 1.088-.966 1.746-.966 1.538 0 2.712 1.827 2.712 4.294 0 2.608-1.256 4.395-3.061 4.395-.494 0-.926-.099-1.397-.368v3.861h-2.346V12.366h2.346z"/></symbol></defs></svg>