<svg aria-hidden="true" style="position: absolute; width: 0; height: 0; overflow: hidden;" version="1.1" xmlns="http://www.w3.org/2000/svg" xmlns:xlink="http://www.w3.org/1999/xlink">
<defs>
<symbol id="icon-daylogo" viewBox="0 0 44 32">
<path d="M8.284 19.972v-4.339h2.053c0.354 0 0.665 0.005 0.933 0.016s0.483 0.026 0.645 0.046c0.216 0.027 0.414 0.063 0.593 0.108 0.18 0.046 0.343 0.102 0.487 0.167 0.151 0.068 0.288 0.157 0.409 0.268s0.228 0.241 0.321 0.394c0.095 0.154 0.166 0.335 0.213 0.542 0.046 0.205 0.069 0.434 0.069 0.688s-0.023 0.481-0.069 0.679c-0.047 0.203-0.119 0.377-0.216 0.521-0.094 0.142-0.206 0.268-0.337 0.378s-0.279 0.203-0.446 0.282h-0.001c-0.166 0.077-0.352 0.142-0.559 0.194-0.204 0.051-0.429 0.090-0.676 0.116-0.182 0.020-0.454 0.036-0.815 0.046-0.364 0.010-0.805 0.016-1.321 0.016h-1.283v-0.122zM6.797 21.206h3.841c0.447 0 0.838-0.011 1.174-0.033s0.618-0.055 0.847-0.1c0.307-0.060 0.592-0.143 0.855-0.249 0.261-0.105 0.5-0.234 0.716-0.385l0.001-0c0.218-0.151 0.409-0.318 0.573-0.502s0.302-0.384 0.415-0.602c0.112-0.217 0.196-0.459 0.252-0.728 0.056-0.27 0.085-0.567 0.085-0.891 0-0.284-0.027-0.546-0.080-0.789-0.053-0.241-0.132-0.462-0.237-0.663l-0.001-0c-0.129-0.248-0.286-0.473-0.47-0.674s-0.397-0.379-0.637-0.532h-0c-0.18-0.116-0.393-0.22-0.64-0.311-0.249-0.092-0.53-0.172-0.843-0.238-0.233-0.049-0.507-0.086-0.822-0.11s-0.673-0.037-1.071-0.037h-3.958v6.844zM10.638 21.45h-4.084v-7.331h4.202c0.403 0 0.766 0.013 1.090 0.038s0.609 0.064 0.854 0.115h0.001c0.326 0.069 0.619 0.152 0.877 0.247 0.262 0.097 0.49 0.209 0.686 0.335l-0 0c0.259 0.165 0.487 0.356 0.685 0.572s0.368 0.459 0.507 0.727c0.115 0.221 0.202 0.462 0.259 0.723s0.086 0.54 0.086 0.84c0 0.339-0.030 0.652-0.091 0.94-0.061 0.29-0.152 0.554-0.274 0.79s-0.272 0.453-0.45 0.653c-0.178 0.199-0.383 0.379-0.616 0.54-0.232 0.162-0.487 0.299-0.764 0.411s-0.578 0.199-0.9 0.262c-0.239 0.046-0.531 0.081-0.877 0.104s-0.742 0.034-1.189 0.034zM8.528 15.877v3.974h1.040c0.534 0 0.972-0.005 1.315-0.015 0.351-0.010 0.616-0.025 0.795-0.045h0.001c0.235-0.025 0.45-0.062 0.643-0.111s0.365-0.108 0.515-0.178c0.147-0.070 0.279-0.153 0.393-0.249s0.211-0.204 0.291-0.325l0.001-0.001c0.080-0.119 0.14-0.266 0.18-0.44 0.041-0.179 0.062-0.387 0.062-0.625s-0.021-0.45-0.062-0.635c-0.041-0.182-0.102-0.338-0.183-0.469l-0.001-0c-0.081-0.132-0.173-0.246-0.277-0.34s-0.218-0.169-0.345-0.226h-0c-0.131-0.059-0.28-0.11-0.447-0.153-0.169-0.043-0.356-0.077-0.562-0.103-0.16-0.020-0.368-0.035-0.624-0.045-0.252-0.010-0.559-0.015-0.924-0.015h-1.809z"></path>
<path d="M6.675 5.472h3.963c0.894 0 1.575 0.043 2.044 0.132 0.629 0.119 1.17 0.331 1.618 0.636 0.451 0.304 0.792 0.677 1.027 1.119 0.233 0.44 0.351 0.985 0.351 1.631 0 0.569-0.11 1.058-0.331 1.469-0.268 0.503-0.651 0.91-1.15 1.22-0.376 0.236-0.884 0.419-1.523 0.551-0.478 0.098-1.117 0.146-1.919 0.146h-4.080v-6.905zM8.406 6.793v4.109h1.931c0.721 0 1.242-0.020 1.563-0.059 0.422-0.051 0.769-0.137 1.045-0.259 0.278-0.121 0.503-0.321 0.677-0.598 0.177-0.277 0.263-0.657 0.263-1.137s-0.087-0.847-0.263-1.104c-0.174-0.257-0.419-0.457-0.733-0.601-0.314-0.143-0.712-0.241-1.197-0.292-0.359-0.039-1.069-0.059-2.122-0.059h-1.162z"></path>
<path d="M26.308 12.377h-1.991l-0.88-1.572h-4.546l-0.846 1.572h-1.951l3.955-6.905h2.179l4.080 6.905zM22.768 9.638l-1.646-2.924-1.651 2.924h3.297z"></path>
<path d="M26.098 14.363h-1.709l-0.88 1.613h-4.691l-0.846-1.613h-1.671l3.819 6.844h2.038l3.94-6.844zM24.317 14.119h2.201c-1.407 2.444-2.814 4.887-4.221 7.331h-2.32l-4.091-7.331h2.231l0.846 1.613h4.401l0.88-1.613h0.072zM22.875 17.11l-1.752 3.195-1.858-3.376h3.709l-0.099 0.18zM21.122 19.8l1.44-2.627h-2.886l1.445 2.627z"></path>
<path d="M28.774 12.377v-2.492l-3.542-4.413h2.142l2.37 2.987 2.311-2.987h2.1l-3.542 4.423v2.482z"></path>
<path d="M28.896 14.363v2.477l-3.415 4.367h1.834l2.431-3.145 2.37 3.145h1.791l-3.415-4.377v-2.467h-1.596zM28.652 16.757v-2.638h2.083v2.628l3.67 4.703h-2.41l-2.251-2.988-2.31 2.988h-2.451l3.67-4.693z"></path>
<path d="M33.174 10.14h1.32c0.262 0 0.456 0.008 0.585 0.023s0.244 0.048 0.345 0.096c0.101 0.049 0.186 0.113 0.254 0.194s0.101 0.172 0.101 0.272c0 0.108-0.041 0.209-0.124 0.299s-0.196 0.159-0.338 0.204c0.201 0.042 0.354 0.112 0.463 0.212s0.161 0.217 0.161 0.352c0 0.106-0.035 0.209-0.105 0.309s-0.165 0.18-0.287 0.241c-0.121 0.060-0.27 0.096-0.447 0.111-0.111 0.008-0.379 0.014-0.804 0.016h-1.124v-2.328zM33.842 10.527v0.537h0.436c0.259 0 0.42-0.003 0.483-0.008 0.114-0.009 0.204-0.037 0.269-0.083s0.098-0.106 0.098-0.181c0-0.072-0.028-0.13-0.084-0.175s-0.14-0.072-0.25-0.081c-0.066-0.005-0.256-0.008-0.569-0.008h-0.383zM33.842 11.451v0.624h0.618c0.24 0 0.393-0.005 0.457-0.014 0.099-0.013 0.18-0.044 0.242-0.093s0.094-0.115 0.094-0.198c0-0.070-0.024-0.13-0.072-0.178s-0.118-0.085-0.208-0.107c-0.091-0.022-0.288-0.034-0.592-0.034h-0.539zM37.075 12.469v-0.819l-1.21-1.51h0.781l0.781 1.083 0.76-1.083h0.767l-1.21 1.513v0.815h-0.668z"></path>
<path d="M6.618 24.241v-1.17h0.185v0.482h0.721v-0.482h0.185v1.17h-0.185v-0.551h-0.721v0.551h-0.185zM9.17 24.241l0.535-1.17h0.203l0.568 1.17h-0.21l-0.162-0.354h-0.588l-0.151 0.354h-0.196zM9.571 23.761h0.476l-0.146-0.324c-0.044-0.099-0.077-0.18-0.1-0.244-0.019 0.076-0.045 0.151-0.077 0.225l-0.153 0.343zM11.959 24.241v-1.17h0.185v1.17h-0.185zM13.778 24.241v-1.17h0.619c0.124 0 0.219 0.011 0.284 0.032s0.116 0.058 0.155 0.111c0.039 0.053 0.058 0.112 0.058 0.176 0 0.083-0.032 0.153-0.096 0.21s-0.163 0.093-0.297 0.108c0.049 0.020 0.086 0.039 0.111 0.058 0.054 0.041 0.105 0.093 0.153 0.156l0.241 0.319h-0.231l-0.185-0.243c-0.054-0.070-0.098-0.124-0.133-0.161s-0.066-0.063-0.094-0.078c-0.027-0.015-0.056-0.025-0.084-0.031-0.021-0.004-0.055-0.005-0.103-0.005h-0.214v0.52h-0.185zM13.963 23.588h0.396c0.084 0 0.15-0.007 0.198-0.022s0.084-0.038 0.108-0.070c0.025-0.032 0.037-0.067 0.037-0.105 0-0.055-0.024-0.101-0.071-0.137s-0.123-0.053-0.226-0.053h-0.441v0.387zM18.663 24.241v-1.17h0.942v0.137h-0.756v0.364h0.655v0.137h-0.655v0.531h-0.185zM21.18 24.241v-1.17h0.185v1.17h-0.185zM23.35 24.241v-1.032h-0.46v-0.137h1.105v0.137h-0.46v1.032h-0.185zM25.488 24.241v-1.17h0.19l0.732 0.918v-0.918h0.177v1.17h-0.19l-0.732-0.918v0.918h-0.177zM28.207 24.241v-1.17h1.008v0.137h-0.823v0.359h0.77v0.137h-0.77v0.399h0.856v0.137h-1.041zM30.748 23.866l0.174-0.013c0.008 0.059 0.027 0.107 0.058 0.145s0.077 0.068 0.14 0.091c0.063 0.023 0.135 0.035 0.214 0.035 0.071 0 0.133-0.009 0.186-0.026s0.094-0.042 0.12-0.073c0.026-0.031 0.040-0.064 0.040-0.1s-0.013-0.068-0.038-0.096c-0.025-0.027-0.067-0.050-0.126-0.069-0.037-0.012-0.12-0.031-0.249-0.057s-0.218-0.050-0.269-0.073c-0.067-0.029-0.116-0.066-0.148-0.109s-0.049-0.092-0.049-0.146c0-0.059 0.020-0.115 0.060-0.166s0.098-0.090 0.175-0.117c0.077-0.027 0.162-0.040 0.256-0.040 0.103 0 0.195 0.014 0.274 0.042s0.14 0.069 0.182 0.123c0.043 0.054 0.065 0.116 0.069 0.184l-0.177 0.011c-0.009-0.074-0.042-0.13-0.096-0.167s-0.136-0.057-0.243-0.057c-0.112 0-0.193 0.017-0.244 0.051s-0.077 0.076-0.077 0.124c0 0.042 0.018 0.077 0.054 0.104s0.128 0.055 0.278 0.083c0.15 0.029 0.253 0.053 0.309 0.075 0.081 0.031 0.141 0.071 0.18 0.119s0.058 0.103 0.058 0.166c0 0.062-0.021 0.121-0.064 0.176s-0.103 0.098-0.183 0.128-0.169 0.046-0.269 0.046c-0.126 0-0.232-0.016-0.317-0.046s-0.152-0.077-0.2-0.139c-0.049-0.062-0.074-0.132-0.077-0.21zM33.352 23.866l0.173-0.013c0.008 0.059 0.027 0.107 0.057 0.145s0.077 0.068 0.14 0.091c0.063 0.023 0.135 0.035 0.214 0.035 0.071 0 0.133-0.009 0.187-0.026s0.094-0.042 0.12-0.073c0.026-0.031 0.040-0.064 0.040-0.1s-0.013-0.068-0.038-0.096c-0.025-0.027-0.067-0.050-0.126-0.069-0.037-0.012-0.12-0.031-0.249-0.057s-0.218-0.050-0.269-0.073c-0.067-0.029-0.116-0.066-0.148-0.109s-0.049-0.092-0.049-0.146c0-0.059 0.020-0.115 0.060-0.166s0.098-0.090 0.175-0.117c0.077-0.027 0.162-0.040 0.256-0.040 0.103 0 0.195 0.014 0.274 0.042s0.14 0.069 0.182 0.123c0.043 0.054 0.065 0.116 0.069 0.184l-0.177 0.011c-0.009-0.074-0.042-0.13-0.096-0.167s-0.136-0.057-0.243-0.057c-0.112 0-0.193 0.017-0.244 0.051s-0.077 0.076-0.077 0.124c0 0.042 0.018 0.077 0.054 0.104s0.128 0.055 0.278 0.083c0.15 0.029 0.253 0.053 0.309 0.075 0.081 0.031 0.141 0.071 0.18 0.119s0.058 0.103 0.058 0.166c0 0.062-0.021 0.121-0.064 0.176s-0.103 0.098-0.183 0.128c-0.080 0.030-0.169 0.046-0.269 0.046-0.126 0-0.232-0.016-0.317-0.046s-0.152-0.077-0.2-0.139c-0.049-0.062-0.074-0.132-0.077-0.21z"></path>
</symbol>
<symbol id="icon-crewblack" viewBox="0 0 58 32">
<path d="M19.904 0.749c0 0.032-0.058 0.41-0.128 0.851s-0.128 0.864-0.128 0.941c0 0.224 0.186 0.186 0.237-0.045 0.038-0.211 0.275-0.282 0.275-0.083 0 0.173 0.102 0.301 0.205 0.256 0.083-0.026 0.077-0.134-0.019-0.794-0.192-1.222-0.179-1.171-0.314-1.171-0.070 0-0.128 0.019-0.128 0.045z"></path>
<path d="M22.208 1.69c0 0.954 0.006 0.998 0.128 0.998 0.115 0 0.128-0.045 0.134-0.499 0.006-0.435 0.013-0.467 0.070-0.288 0.083 0.256 0.224 0.275 0.288 0.032 0.038-0.134 0.058-0.077 0.083 0.275 0.026 0.358 0.051 0.448 0.147 0.467 0.102 0.019 0.109-0.058 0.109-0.973 0-0.563-0.026-0.998-0.058-0.998s-0.122 0.192-0.198 0.429c-0.083 0.243-0.166 0.454-0.186 0.486-0.026 0.026-0.122-0.16-0.211-0.416-0.256-0.736-0.307-0.653-0.307 0.486z"></path>
<path d="M25.011 1.325c-0.006 0.346-0.006 0.781 0.013 0.979l0.032 0.352h0.32c0.243 0 0.32-0.026 0.32-0.096 0-0.058-0.070-0.102-0.173-0.115-0.154-0.019-0.179-0.051-0.179-0.211 0-0.141 0.032-0.186 0.128-0.186 0.083 0 0.128-0.045 0.128-0.128s-0.045-0.128-0.128-0.128c-0.115 0-0.128-0.045-0.128-0.416 0-0.403 0.006-0.416 0.16-0.416 0.115 0 0.16-0.032 0.16-0.128 0-0.109-0.045-0.128-0.314-0.128h-0.314l-0.026 0.621z"></path>
<path d="M27.456 1.696c0 0.947 0.006 0.992 0.128 0.992 0.109 0 0.128-0.045 0.128-0.307 0.006-0.275 0.013-0.294 0.096-0.179 0.051 0.070 0.096 0.192 0.096 0.275 0 0.173 0.166 0.262 0.275 0.154 0.051-0.051 0.032-0.154-0.070-0.403-0.128-0.301-0.128-0.339-0.038-0.442 0.134-0.147 0.186-0.531 0.096-0.755-0.083-0.198-0.301-0.326-0.55-0.326h-0.16v0.992z"></path>
<path d="M34.81 0.717c-0.058 0.275-0.282 1.92-0.262 1.939 0.090 0.083 0.192 0.013 0.23-0.16 0.045-0.25 0.294-0.282 0.294-0.038 0 0.173 0.090 0.262 0.218 0.211 0.064-0.026 0.045-0.23-0.064-0.947-0.083-0.506-0.147-0.941-0.154-0.973 0-0.038-0.25-0.070-0.262-0.032z"></path>
<path d="M37.12 1.69c0 0.954 0.006 0.998 0.128 0.998 0.115 0 0.128-0.045 0.128-0.493 0-0.269 0.019-0.467 0.045-0.442 0.026 0.019 0.115 0.23 0.205 0.461 0.090 0.237 0.198 0.422 0.23 0.416 0.038-0.006 0.070-0.384 0.083-0.966 0.013-0.928 0.013-0.96-0.115-0.96-0.115 0-0.128 0.038-0.128 0.48 0 0.262-0.019 0.48-0.051 0.48-0.026 0-0.122-0.205-0.211-0.461-0.262-0.73-0.314-0.653-0.314 0.486z"></path>
<path d="M24.077 5.229c2.598 0.013 6.848 0.013 9.44 0 2.598-0.006 0.474-0.013-4.717-0.013s-7.315 0.006-4.723 0.013z"></path>
<path d="M16.813 8.006c-1.466 0.346-2.31 1.914-2.669 4.954-0.096 0.8-0.128 3.482-0.058 4.448 0.23 3.040 0.992 4.883 2.278 5.517 0.352 0.173 0.512 0.211 0.973 0.23 0.301 0.013 0.653 0 0.774-0.032 0.224-0.058 0.224-0.064 0.243-0.454l0.019-0.397h-0.474c-0.378 0-0.531-0.032-0.8-0.166-0.806-0.397-1.357-1.562-1.645-3.45-0.16-1.075-0.237-3.078-0.16-4.461 0.198-3.738 1.069-5.491 2.656-5.344l0.416 0.038v-0.813l-0.282-0.070c-0.333-0.083-0.922-0.083-1.274 0z"></path>
<path d="M21.184 15.584v7.52h1.216l0.013-2.669 0.019-2.675 0.346 0.538c0.506 0.787 1.005 1.869 1.184 2.579 0.090 0.339 0.198 0.979 0.243 1.427l0.077 0.806 1.094-0.038-0.019-0.448c-0.064-1.523-0.685-3.354-1.574-4.634-0.179-0.256-0.352-0.506-0.384-0.55-0.045-0.058 0.077-0.218 0.422-0.55 0.736-0.723 1.235-1.587 1.536-2.682 0.128-0.486 0.147-0.678 0.147-1.824 0-1.139-0.019-1.338-0.147-1.779-0.378-1.306-1.062-2.074-2.15-2.406-0.339-0.102-0.608-0.134-1.229-0.134h-0.794v7.52zM23.155 9.101c0.8 0.371 1.21 1.651 1.146 3.571-0.038 1.197-0.211 1.958-0.627 2.765-0.269 0.512-0.819 1.158-1.126 1.325l-0.147 0.077v-7.949l0.243 0.045c0.128 0.019 0.358 0.096 0.512 0.166z"></path>
<path d="M28.608 12.506v4.448l-0.237 0.019-0.23 0.019-0.026 0.794 0.461 0.038 0.064 5.248h3.776v-0.832l-1.293-0.019-1.299-0.013v-4.416h1.984v-0.832h-1.984v-8.064h2.624v-0.832h-3.84v4.442z"></path>
<path d="M34.4 8.269c0.019 0.115 0.109 0.698 0.198 1.299 0.083 0.595 0.358 2.368 0.602 3.936s0.576 3.699 0.73 4.736c0.16 1.037 0.39 2.541 0.518 3.341 0.122 0.806 0.224 1.472 0.224 1.491s0.141 0.032 0.314 0.032c0.314 0 0.314 0 0.352-0.243 0.141-0.89 0.858-5.562 1.101-7.149 0.314-2.074 0.352-2.291 0.39-2.144 0.006 0.051 0.32 2.080 0.691 4.512 0.371 2.426 0.691 4.544 0.717 4.704l0.051 0.288 0.301 0.019c0.269 0.019 0.307 0.006 0.339-0.128 0.013-0.083 0.333-2.118 0.704-4.531 0.365-2.413 0.87-5.69 1.12-7.277 0.243-1.594 0.448-2.944 0.448-2.995 0-0.077-0.102-0.096-0.512-0.096-0.282 0-0.512 0.013-0.512 0.026 0 0.026-1.389 9.472-1.446 9.818-0.026 0.154-0.051 0.262-0.064 0.25s-0.192-1.197-0.403-2.643c-0.403-2.758-0.992-6.72-1.069-7.181-0.045-0.269-0.045-0.269-0.314-0.269-0.25 0-0.282 0.019-0.314 0.173-0.038 0.205-1.19 7.962-1.357 9.158-0.064 0.429-0.122 0.768-0.134 0.755-0.038-0.032-1.491-9.818-1.491-10.029 0-0.032-0.269-0.058-0.608-0.058h-0.614l0.038 0.205z"></path>
<path d="M42.899 22.336c-0.352 0.141-0.429 0.653-0.128 0.864 0.397 0.282 0.89-0.166 0.71-0.64-0.032-0.083-0.352-0.301-0.422-0.282-0.013 0-0.083 0.026-0.16 0.058z"></path>
<path d="M19.392 25.984c0 0.045 3.181 0.064 9.408 0.064s9.408-0.019 9.408-0.064c0-0.045-3.181-0.064-9.408-0.064s-9.408 0.019-9.408 0.064z"></path>
<path d="M14.355 28.672c-0.666 0.339-0.71 1.53-0.070 1.92 0.294 0.179 0.896 0.179 1.19 0 0.442-0.269 0.608-1.158 0.294-1.581-0.339-0.454-0.915-0.589-1.414-0.339zM15.398 29.018c0.198 0.198 0.218 0.25 0.218 0.589 0 0.589-0.269 0.922-0.742 0.922-0.243 0-0.525-0.173-0.634-0.384-0.205-0.397-0.064-1.12 0.243-1.267 0.077-0.038 0.269-0.070 0.422-0.070 0.23-0.006 0.307 0.026 0.493 0.211z"></path>
<path d="M24.134 28.71c-0.16 0.134-0.198 0.218-0.198 0.41 0 0.307 0.179 0.467 0.659 0.576 0.442 0.102 0.621 0.224 0.621 0.416 0 0.403-0.614 0.576-0.928 0.256-0.090-0.083-0.16-0.198-0.16-0.256 0-0.064-0.058-0.096-0.166-0.096-0.147 0-0.16 0.019-0.128 0.173 0.026 0.102 0.128 0.256 0.237 0.352 0.16 0.154 0.243 0.179 0.576 0.179 0.576 0 0.883-0.218 0.89-0.614 0-0.326-0.198-0.506-0.685-0.634-0.243-0.064-0.486-0.166-0.557-0.224-0.288-0.275 0.192-0.608 0.621-0.422 0.122 0.051 0.243 0.154 0.269 0.224 0.051 0.166 0.288 0.186 0.288 0.019-0.006-0.134-0.179-0.358-0.365-0.454-0.077-0.038-0.282-0.070-0.461-0.070-0.25 0-0.358 0.038-0.512 0.166z"></path>
<path d="M17.446 28.749c-0.058 0.077-0.102 0.237-0.102 0.352 0 0.147-0.032 0.211-0.096 0.211-0.051 0-0.096 0.045-0.096 0.096s0.045 0.096 0.096 0.096c0.070 0 0.096 0.122 0.109 0.589 0.019 0.506 0.038 0.595 0.134 0.614s0.109-0.038 0.109-0.589c0-0.57 0.006-0.614 0.128-0.614 0.166 0 0.166-0.166-0.006-0.211-0.192-0.051-0.154-0.454 0.058-0.48 0.218-0.032 0.179-0.205-0.045-0.205-0.128 0-0.224 0.051-0.288 0.141z"></path>
<path d="M38.144 29.664c0 1.011 0.006 1.056 0.128 1.056s0.128-0.045 0.134-0.851v-0.845l0.314 0.832c0.397 1.075 0.442 1.082 0.813 0.128 0.416-1.069 0.403-1.062 0.384-0.128-0.013 0.794-0.006 0.832 0.115 0.832s0.128-0.051 0.147-1.043l0.013-1.037h-0.192c-0.218 0-0.179-0.070-0.608 1.050l-0.243 0.64-0.218-0.576c-0.115-0.314-0.256-0.691-0.314-0.845-0.090-0.23-0.128-0.269-0.288-0.269h-0.186v1.056z"></path>
<path d="M18.95 29.408c-0.365 0.314-0.307 1.056 0.096 1.242 0.282 0.128 0.653 0.090 0.826-0.090 0.179-0.173 0.205-0.32 0.064-0.378-0.064-0.019-0.128 0.032-0.192 0.154-0.083 0.154-0.141 0.192-0.314 0.192-0.294 0-0.454-0.192-0.454-0.544 0-0.506 0.448-0.736 0.73-0.378 0.102 0.128 0.154 0.147 0.237 0.102 0.102-0.058 0.096-0.083-0.083-0.262-0.262-0.262-0.621-0.275-0.909-0.038z"></path>
<path d="M21.088 29.408c-0.090 0.083-0.16 0.186-0.16 0.224 0 0.115 0.224 0.070 0.307-0.064 0.122-0.198 0.448-0.173 0.525 0.038 0.090 0.224 0.051 0.262-0.32 0.294-0.365 0.038-0.576 0.186-0.576 0.416 0 0.339 0.493 0.531 0.813 0.307 0.115-0.083 0.141-0.083 0.211 0 0.115 0.141 0.32 0.122 0.32-0.026 0-0.064-0.045-0.134-0.096-0.16-0.070-0.026-0.096-0.141-0.096-0.486 0-0.365-0.026-0.474-0.128-0.576-0.186-0.186-0.602-0.173-0.8 0.032z"></path>
<path d="M27.347 29.293c-0.064 0.026-0.083 0.294-0.083 1.050 0 0.941 0.006 1.018 0.115 1.018 0.102 0 0.115-0.045 0.090-0.397-0.026-0.365-0.019-0.39 0.090-0.339 0.070 0.032 0.243 0.064 0.39 0.083 0.237 0.019 0.301 0 0.467-0.166 0.16-0.16 0.192-0.25 0.192-0.493 0-0.333-0.077-0.525-0.282-0.685-0.166-0.141-0.486-0.147-0.653-0.019-0.141 0.102-0.243 0.128-0.186 0.038 0.045-0.077-0.038-0.128-0.141-0.090zM28.186 29.574c0.339 0.262 0.166 0.954-0.243 0.954-0.262 0-0.442-0.198-0.442-0.499 0-0.282 0.096-0.442 0.307-0.525 0.186-0.077 0.192-0.077 0.378 0.070z"></path>
<path d="M29.261 29.35c-0.077 0.051-0.141 0.064-0.141 0.032 0-0.038-0.058-0.070-0.128-0.070-0.122 0-0.128 0.045-0.128 1.024s0.006 1.024 0.128 1.024c0.115 0 0.128-0.045 0.128-0.384 0-0.365 0.006-0.384 0.122-0.32 0.25 0.128 0.582 0.077 0.781-0.122 0.16-0.166 0.186-0.237 0.186-0.55s-0.026-0.384-0.186-0.55c-0.218-0.211-0.531-0.25-0.762-0.083zM29.946 29.766c0.134 0.384-0.077 0.762-0.422 0.762-0.461 0-0.563-0.858-0.128-1.018 0.218-0.083 0.474 0.038 0.55 0.256z"></path>
<path d="M31.981 29.376c-0.23 0.186-0.326 0.506-0.237 0.826 0.141 0.525 0.704 0.691 1.101 0.326 0.179-0.16 0.198-0.198 0.115-0.256-0.070-0.045-0.128-0.026-0.211 0.096-0.224 0.301-0.749 0.154-0.749-0.211 0-0.134 0.032-0.141 0.518-0.141h0.525l-0.038-0.243c-0.077-0.474-0.646-0.691-1.024-0.397z"></path>
<path d="M36.026 29.427c-0.346 0.314-0.307 1.024 0.064 1.229 0.211 0.109 0.614 0.077 0.794-0.064 0.218-0.173 0.32-0.531 0.237-0.845-0.134-0.499-0.704-0.666-1.094-0.32zM36.762 29.581c0.058 0.077 0.102 0.262 0.102 0.403 0 0.333-0.147 0.544-0.371 0.544-0.211 0-0.288-0.051-0.39-0.237-0.186-0.358 0.032-0.851 0.378-0.851 0.115 0 0.218 0.051 0.282 0.141z"></path>
<path d="M40.858 29.312c-0.23 0.090-0.346 0.32-0.346 0.691 0 0.294 0.026 0.371 0.186 0.531 0.256 0.25 0.698 0.262 0.934 0.026 0.179-0.179 0.198-0.256 0.070-0.307-0.058-0.019-0.134 0.026-0.192 0.122-0.205 0.307-0.742 0.134-0.742-0.243 0-0.102 0.064-0.115 0.512-0.115h0.512v-0.198c0-0.275-0.301-0.57-0.589-0.563-0.115 0-0.275 0.026-0.346 0.058z"></path>
<path d="M42.509 29.35c-0.077 0.051-0.141 0.064-0.141 0.032 0-0.038-0.058-0.070-0.128-0.070-0.128 0-0.134 0.032-0.115 0.685 0.019 0.595 0.032 0.691 0.134 0.71 0.096 0.019 0.109-0.038 0.109-0.48 0-0.544 0.019-0.602 0.243-0.717 0.122-0.064 0.179-0.064 0.307 0.026 0.141 0.090 0.154 0.134 0.154 0.64 0 0.442 0.019 0.544 0.096 0.544s0.096-0.109 0.096-0.608c0-0.525-0.019-0.627-0.128-0.736-0.154-0.154-0.429-0.166-0.627-0.026z"></path>
<path d="M25.754 29.408c-0.026 0.051-0.026 0.307-0.013 0.57 0.013 0.352 0.051 0.512 0.141 0.608 0.147 0.16 0.461 0.179 0.666 0.032 0.128-0.090 0.141-0.090 0.141 0.006 0 0.064 0.045 0.096 0.115 0.083 0.096-0.019 0.109-0.115 0.128-0.71 0.019-0.653 0.013-0.685-0.115-0.685-0.115 0-0.128 0.038-0.128 0.474 0 0.499-0.058 0.627-0.326 0.71-0.083 0.026-0.173 0-0.256-0.070-0.102-0.090-0.122-0.198-0.122-0.614 0-0.403-0.019-0.499-0.096-0.499-0.058 0-0.115 0.045-0.134 0.096z"></path>
</symbol>
<symbol id="icon-crew-1" viewBox="0 0 32 32">
<path d="M4.981 4.772c-0.082 0.555-0.16 1.035-0.171 1.067-0.011 0.053 0.007 0.064 0.11 0.064 0.121 0 0.124 0 0.146-0.196l0.025-0.196h0.306l0.032 0.185c0.028 0.178 0.036 0.188 0.146 0.199 0.146 0.014 0.146 0.043-0.007-0.939-0.068-0.427-0.135-0.871-0.146-0.985l-0.025-0.203h-0.263l-0.153 1.003z"></path>
<path d="M7.964 4.836v1.067h0.249v-0.54c0-0.316 0.014-0.526 0.032-0.508 0.018 0.021 0.068 0.135 0.11 0.256 0.046 0.124 0.1 0.224 0.128 0.224 0.025 0 0.078-0.103 0.121-0.231s0.092-0.238 0.11-0.249c0.018-0.014 0.032 0.196 0.032 0.512v0.537h0.249v-1.067c0-1.362-0.004-1.365-0.373-0.324-0.117 0.338-0.149 0.395-0.174 0.324-0.011-0.028-0.089-0.252-0.178-0.498-0.206-0.583-0.199-0.569-0.256-0.569-0.043 0-0.050 0.178-0.050 1.067z"></path>
<path d="M11.378 4.373c0 0.512-0.007 0.604-0.053 0.604-0.036 0-0.053 0.036-0.053 0.103 0 0.057 0.021 0.11 0.053 0.124 0.043 0.014 0.053 0.089 0.053 0.359v0.338h0.676v-0.107c0-0.107-0.004-0.107-0.192-0.107-0.213 0-0.235-0.021-0.235-0.249 0-0.213 0.025-0.249 0.181-0.249 0.114 0 0.139-0.011 0.139-0.071 0-0.039 0.004-0.082 0.011-0.1 0.004-0.014-0.064-0.032-0.153-0.043l-0.16-0.018-0.011-0.409c-0.014-0.569-0.014-0.569 0.224-0.569 0.192 0 0.196 0 0.196-0.107v-0.107h-0.676v0.604z"></path>
<path d="M14.318 3.794c-0.014 0.011-0.025 0.491-0.025 1.067v1.042h0.284v-0.32c0-0.178 0.014-0.32 0.028-0.32 0.050 0 0.199 0.327 0.22 0.48 0.018 0.135 0.025 0.142 0.153 0.153l0.135 0.011-0.021-0.171c-0.014-0.092-0.078-0.277-0.142-0.409-0.103-0.213-0.11-0.245-0.060-0.284 0.11-0.092 0.22-0.395 0.22-0.608 0-0.345-0.132-0.551-0.409-0.626-0.16-0.043-0.348-0.050-0.384-0.014zM14.812 4.178c0.085 0.21 0.050 0.487-0.089 0.683-0.121 0.171-0.146 0.103-0.146-0.373 0-0.252 0.011-0.469 0.021-0.48 0.046-0.043 0.164 0.053 0.213 0.171z"></path>
<path d="M17.422 4.832v1.070h0.249l0.004-0.996c0.004-0.548 0.007-1.024 0.011-1.060 0.004-0.046-0.028-0.064-0.128-0.071l-0.135-0.011v1.067z"></path>
<path d="M20.348 3.826c-0.082 0.039-0.146 0.121-0.213 0.26-0.096 0.192-0.1 0.22-0.1 0.75 0 0.523 0.004 0.562 0.096 0.754 0.103 0.224 0.228 0.313 0.43 0.313 0.11 0 0.124-0.011 0.139-0.107s0.007-0.107-0.078-0.107c-0.22 0-0.331-0.284-0.334-0.853 0-0.544 0.117-0.853 0.32-0.853 0.071 0 0.085-0.018 0.085-0.107 0-0.096-0.011-0.107-0.114-0.107-0.064 0-0.171 0.028-0.231 0.057z"></path>
<path d="M23.275 3.801c-0.014 0.018-0.060 0.295-0.11 0.615-0.114 0.764-0.192 1.269-0.217 1.387-0.018 0.092-0.011 0.1 0.1 0.1 0.121 0 0.124-0.004 0.156-0.188l0.032-0.185 0.149-0.011c0.16-0.011 0.156-0.014 0.199 0.313 0.004 0.032 0.053 0.057 0.124 0.064 0.146 0.014 0.149 0.057-0.039-1.148l-0.149-0.96-0.114-0.011c-0.060-0.007-0.121 0.004-0.132 0.025z"></path>
<path d="M26.098 4.832v1.070h0.249v-0.569c0-0.313 0.014-0.569 0.028-0.569 0.018 0 0.132 0.256 0.252 0.572 0.171 0.437 0.235 0.565 0.281 0.558 0.057-0.011 0.060-0.203 0.043-2.084 0-0.032-0.039-0.043-0.114-0.036l-0.117 0.011-0.018 0.587c-0.021 0.676 0 0.679-0.299-0.089-0.295-0.768-0.306-0.747-0.306 0.548z"></path>
<path d="M10.318 8.167c3.044 0.007 8.036 0.007 11.093 0 3.058-0.004 0.565-0.007-5.536-0.007s-8.601 0.004-5.557 0.007z"></path>
<path d="M6.884 10.436c-1.22 0.309-1.874 1.767-2.048 4.551-0.021 0.331-0.036 0.892-0.032 1.244 0.032 3.14 0.626 4.974 1.792 5.529 0.299 0.142 0.597 0.192 0.988 0.167 0.512-0.036 0.487-0.018 0.487-0.366v-0.295l-0.242 0.021c-1.070 0.089-1.739-0.949-2.020-3.125-0.075-0.587-0.107-2.748-0.053-3.463 0.107-1.394 0.352-2.372 0.747-2.972 0.309-0.476 0.644-0.683 1.106-0.686 0.146 0 0.309 0.011 0.366 0.028l0.096 0.025v-0.302c0-0.299-0.004-0.306-0.096-0.345-0.16-0.064-0.85-0.071-1.092-0.011z"></path>
<path d="M10.24 16.156v5.71h0.444c0.398 0 0.444-0.007 0.444-0.064 0.004-0.032 0.007-0.928 0.011-1.988 0.004-1.191 0.021-1.934 0.043-1.938 0.11-0.032 0.875 1.358 1.063 1.927 0.142 0.441 0.267 1.056 0.309 1.572l0.043 0.491h0.818l-0.021-0.366c-0.082-1.34-0.647-2.848-1.44-3.826l-0.124-0.153 0.306-0.284c0.711-0.654 1.152-1.49 1.33-2.51 0.078-0.466 0.078-1.497 0-1.966-0.203-1.191-0.821-1.963-1.785-2.222-0.139-0.039-0.427-0.064-0.825-0.075l-0.615-0.021v5.714zM11.68 11.196c0.412 0.185 0.708 0.665 0.871 1.426 0.068 0.295 0.089 1.536 0.036 1.945-0.121 0.971-0.505 1.824-1.038 2.304-0.235 0.21-0.341 0.263-0.384 0.196-0.032-0.053-0.043-5.895-0.011-5.948 0.028-0.046 0.356 0.004 0.526 0.078z"></path>
<path d="M15.893 13.828v3.378l-0.373 0.021-0.021 0.619 0.377 0.021 0.011 1.998 0.007 2.002h2.844l0.004-0.267c0.004-0.146 0.007-0.288 0.011-0.313 0.004-0.032-0.22-0.046-0.974-0.060l-0.978-0.018v-3.342l0.757-0.011 0.757-0.007-0.011-0.313-0.011-0.309-0.757-0.011-0.754-0.007 0.007-3.051 0.011-3.047 0.96-0.011c0.672-0.007 0.964-0.021 0.981-0.050 0.014-0.021 0.021-0.096 0.014-0.167s-0.011-0.196-0.014-0.281l-0.004-0.149h-2.844v3.374z"></path>
<path d="M20.267 10.464c0 0.007 0.039 0.277 0.089 0.597s0.139 0.903 0.196 1.294c0.060 0.391 0.132 0.846 0.16 1.013s0.1 0.622 0.156 1.013c0.060 0.391 0.171 1.127 0.249 1.636 0.359 2.329 0.757 4.914 0.825 5.358l0.075 0.491h0.452l0.021-0.117c0.011-0.060 0.050-0.331 0.089-0.594 0.1-0.654 0.32-2.098 0.498-3.236 0.082-0.519 0.21-1.351 0.284-1.849s0.156-1.028 0.178-1.173c0.050-0.306 0.064-0.373 0.089-0.348 0.021 0.018 0.142 0.789 0.444 2.802 0.1 0.654 0.217 1.447 0.267 1.76 0.217 1.401 0.409 2.67 0.409 2.709 0 0.032 0.071 0.046 0.231 0.046h0.228l0.021-0.117c0.011-0.060 0.1-0.644 0.196-1.287 0.181-1.18 0.338-2.204 0.533-3.449 0.132-0.853 0.299-1.927 0.412-2.684 0.046-0.324 0.11-0.722 0.139-0.889s0.085-0.526 0.124-0.8c0.039-0.274 0.124-0.85 0.196-1.28 0.068-0.43 0.124-0.811 0.124-0.846 0-0.053-0.043-0.060-0.373-0.060-0.206 0-0.373 0.011-0.373 0.025 0 0.018-0.025 0.171-0.053 0.348-0.025 0.174-0.082 0.544-0.121 0.818s-0.16 1.099-0.27 1.831c-0.107 0.732-0.22 1.493-0.249 1.689-0.185 1.291-0.444 2.983-0.459 2.997-0.036 0.032-0.057-0.078-0.199-1.060-0.075-0.537-0.213-1.476-0.302-2.080-0.089-0.608-0.21-1.422-0.267-1.813s-0.135-0.91-0.171-1.156c-0.039-0.245-0.107-0.704-0.153-1.024l-0.082-0.576h-0.206c-0.114 0-0.206 0.007-0.206 0.018 0 0.021-0.299 2.037-0.391 2.631-0.039 0.252-0.117 0.789-0.178 1.191-0.057 0.402-0.167 1.17-0.249 1.707-0.22 1.49-0.32 2.176-0.32 2.19 0 0.007-0.014 0.014-0.036 0.014-0.018 0-0.036-0.039-0.036-0.085 0-0.078-0.384-2.724-0.672-4.644-0.060-0.38-0.185-1.216-0.277-1.856l-0.171-1.166h-0.434c-0.242 0-0.437 0.007-0.437 0.011z"></path>
<path d="M5.163 26.457c-0.544 0.27-0.462 1.163 0.121 1.333 0.352 0.103 0.693-0.043 0.836-0.359 0.124-0.274 0.060-0.708-0.132-0.878-0.203-0.178-0.569-0.22-0.825-0.096zM5.788 26.592c0.192 0.103 0.277 0.523 0.156 0.793-0.082 0.188-0.196 0.277-0.391 0.302-0.38 0.050-0.647-0.327-0.54-0.768 0.085-0.359 0.434-0.508 0.775-0.327z"></path>
<path d="M12.409 26.421c-0.213 0.085-0.299 0.292-0.199 0.487 0.060 0.117 0.21 0.188 0.526 0.256 0.316 0.064 0.402 0.238 0.21 0.43-0.082 0.078-0.139 0.103-0.245 0.103-0.171 0-0.37-0.124-0.398-0.249-0.014-0.064-0.046-0.089-0.107-0.089-0.075 0-0.089 0.014-0.078 0.089 0.025 0.228 0.235 0.366 0.558 0.366 0.252 0 0.42-0.075 0.498-0.224 0.142-0.274 0.007-0.491-0.363-0.583-0.348-0.085-0.437-0.128-0.459-0.217-0.028-0.121 0.039-0.22 0.181-0.267 0.206-0.068 0.412 0.018 0.484 0.203 0.018 0.046 0.057 0.082 0.085 0.082 0.16 0 0.050-0.281-0.146-0.373-0.128-0.060-0.412-0.068-0.548-0.014z"></path>
<path d="M6.652 26.485c-0.053 0.053-0.075 0.121-0.075 0.231 0 0.139-0.011 0.16-0.078 0.171-0.1 0.014-0.096 0.078 0.007 0.092 0.068 0.011 0.071 0.036 0.071 0.402 0 0.363 0.004 0.388 0.071 0.388s0.071-0.025 0.071-0.391v-0.391h0.089c0.057 0 0.089-0.021 0.089-0.053s-0.036-0.053-0.092-0.053c-0.085 0-0.089-0.007-0.078-0.171 0.011-0.153 0.018-0.167 0.11-0.178 0.124-0.014 0.11-0.092-0.021-0.107-0.057-0.007-0.121 0.018-0.164 0.060z"></path>
<path d="M7.292 26.492c-0.053 0.057-0.075 0.128-0.075 0.235 0 0.128-0.011 0.153-0.071 0.153-0.039 0-0.071 0.025-0.071 0.053s0.032 0.053 0.071 0.053c0.064 0 0.071 0.028 0.078 0.398 0.007 0.331 0.021 0.402 0.064 0.402s0.057-0.071 0.064-0.402c0.011-0.398 0.011-0.398 0.096-0.398 0.057 0 0.089-0.021 0.089-0.053s-0.032-0.053-0.089-0.053c-0.078 0-0.089-0.014-0.089-0.135 0-0.149 0.050-0.22 0.153-0.22 0.1 0 0.053-0.085-0.053-0.1-0.060-0.007-0.117 0.018-0.167 0.068z"></path>
<path d="M16.96 27.093c0 0.651 0.004 0.676 0.071 0.676s0.071-0.025 0.071-0.676c0-0.651-0.004-0.676-0.071-0.676s-0.071 0.025-0.071 0.676z"></path>
<path d="M23.040 27.1c0 0.665 0.004 0.69 0.071 0.693 0.068 0.007 0.071-0.018 0.071-0.551 0.004-0.373 0.014-0.54 0.036-0.501 0.018 0.032 0.114 0.274 0.213 0.533s0.196 0.491 0.217 0.512c0.064 0.060 0.146-0.085 0.331-0.58 0.096-0.26 0.188-0.469 0.21-0.469s0.028 0.188 0.021 0.523c-0.014 0.508-0.011 0.526 0.057 0.526s0.071-0.028 0.082-0.686l0.007-0.683h-0.235l-0.188 0.508c-0.103 0.281-0.203 0.533-0.217 0.562-0.036 0.057-0.014 0.1-0.267-0.572-0.174-0.473-0.181-0.48-0.295-0.491l-0.114-0.011v0.686z"></path>
<path d="M20.569 26.606c-0.007 0.021-0.018 0.089-0.025 0.149-0.007 0.078-0.032 0.11-0.089 0.117-0.046 0.007-0.082 0.036-0.082 0.060s0.036 0.053 0.082 0.060c0.075 0.011 0.078 0.028 0.089 0.384 0.007 0.242 0.025 0.38 0.053 0.398 0.078 0.050 0.238 0.032 0.238-0.025 0-0.028-0.032-0.053-0.071-0.053-0.068 0-0.071-0.025-0.071-0.352 0-0.331 0.004-0.356 0.071-0.366 0.103-0.014 0.107-0.078 0.011-0.092-0.068-0.011-0.082-0.036-0.082-0.149 0-0.132-0.092-0.231-0.124-0.132z"></path>
<path d="M8.405 26.908c-0.146 0.092-0.206 0.245-0.185 0.494 0.014 0.171 0.036 0.217 0.132 0.302 0.092 0.082 0.142 0.1 0.302 0.1 0.164 0 0.21-0.014 0.306-0.107 0.114-0.107 0.132-0.224 0.036-0.238-0.032-0.007-0.075 0.039-0.107 0.107-0.057 0.121-0.171 0.16-0.341 0.117-0.16-0.043-0.235-0.309-0.153-0.551 0.075-0.213 0.327-0.252 0.469-0.071 0.068 0.089 0.1 0.103 0.149 0.078 0.057-0.032 0.053-0.046-0.043-0.153-0.135-0.149-0.391-0.185-0.565-0.078z"></path>
<path d="M9.991 26.869c-0.167 0.064-0.245 0.26-0.107 0.26 0.039 0 0.071-0.025 0.071-0.053 0-0.075 0.153-0.139 0.267-0.11 0.092 0.025 0.178 0.171 0.146 0.252-0.007 0.025-0.117 0.053-0.242 0.064-0.181 0.018-0.238 0.036-0.302 0.114-0.107 0.121-0.103 0.213 0.007 0.32 0.103 0.107 0.313 0.121 0.437 0.032 0.075-0.053 0.089-0.053 0.146 0 0.092 0.082 0.217 0.075 0.217-0.014 0-0.039-0.021-0.071-0.050-0.071-0.039 0-0.053-0.075-0.064-0.32-0.007-0.267-0.021-0.331-0.085-0.395-0.078-0.075-0.334-0.124-0.441-0.078z"></path>
<path d="M14.884 26.908c-0.078 0.046-0.107 0.050-0.117 0.014-0.011-0.021-0.046-0.043-0.085-0.043-0.064 0-0.068 0.032-0.068 0.676 0 0.651 0.004 0.676 0.071 0.676 0.064 0 0.071-0.025 0.071-0.252 0-0.245 0.004-0.252 0.082-0.228 0.153 0.050 0.373 0.060 0.448 0.018 0.206-0.107 0.277-0.455 0.149-0.704-0.11-0.213-0.345-0.281-0.551-0.156zM15.253 27.051c0.057 0.046 0.085 0.114 0.096 0.242 0.018 0.153 0.007 0.192-0.078 0.292-0.196 0.235-0.516 0.082-0.516-0.245 0-0.121 0.082-0.302 0.149-0.327 0.1-0.043 0.274-0.021 0.348 0.039z"></path>
<path d="M16.046 26.916c-0.096 0.057-0.117 0.060-0.117 0.018 0-0.028-0.032-0.053-0.071-0.053-0.068 0-0.071 0.025-0.071 0.676s0.004 0.676 0.071 0.676c0.064 0 0.071-0.025 0.071-0.267v-0.27l0.107 0.057c0.146 0.075 0.363 0.068 0.473-0.018 0.117-0.092 0.181-0.288 0.156-0.491-0.014-0.132-0.043-0.188-0.146-0.281-0.149-0.139-0.299-0.153-0.473-0.046zM16.373 27.008c0.071 0.028 0.16 0.199 0.16 0.309 0 0.228-0.132 0.38-0.331 0.38-0.224-0.004-0.348-0.32-0.22-0.569 0.028-0.053 0.071-0.107 0.096-0.117 0.068-0.028 0.228-0.028 0.295-0.004z"></path>
<path d="M18.073 26.916c-0.064 0.036-0.139 0.117-0.171 0.174-0.114 0.224-0.028 0.562 0.164 0.661 0.21 0.11 0.512 0.039 0.594-0.139 0.036-0.078 0.032-0.092-0.018-0.092-0.036 0-0.096 0.043-0.139 0.096-0.142 0.181-0.452 0.075-0.484-0.167l-0.011-0.089 0.348-0.011c0.388-0.011 0.398-0.021 0.295-0.274-0.092-0.217-0.363-0.292-0.58-0.16z"></path>
<path d="M21.259 26.894c-0.149 0.085-0.22 0.263-0.203 0.501 0.014 0.178 0.036 0.224 0.132 0.309 0.092 0.082 0.142 0.1 0.292 0.1 0.156 0 0.196-0.014 0.299-0.117 0.203-0.203 0.203-0.544 0-0.736-0.107-0.103-0.384-0.132-0.519-0.057zM21.671 27.040c0.071 0.071 0.089 0.121 0.089 0.277 0 0.249-0.092 0.38-0.267 0.38-0.188 0-0.274-0.096-0.295-0.331-0.014-0.185-0.007-0.206 0.092-0.309 0.132-0.132 0.263-0.139 0.38-0.018z"></path>
<path d="M24.868 26.916c-0.149 0.096-0.206 0.242-0.185 0.484 0.021 0.267 0.128 0.377 0.391 0.398 0.153 0.011 0.206 0 0.288-0.064 0.146-0.117 0.181-0.203 0.092-0.224-0.050-0.014-0.082 0.004-0.11 0.064-0.046 0.103-0.213 0.167-0.324 0.128-0.11-0.043-0.164-0.114-0.188-0.245l-0.021-0.114h0.359c0.398 0 0.402-0.004 0.309-0.228-0.107-0.256-0.384-0.345-0.612-0.199z"></path>
<path d="M26.062 26.905c-0.060 0.043-0.089 0.046-0.1 0.018-0.007-0.025-0.043-0.043-0.082-0.043-0.064 0-0.068 0.032-0.068 0.466 0 0.423 0.007 0.462 0.064 0.452 0.050-0.011 0.060-0.057 0.068-0.277 0.004-0.146 0.007-0.295 0.007-0.331 0.004-0.096 0.135-0.203 0.249-0.203 0.181 0 0.217 0.071 0.217 0.444 0 0.249 0.011 0.334 0.050 0.348 0.082 0.032 0.092-0.007 0.092-0.373 0-0.345-0.004-0.356-0.103-0.459-0.121-0.117-0.263-0.135-0.395-0.043z"></path>
<path d="M13.547 27.271c0 0.345 0.007 0.398 0.071 0.462 0.085 0.085 0.263 0.092 0.391 0.018 0.114-0.064 0.142-0.064 0.142-0.004 0 0.028 0.028 0.046 0.064 0.043 0.053-0.011 0.060-0.064 0.071-0.459 0.007-0.434 0.007-0.452-0.064-0.452-0.068 0-0.071 0.021-0.071 0.309-0.004 0.341-0.032 0.409-0.196 0.473-0.078 0.028-0.117 0.025-0.181-0.018-0.082-0.053-0.085-0.075-0.085-0.409 0-0.331-0.004-0.356-0.071-0.356s-0.071 0.025-0.071 0.391z"></path>
</symbol>
<symbol id="icon-bes_logo" viewBox="0 0 66 32">
<path d="M0 11.733v11.733h65.524v-23.467h-65.524v11.733zM21.537 11.733v10.921h-20.724v-21.841h20.724v10.921zM43.073 11.733v10.921h-20.622v-21.841h20.622v10.921zM64.711 11.733v10.921h-20.673v-21.841h20.673v10.921z"></path>
<path d="M6.623 12.201l0.030 7.964 2.337-0.010c1.829 0 2.509-0.041 3.129-0.183 1.625-0.366 2.834-1.239 3.403-2.479 0.345-0.752 0.427-2.143 0.183-2.987-0.335-1.178-1.351-2.306-2.408-2.692l-0.467-0.173 0.315-0.213c0.823-0.549 1.341-1.839 1.25-3.139-0.071-1.138-0.376-1.91-1.026-2.55-1.026-1.026-2.133-1.361-4.866-1.443l-1.9-0.061 0.020 7.964zM11.124 6.441c0.904 0.386 1.31 1.097 1.3 2.316-0.010 1.676-0.762 2.347-2.794 2.489l-0.894 0.061v-5.14l0.996 0.051c0.589 0.030 1.148 0.122 1.392 0.223zM11.591 13.166c0.894 0.203 1.585 0.66 1.92 1.26 0.345 0.63 0.356 1.656 0.010 2.367-0.488 0.996-1.382 1.382-3.434 1.463l-1.351 0.061v-5.313h1.077c0.61 0 1.371 0.071 1.778 0.163z"></path>
<path d="M28.444 12.19v7.924h8.533v-1.93h-6.39l-0.061-5.79h6.349v-1.93h-6.349v-4.216l6.471-0.102v-1.829l-4.277-0.030-4.277-0.020v7.924z"></path>
<path d="M53.059 4.104c-1.331 0.325-2.458 1.178-2.997 2.276-0.315 0.63-0.335 0.752-0.335 1.697 0 0.823 0.041 1.107 0.224 1.493 0.477 1.036 1.615 1.92 3.535 2.723 2.042 0.864 2.621 1.239 3.078 2.011 0.234 0.406 0.274 0.589 0.274 1.239-0.010 1.839-1.26 3.037-3.017 2.926-1.473-0.102-2.53-1.046-2.692-2.428-0.030-0.274-0.091-0.498-0.122-0.498-0.142 0-1.991 0.416-2.032 0.467-0.020 0.020 0.010 0.295 0.081 0.599 0.315 1.392 1.412 2.794 2.662 3.383 2.489 1.189 5.526 0.183 6.735-2.215 0.914-1.839 0.65-3.952-0.67-5.343-0.681-0.721-1.514-1.209-3.271-1.92-2.225-0.894-2.763-1.422-2.682-2.601 0.051-0.762 0.416-1.239 1.25-1.666 0.508-0.254 0.721-0.295 1.321-0.295 0.599 0.010 0.823 0.061 1.27 0.305 0.305 0.163 0.67 0.477 0.833 0.701s0.325 0.406 0.366 0.406c0.051 0 1.392-0.762 1.625-0.924 0.081-0.051-0.599-0.935-0.975-1.28-1.168-1.056-2.834-1.443-4.46-1.056z"></path>
<path d="M30.415 26.453c-0.437 0.437-0.477 1.006-0.102 1.453l0.254 0.295-0.335 0.264c-0.437 0.345-0.67 0.863-0.67 1.453 0 0.599 0.224 0.985 0.731 1.27 0.559 0.315 1.737 0.264 2.215-0.091l0.325-0.234 0.142 0.213c0.132 0.173 0.264 0.213 0.762 0.213h0.599l-0.447-0.579c-0.416-0.518-0.437-0.589-0.315-0.782 0.203-0.315 0.416-0.955 0.498-1.514l0.071-0.477h-0.457c-0.447 0-0.457 0.010-0.518 0.376-0.091 0.508-0.264 1.067-0.315 1.016-0.030-0.030-0.224-0.284-0.437-0.569l-0.396-0.528 0.295-0.295c0.437-0.427 0.416-1.016-0.051-1.483-0.315-0.315-0.406-0.345-0.924-0.345s-0.61 0.030-0.924 0.345zM31.746 29.42l0.498 0.681-0.234 0.183c-0.325 0.264-0.965 0.254-1.229-0.010-0.305-0.305-0.254-0.742 0.112-1.168 0.173-0.193 0.325-0.356 0.335-0.356s0.244 0.305 0.518 0.67z"></path>
<path d="M37.435 26.23c-0.66 0.366-0.955 1.006-0.762 1.697 0.122 0.467 0.498 0.813 1.331 1.239 0.325 0.163 0.67 0.406 0.762 0.549 0.152 0.234 0.152 0.274-0.010 0.518-0.152 0.244-0.224 0.264-0.67 0.224-0.345-0.041-0.589-0.132-0.762-0.295l-0.254-0.234-0.305 0.315c-0.284 0.274-0.305 0.325-0.173 0.528 0.213 0.356 0.884 0.62 1.544 0.62 1.077 0 1.727-0.538 1.727-1.412-0.010-0.752-0.224-1.046-1.158-1.524-0.447-0.234-0.894-0.538-0.975-0.681-0.152-0.224-0.152-0.264 0-0.498 0.203-0.305 0.792-0.345 1.168-0.081 0.244 0.163 0.254 0.163 0.528-0.173 0.325-0.386 0.284-0.498-0.254-0.752-0.396-0.183-1.432-0.213-1.737-0.041z"></path>
<path d="M42.077 26.24c-0.975 0.356-1.544 1.28-1.544 2.509 0.010 1.676 0.945 2.641 2.59 2.641 0.691 0 1.453-0.234 1.615-0.488 0.030-0.061-0.010-0.264-0.102-0.467l-0.173-0.345-0.366 0.193c-0.488 0.264-1.25 0.254-1.737-0.020-1.046-0.589-1.107-2.326-0.102-3.017 0.396-0.264 1.138-0.305 1.697-0.071 0.203 0.081 0.376 0.142 0.386 0.132 0-0.020 0.091-0.152 0.183-0.305 0.254-0.396 0.224-0.477-0.254-0.691-0.498-0.224-1.656-0.264-2.194-0.071z"></path>
<path d="M59.246 26.24c-0.975 0.356-1.544 1.28-1.544 2.509 0.010 1.676 0.945 2.641 2.59 2.641 0.691 0 1.453-0.234 1.615-0.488 0.030-0.061-0.010-0.264-0.102-0.467l-0.173-0.345-0.366 0.193c-0.488 0.264-1.25 0.254-1.737-0.020-1.046-0.589-1.107-2.326-0.102-3.017 0.396-0.264 1.138-0.305 1.697-0.071 0.203 0.081 0.376 0.142 0.386 0.132 0-0.020 0.091-0.152 0.183-0.305 0.254-0.396 0.224-0.477-0.254-0.691-0.498-0.224-1.656-0.264-2.194-0.071z"></path>
<path d="M0.102 28.749v2.54h1.097c1.25 0 1.646-0.142 2.032-0.711 0.203-0.295 0.234-0.447 0.203-0.894-0.051-0.559-0.356-1.036-0.681-1.036-0.142-0.010-0.132-0.020 0.020-0.112 0.437-0.254 0.62-1.158 0.325-1.707-0.234-0.467-0.701-0.62-1.92-0.62h-1.077v2.54zM2.286 29.41c0.305 0.295 0.315 0.356 0.041 0.701-0.183 0.224-0.284 0.264-0.762 0.264h-0.549v-1.219h0.508c0.417 0 0.569 0.051 0.762 0.254z"></path>
<path d="M4.571 28.749v2.54h3.048v-0.914h-2.133v-1.219h1.829v-0.914h-1.829v-1.117h2.032v-0.914h-2.946v2.54z"></path>
<path d="M9.244 28.414c-0.518 1.219-1.006 2.367-1.087 2.55l-0.142 0.335 1.046-0.061 0.447-1.117 2.154-0.061 0.244 0.62 0.234 0.61h1.067l-0.193-0.488c-0.112-0.264-0.589-1.392-1.056-2.509l-0.874-2.032-0.904-0.061-0.935 2.215z"></path>
<path d="M13.816 27.906c0 1.92 0.071 2.316 0.538 2.844 0.427 0.477 0.833 0.64 1.646 0.64 0.833 0 1.371-0.254 1.747-0.833 0.284-0.416 0.284-0.437 0.315-2.387l0.041-1.961h-0.935v1.422c0 2.306-0.224 2.844-1.178 2.844-0.579 0-0.996-0.345-1.148-0.955-0.061-0.254-0.112-1.097-0.112-1.879v-1.432h-0.914v1.697z"></path>
<path d="M18.692 26.667v0.457h1.727v4.165h0.914v-4.165h1.625v-0.914h-4.267v0.457z"></path>
<path d="M23.162 26.413c0.061 0.112 0.477 0.803 0.914 1.524l0.813 1.321v2.032h0.914v-2.062l0.782-1.28c0.427-0.701 0.843-1.382 0.924-1.514 0.142-0.224 0.142-0.224-0.406-0.224h-0.549l-0.559 0.965c-0.305 0.528-0.579 0.965-0.61 0.965-0.041 0-0.325-0.437-0.64-0.965l-0.579-0.965h-0.559c-0.528 0-0.549 0.010-0.447 0.203z"></path>
<path d="M45.714 28.749v2.54h0.914v-5.079h-0.914v2.54z"></path>
<path d="M48.152 28.749v2.54h3.048v-0.914h-2.133v-1.219h1.829v-0.914h-1.829v-1.117h2.032v-0.914h-2.946v2.54z"></path>
<path d="M52.317 28.749v2.54h0.914l0.020-1.636 0.030-1.625 1.31 1.625c1.29 1.595 1.321 1.636 1.707 1.636h0.386v-5.079h-0.914l-0.020 1.646-0.030 1.646-1.31-1.646c-1.29-1.615-1.321-1.646-1.707-1.646h-0.386v2.54z"></path>
<path d="M62.883 28.749v2.54h2.641v-0.914h-1.727v-1.219h1.727v-0.914h-1.727v-1.117h1.727v-0.914h-2.641v2.54z"></path>
</symbol>
<symbol id="icon-crewm" viewBox="0 0 53 32">
<path d="M17.664 0.73c0 0.013-0.058 0.39-0.128 0.845s-0.128 0.89-0.128 0.966c0 0.218 0.173 0.179 0.224-0.045 0.045-0.211 0.288-0.282 0.288-0.083 0 0.173 0.102 0.301 0.205 0.256 0.077-0.026 0.077-0.141-0.019-0.794-0.179-1.184-0.179-1.171-0.314-1.171-0.070 0-0.128 0.013-0.128 0.026z"></path>
<path d="M19.968 1.69c0 0.954 0.006 0.998 0.128 0.998 0.115 0 0.128-0.045 0.134-0.499 0.006-0.435 0.013-0.467 0.070-0.288 0.083 0.256 0.224 0.275 0.288 0.032 0.038-0.134 0.058-0.077 0.083 0.275 0.026 0.358 0.051 0.448 0.147 0.467 0.102 0.019 0.109-0.058 0.109-0.973 0-0.563-0.026-0.998-0.058-0.998s-0.122 0.192-0.198 0.429c-0.083 0.243-0.166 0.454-0.186 0.486-0.026 0.026-0.122-0.16-0.211-0.416-0.256-0.736-0.307-0.653-0.307 0.486z"></path>
<path d="M22.771 1.338c-0.013 0.352-0.006 0.794 0.013 0.979l0.032 0.339h0.32c0.243 0 0.32-0.026 0.32-0.096 0-0.058-0.070-0.102-0.173-0.115-0.154-0.019-0.179-0.051-0.179-0.211 0-0.141 0.032-0.186 0.128-0.186 0.083 0 0.128-0.045 0.128-0.128s-0.045-0.128-0.128-0.128c-0.115 0-0.128-0.045-0.128-0.41 0-0.403 0.006-0.416 0.179-0.435 0.102-0.013 0.173-0.058 0.173-0.115 0-0.070-0.090-0.102-0.326-0.115l-0.333-0.019-0.026 0.64z"></path>
<path d="M25.229 1.677c0.019 0.87 0.032 0.979 0.134 0.998 0.090 0.019 0.109-0.026 0.109-0.288 0.006-0.282 0.013-0.301 0.096-0.186 0.051 0.070 0.096 0.192 0.096 0.275 0 0.173 0.166 0.262 0.275 0.154 0.051-0.051 0.032-0.154-0.070-0.403-0.128-0.301-0.128-0.339-0.038-0.442 0.134-0.147 0.186-0.531 0.096-0.755-0.083-0.198-0.301-0.326-0.557-0.326h-0.16l0.019 0.973z"></path>
<path d="M30.112 0.813c-0.173 0.166-0.224 0.378-0.224 0.89 0 0.646 0.186 0.986 0.538 0.986 0.147 0 0.128-0.237-0.026-0.275-0.166-0.045-0.256-0.294-0.256-0.71 0-0.429 0.102-0.723 0.262-0.762 0.064-0.019 0.122-0.077 0.122-0.134 0-0.134-0.282-0.134-0.416 0.006z"></path>
<path d="M32.576 0.717c-0.096 0.486-0.294 1.888-0.275 1.92 0.064 0.115 0.198 0.038 0.237-0.141 0.045-0.256 0.294-0.275 0.294-0.032 0 0.16 0.134 0.269 0.243 0.198 0.032-0.019 0.006-0.365-0.058-0.787-0.192-1.222-0.179-1.171-0.314-1.171-0.070 0-0.128 0.006-0.128 0.013z"></path>
<path d="M34.88 1.69c0 0.954 0.006 0.998 0.128 0.998 0.115 0 0.128-0.045 0.128-0.493 0-0.269 0.019-0.467 0.045-0.442 0.026 0.019 0.115 0.23 0.205 0.461 0.090 0.237 0.198 0.422 0.23 0.416 0.038-0.006 0.070-0.384 0.083-0.966 0.013-0.928 0.013-0.96-0.115-0.96-0.115 0-0.128 0.038-0.128 0.48 0 0.262-0.019 0.48-0.051 0.48-0.026 0-0.122-0.205-0.211-0.461-0.262-0.73-0.314-0.653-0.314 0.486z"></path>
<path d="M21.837 5.229c2.598 0.013 6.848 0.013 9.44 0 2.598-0.006 0.474-0.013-4.717-0.013s-7.315 0.006-4.723 0.013z"></path>
<path d="M14.573 8.006c-1.267 0.301-2.131 1.626-2.509 3.866-0.275 1.626-0.352 3.456-0.224 5.376 0.211 3.142 0.973 5.030 2.291 5.677 0.358 0.179 0.512 0.218 0.973 0.23 0.301 0.013 0.646 0 0.768-0.032 0.224-0.058 0.224-0.064 0.243-0.454l0.019-0.397h-0.474c-0.378 0-0.531-0.032-0.806-0.166-0.614-0.307-1.101-1.107-1.408-2.298-0.538-2.086-0.57-6.035-0.064-8.301 0.41-1.869 1.197-2.758 2.33-2.656l0.416 0.038v-0.813l-0.32-0.070c-0.378-0.083-0.89-0.083-1.235 0z"></path>
<path d="M18.944 15.584v7.52h1.216v-5.344l0.256 0.352c0.365 0.512 0.941 1.645 1.158 2.285 0.224 0.672 0.358 1.344 0.416 2.125l0.045 0.582h0.531c0.288 0 0.55-0.026 0.57-0.064 0.051-0.083-0.070-1.152-0.198-1.766-0.23-1.126-0.826-2.496-1.459-3.373-0.198-0.275-0.358-0.512-0.358-0.525s0.224-0.25 0.506-0.525c0.8-0.806 1.357-1.875 1.574-3.059 0.154-0.813 0.102-2.547-0.090-3.219-0.198-0.678-0.48-1.203-0.89-1.626-0.608-0.64-1.306-0.883-2.522-0.883h-0.755v7.52zM20.838 9.056c0.256 0.102 0.634 0.48 0.794 0.8 0.070 0.134 0.192 0.474 0.269 0.749 0.134 0.448 0.147 0.627 0.141 1.811-0.006 1.126-0.026 1.382-0.141 1.824-0.282 1.043-0.973 2.15-1.542 2.483l-0.198 0.115v-7.949l0.243 0.045c0.128 0.026 0.326 0.077 0.435 0.122z"></path>
<path d="M26.368 12.512v4.448h-0.506l0.013 0.397 0.013 0.403 0.448 0.064 0.019 2.643 0.013 2.637 1.907-0.013 1.901-0.019v-0.832l-1.299-0.019-1.293-0.013 0.013-2.195 0.019-2.189 1.952-0.038v-0.826h-1.984v-8.064h2.624v-0.832h-3.84v4.448z"></path>
<path d="M32.128 8.077c0 0.051 0.352 2.374 0.608 3.987 0.16 1.018 0.48 3.078 0.704 4.576 0.23 1.498 0.544 3.546 0.704 4.55 0.16 1.011 0.288 1.856 0.288 1.875 0 0.070 0.57 0.038 0.614-0.032 0.019-0.038 0.154-0.794 0.288-1.683 0.57-3.718 1.21-7.802 1.222-7.821 0.013-0.006 0.333 2.035 0.717 4.538 0.384 2.509 0.717 4.659 0.736 4.781 0.045 0.211 0.058 0.224 0.346 0.243 0.346 0.026 0.301 0.122 0.486-1.107 0.070-0.461 0.218-1.395 0.326-2.080 0.102-0.685 0.262-1.722 0.346-2.304 0.090-0.582 0.435-2.816 0.768-4.96 0.333-2.15 0.627-4.058 0.653-4.243l0.045-0.333h-0.525c-0.282 0-0.518 0.013-0.518 0.032s-0.115 0.819-0.256 1.779c-0.147 0.96-0.39 2.618-0.544 3.693-0.16 1.075-0.378 2.522-0.48 3.213-0.109 0.698-0.192 1.299-0.192 1.338 0 0.045-0.013 0.064-0.032 0.051-0.026-0.032-0.109-0.55-0.672-4.442-0.141-0.954-0.384-2.598-0.544-3.667-0.16-1.062-0.288-1.946-0.288-1.965s-0.128-0.032-0.282-0.032c-0.339 0-0.256-0.307-0.678 2.528-0.179 1.197-0.403 2.739-0.512 3.424-0.102 0.685-0.282 1.901-0.397 2.701s-0.218 1.44-0.23 1.434c-0.026-0.032-0.563-3.59-1.229-8.224-0.141-0.966-0.256-1.779-0.256-1.811 0-0.026-0.275-0.051-0.608-0.051s-0.608 0.006-0.608 0.013z"></path>
<path d="M17.152 25.984c0 0.045 3.181 0.064 9.408 0.064s9.408-0.019 9.408-0.064c0-0.045-3.181-0.064-9.408-0.064s-9.408 0.019-9.408 0.064z"></path>
<path d="M12.192 28.634c-0.55 0.243-0.768 0.934-0.48 1.555 0.166 0.378 0.442 0.531 0.928 0.531s0.762-0.154 0.928-0.531c0.269-0.589 0.083-1.274-0.41-1.51-0.307-0.154-0.685-0.166-0.966-0.045zM13.178 29.018c0.205 0.211 0.262 0.813 0.109 1.114-0.275 0.531-1.030 0.518-1.286-0.026-0.154-0.326-0.109-0.864 0.096-1.082 0.294-0.314 0.768-0.314 1.082-0.006z"></path>
<path d="M21.894 28.71c-0.16 0.134-0.198 0.218-0.198 0.41 0 0.307 0.179 0.467 0.659 0.576 0.442 0.102 0.621 0.224 0.621 0.416 0 0.403-0.614 0.576-0.928 0.256-0.090-0.083-0.16-0.198-0.16-0.256 0-0.064-0.058-0.096-0.166-0.096-0.147 0-0.16 0.019-0.128 0.173 0.096 0.39 0.461 0.582 1.030 0.538 0.576-0.051 0.87-0.57 0.55-0.979-0.122-0.147-0.25-0.205-0.877-0.365-0.422-0.109-0.454-0.448-0.058-0.582 0.262-0.090 0.64 0.045 0.704 0.25 0.045 0.154 0.288 0.186 0.288 0.032 0-0.486-0.902-0.736-1.338-0.371z"></path>
<path d="M15.206 28.749c-0.058 0.077-0.102 0.237-0.102 0.352 0 0.147-0.032 0.211-0.096 0.211-0.051 0-0.096 0.045-0.096 0.096s0.045 0.096 0.096 0.096c0.070 0 0.096 0.122 0.109 0.589 0.019 0.506 0.038 0.595 0.134 0.614s0.109-0.038 0.109-0.589c0-0.57 0.006-0.614 0.128-0.614 0.166 0 0.166-0.166-0.006-0.211-0.192-0.051-0.154-0.454 0.058-0.48 0.218-0.032 0.179-0.205-0.045-0.205-0.128 0-0.224 0.051-0.288 0.141z"></path>
<path d="M35.904 29.664c0 1.011 0.006 1.056 0.128 1.056s0.128-0.045 0.134-0.851v-0.845l0.314 0.832c0.403 1.094 0.442 1.094 0.845 0.038 0.166-0.435 0.32-0.806 0.346-0.832 0.019-0.019 0.026 0.333 0.019 0.794-0.026 0.8-0.019 0.832 0.102 0.832s0.128-0.051 0.147-1.043l0.019-1.037h-0.198c-0.218 0-0.179-0.070-0.608 1.050l-0.243 0.64-0.218-0.576c-0.115-0.314-0.256-0.691-0.314-0.845-0.090-0.23-0.128-0.269-0.288-0.269h-0.186v1.056z"></path>
<path d="M16.704 29.421c-0.256 0.224-0.32 0.602-0.166 0.928 0.128 0.262 0.326 0.371 0.672 0.371 0.378 0 0.768-0.429 0.486-0.531-0.058-0.026-0.122 0.026-0.173 0.134-0.109 0.23-0.48 0.275-0.659 0.077-0.16-0.173-0.16-0.653 0-0.832s0.442-0.166 0.595 0.032c0.083 0.102 0.166 0.147 0.23 0.122 0.147-0.058 0.128-0.122-0.096-0.307-0.275-0.23-0.627-0.23-0.89 0.006z"></path>
<path d="M18.848 29.408c-0.090 0.083-0.16 0.186-0.16 0.224 0 0.115 0.224 0.070 0.307-0.064 0.122-0.198 0.448-0.173 0.531 0.038 0.032 0.096 0.045 0.186 0.026 0.205-0.013 0.019-0.179 0.058-0.358 0.083-0.179 0.032-0.384 0.102-0.448 0.16-0.16 0.141-0.154 0.378 0.006 0.538 0.154 0.154 0.582 0.173 0.704 0.032 0.077-0.090 0.096-0.090 0.192 0 0.147 0.134 0.32 0.122 0.32-0.026 0-0.070-0.032-0.134-0.070-0.147-0.045-0.013-0.083-0.211-0.090-0.499-0.006-0.403-0.032-0.486-0.154-0.589-0.218-0.173-0.614-0.154-0.806 0.045z"></path>
<path d="M23.558 29.306c-0.141 0.090-0.070 1.107 0.083 1.28 0.147 0.16 0.461 0.179 0.666 0.032 0.128-0.090 0.141-0.090 0.141 0.006 0 0.064 0.045 0.096 0.115 0.083 0.096-0.019 0.109-0.102 0.109-0.723s-0.013-0.704-0.109-0.723c-0.102-0.019-0.115 0.038-0.115 0.493 0 0.474-0.013 0.518-0.166 0.64-0.211 0.166-0.294 0.166-0.429 0.019-0.083-0.090-0.109-0.243-0.109-0.608 0-0.493-0.038-0.589-0.186-0.499z"></path>
<path d="M25.408 29.357c-0.109 0.077-0.16 0.083-0.179 0.032-0.013-0.045-0.064-0.077-0.115-0.077-0.070 0-0.090 0.186-0.090 1.024 0 0.998 0 1.024 0.134 1.024 0.128 0 0.134-0.026 0.109-0.384-0.026-0.333-0.013-0.384 0.070-0.346 0.058 0.026 0.218 0.058 0.365 0.077 0.352 0.032 0.595-0.166 0.646-0.544 0.045-0.358-0.013-0.576-0.218-0.762-0.198-0.179-0.499-0.205-0.723-0.045zM25.946 29.574c0.333 0.262 0.166 0.954-0.237 0.954-0.288 0-0.429-0.173-0.429-0.512 0-0.262 0.026-0.333 0.166-0.442 0.096-0.077 0.205-0.134 0.25-0.134s0.154 0.058 0.25 0.134z"></path>
<path d="M27.021 29.35c-0.077 0.051-0.141 0.064-0.141 0.032 0-0.038-0.058-0.070-0.128-0.070-0.122 0-0.128 0.045-0.128 1.024s0.006 1.024 0.128 1.024c0.115 0 0.128-0.045 0.128-0.384 0-0.365 0.006-0.384 0.122-0.32 0.23 0.122 0.614 0.077 0.762-0.083 0.448-0.48 0.192-1.325-0.397-1.325-0.109 0-0.269 0.045-0.346 0.102zM27.712 29.786c0.173 0.525-0.346 0.973-0.704 0.614-0.141-0.141-0.173-0.499-0.058-0.71 0.166-0.314 0.646-0.25 0.762 0.096z"></path>
<path d="M29.856 29.312c-0.294 0.115-0.454 0.525-0.352 0.902 0.141 0.512 0.71 0.672 1.101 0.314 0.179-0.16 0.198-0.198 0.115-0.256-0.070-0.045-0.128-0.026-0.211 0.096-0.224 0.301-0.749 0.154-0.749-0.211 0-0.134 0.032-0.141 0.512-0.141h0.512v-0.186c0-0.275-0.314-0.582-0.589-0.576-0.115 0-0.269 0.026-0.339 0.058z"></path>
<path d="M33.798 29.414c-0.23 0.192-0.307 0.512-0.205 0.864 0.096 0.307 0.282 0.442 0.621 0.442 0.499 0 0.819-0.461 0.672-0.966-0.147-0.499-0.698-0.672-1.088-0.339zM34.522 29.581c0.058 0.077 0.102 0.262 0.102 0.403 0 0.333-0.147 0.544-0.378 0.544-0.269 0-0.397-0.134-0.435-0.454-0.026-0.224-0.006-0.32 0.109-0.461 0.173-0.218 0.461-0.237 0.602-0.032z"></path>
<path d="M38.47 29.446c-0.173 0.173-0.198 0.237-0.198 0.55 0 0.301 0.026 0.378 0.186 0.538 0.256 0.25 0.698 0.262 0.934 0.026 0.179-0.179 0.198-0.256 0.070-0.307-0.058-0.019-0.134 0.026-0.192 0.122-0.205 0.307-0.742 0.134-0.742-0.243 0-0.102 0.064-0.115 0.512-0.115h0.512v-0.198c0-0.294-0.301-0.57-0.627-0.57-0.205 0-0.301 0.045-0.454 0.198z"></path>
<path d="M39.987 29.299c-0.102 0.019-0.115 0.109-0.115 0.723 0 0.653 0.006 0.698 0.128 0.698 0.115 0 0.128-0.045 0.128-0.499 0-0.538 0.019-0.595 0.243-0.71 0.122-0.064 0.179-0.064 0.307 0.026 0.141 0.090 0.154 0.134 0.154 0.64 0 0.442 0.019 0.544 0.096 0.544s0.096-0.109 0.096-0.608c0-0.525-0.019-0.627-0.128-0.736-0.154-0.154-0.429-0.166-0.621-0.032-0.109 0.077-0.141 0.077-0.16 0.013-0.013-0.045-0.070-0.070-0.128-0.058z"></path>
</symbol>
<symbol id="icon-crews" viewBox="0 0 32 32">
<path d="M6.599 10.581c-0.626 0.284-1.010 0.839-1.38 1.991-0.27 0.882-0.313 1.323-0.313 3.57s0.043 2.688 0.313 3.57c0.498 1.579 1.152 2.19 2.318 2.19 0.455 0 0.569-0.057 0.569-0.27 0-0.199-0.142-0.284-0.569-0.356-1.124-0.185-1.678-1.522-1.806-4.423-0.114-2.66 0.213-4.551 0.939-5.376 0.313-0.341 0.526-0.441 0.924-0.441 0.441 0 0.512-0.043 0.484-0.299-0.057-0.356-0.825-0.441-1.479-0.156z"></path>
<path d="M10.24 16.213v5.689h0.853v-1.991c0-1.095 0.057-1.991 0.128-1.991 0.057 0 0.313 0.37 0.555 0.811 0.412 0.782 0.626 1.465 0.811 2.631 0.071 0.469 0.142 0.54 0.455 0.54 0.356 0 0.37-0.014 0.27-0.796-0.114-1.038-0.526-2.176-1.052-2.958l-0.427-0.626 0.412-0.398c0.228-0.228 0.597-0.754 0.811-1.195 0.341-0.697 0.384-0.939 0.384-2.204 0-1.237-0.043-1.493-0.341-2.005-0.441-0.768-1.195-1.195-2.133-1.195h-0.725v5.689zM12.018 11.435c0.981 0.981 0.782 4.139-0.341 5.305-0.171 0.185-0.37 0.327-0.441 0.327-0.085 0-0.142-1.166-0.142-2.987 0-2.916 0-2.987 0.284-2.987 0.171 0 0.455 0.156 0.64 0.341z"></path>
<path d="M15.929 13.867c0 2.873-0.028 3.342-0.213 3.342-0.114 0-0.213 0.128-0.213 0.27s0.1 0.299 0.213 0.356c0.171 0.057 0.213 0.427 0.213 2.076v1.991h2.844v-0.356c0-0.341-0.028-0.356-0.996-0.356h-0.996v-3.413h0.711c0.612 0 0.711-0.043 0.711-0.284s-0.1-0.284-0.711-0.284h-0.711v-6.116h0.996c0.896 0 0.996-0.028 0.996-0.284 0-0.27-0.1-0.284-1.422-0.284h-1.422v3.342z"></path>
<path d="M20.338 10.667c0 0.156 1.479 9.842 1.636 10.766 0.057 0.284 0.171 0.469 0.284 0.469s0.213-0.043 0.213-0.114c0-0.37 1.052-6.94 1.138-7.040 0.043-0.057 0.228 0.868 0.412 2.062 0.683 4.636 0.768 5.092 0.953 5.092 0.1 0 0.213-0.171 0.256-0.398 0.128-0.626 1.65-10.581 1.65-10.78 0-0.114-0.142-0.199-0.327-0.199-0.327 0-0.341 0.071-0.882 3.769-0.313 2.076-0.597 3.769-0.64 3.769s-0.213-1.038-0.398-2.318c-0.668-4.636-0.768-5.22-0.967-5.22-0.114 0-0.199 0.043-0.199 0.1-0.014 0.37-1.109 7.452-1.152 7.509-0.043 0.028-0.313-1.664-0.626-3.769l-0.555-3.84h-0.398c-0.213 0-0.398 0.071-0.398 0.142z"></path>
</symbol>
<symbol id="icon-alpecincb" viewBox="0 0 53 32">
<path d="M24.764 2.296c-1.8 0.294-3.75 1.024-5.195 1.958-1.257 0.806-2.696 2.138-3.516 3.253l-0.346 0.474h-13.598v15.586h13.289l0.467 0.655c0.256 0.369 0.753 0.971 1.107 1.348 1.912 2.056 4.352 3.411 7.206 4.036 0.685 0.143 1.001 0.166 2.552 0.166 2.010 0.008 2.575-0.083 4.247-0.64 2.086-0.693 3.802-1.784 5.399-3.433 0.663-0.685 1.649-1.92 1.649-2.071 0-0.030 2.982-0.060 6.626-0.060h6.626v-15.586h-13.463l-0.489-0.625c-0.625-0.798-1.875-2.010-2.665-2.59-1.551-1.152-3.388-1.958-5.368-2.372-0.956-0.196-3.569-0.256-4.525-0.098zM39.416 9.781c0.376 0.218 0.565 0.572 0.565 1.062 0 0.926-0.783 1.491-1.619 1.167-0.467-0.173-0.73-0.535-0.776-1.047-0.083-1.047 0.926-1.702 1.83-1.182zM13.975 15.285c0.964 2.839 1.754 5.203 1.754 5.248 0.008 0.12-2.515 0.143-2.59 0.023-0.023-0.045-0.128-0.369-0.233-0.738-0.105-0.361-0.256-0.881-0.339-1.167l-0.151-0.504h-2.846l-0.151 0.504c-0.083 0.286-0.241 0.843-0.354 1.242l-0.211 0.738h-1.303c-0.715 0-1.303-0.030-1.303-0.060 0-0.045 3.298-9.841 3.501-10.391 0.023-0.075 0.316-0.090 1.25-0.075l1.22 0.023 1.754 5.158zM18.221 15.36v5.278l-2.296-0.045-0.023-5.256-0.015-5.248h2.334v5.271zM36.766 12.386l0.354 0.128v2.010l-0.316-0.143c-0.437-0.196-0.708-0.188-1.167 0.038-0.663 0.331-1.001 1.024-1.001 2.040 0 1.054 0.512 1.852 1.325 2.056 0.346 0.090 0.873 0.008 0.971-0.143 0.143-0.226 0.188 0.015 0.188 0.941v1.009l-0.392 0.128c-0.218 0.068-0.723 0.136-1.114 0.158-0.61 0.030-0.783 0.015-1.137-0.12-0.851-0.324-1.611-1.257-2.003-2.455-0.166-0.504-0.196-0.753-0.203-1.544-0.008-1.092 0.075-1.521 0.482-2.372 0.437-0.919 1.039-1.521 1.792-1.807 0.376-0.151 1.724-0.105 2.221 0.075zM23.68 12.491c0.693 0.316 1.25 1.039 1.596 2.071 0.188 0.572 0.203 0.693 0.203 1.928 0 1.227-0.015 1.355-0.203 1.92-0.369 1.114-1.039 1.897-1.852 2.184-0.474 0.158-1.348 0.143-1.815-0.030l-0.376-0.143v3.674h-2.259v-11.671h2.259v0.776l0.346-0.316c0.188-0.181 0.444-0.369 0.58-0.422 0.346-0.158 1.16-0.136 1.521 0.030zM30.080 12.589c0.693 0.361 1.242 1.047 1.536 1.92 0.188 0.565 0.331 1.792 0.264 2.296l-0.053 0.361h-1.83c-1.8 0-1.837 0-1.837 0.151 0 0.226 0.203 0.685 0.399 0.888 0.316 0.346 0.715 0.489 1.325 0.482 0.309-0.008 0.67-0.030 0.791-0.060 0.279-0.060 0.783-0.301 0.971-0.467 0.12-0.105 0.128-0.060 0.128 0.956v1.069l-0.354 0.151c-0.655 0.279-1.288 0.384-2.168 0.354-0.76-0.023-0.873-0.045-1.333-0.271-1.25-0.61-2.086-2.168-2.093-3.87 0-1.928 0.926-3.584 2.304-4.096 0.474-0.173 1.483-0.105 1.95 0.136zM45.869 12.619c0.384 0.279 0.776 0.986 0.888 1.604 0.045 0.226 0.075 1.747 0.075 3.411v3.004l-2.296-0.045-0.038-2.62-0.038-2.628-0.211-0.181c-0.113-0.098-0.256-0.181-0.316-0.181-0.226 0-0.497 0.188-0.663 0.444-0.158 0.264-0.166 0.354-0.203 2.718l-0.038 2.447-2.296 0.045v-8.222l2.296 0.045 0.075 0.873 0.339-0.354c0.497-0.512 0.813-0.64 1.521-0.617 0.504 0.023 0.61 0.053 0.904 0.256zM39.906 16.527v4.104h-2.259v-8.207h2.259v4.104z"></path>
<path d="M10.639 14.509c-0.211 0.783-0.376 1.423-0.369 1.438 0.015 0.008 0.376 0.008 0.813 0l0.783-0.023-0.376-1.408c-0.211-0.783-0.399-1.416-0.422-1.416s-0.218 0.632-0.429 1.408z"></path>
<path d="M21.843 14.456c-0.098 0.045-0.271 0.143-0.392 0.233l-0.218 0.151v3.381l0.301 0.151c0.866 0.444 1.551-0.196 1.687-1.581 0.143-1.431-0.58-2.658-1.378-2.334z"></path>
<path d="M28.552 14.276c-0.211 0.143-0.286 0.294-0.354 0.685l-0.053 0.324h1.596v-0.309c0-0.61-0.715-1.032-1.19-0.7z"></path>
</symbol>
<symbol id="icon-redken" viewBox="0 0 102 32">
<path d="M22.654 2.21l-5.156 0.076 0.508 0.686c0.508 0.635 0.533 0.965 0.533 8.61 0 4.394-0.102 8-0.229 8.076-0.356 0.229-3.048-2.54-5.156-5.283l-1.956-2.514 1.194-0.559c1.321-0.61 2.743-2.083 2.997-3.073 0.102-0.356 0.102-1.27 0.051-2.057-0.102-1.27-0.229-1.524-1.143-2.387-0.559-0.508-1.473-1.067-2.006-1.219-0.559-0.152-2.844-0.279-5.13-0.279h-4.114l0.508 0.508c0.483 0.483 0.508 0.889 0.584 6.146 0.102 9.778 0.076 10.489-0.406 11.225l-0.432 0.66h2.413c2.235 0 2.413-0.025 2.057-0.406-0.229-0.203-0.457-0.635-0.533-0.94s-0.102-3.886-0.076-7.924l0.076-7.365 1.575-0.076c2.59-0.127 3.886 0.965 3.886 3.225 0 1.651-1.397 2.946-3.886 3.683l-1.016 0.279 1.473 2.159c2.108 3.124 4.978 6.603 5.765 7.010 0.533 0.279 2.159 0.356 7.517 0.356h6.806l0.457-1.473c0.254-0.787 0.533-1.625 0.61-1.829 0.102-0.229-0.102-0.178-0.559 0.203-0.406 0.305-1.194 0.686-1.778 0.838-1.117 0.33-4.47 0.381-5.74 0.102l-0.762-0.178v-6.756h1.295c0.736-0.025 1.752 0.127 2.286 0.305l0.99 0.356v-2.743h-4.571v-5.333h2.235c1.727 0 2.413 0.102 3.175 0.508l0.94 0.508v-1.651c0-0.914-0.025-1.625-0.051-1.6-0.051 0.051-2.387 0.102-5.232 0.127z"></path>
<path d="M71.822 2.21l-5.003 0.076 0.483 0.838c0.483 0.762 0.508 1.295 0.508 8.356 0 7.492-0.127 8.711-0.889 8.99-0.737 0.305-2.514-1.448-5.613-5.511-1.727-2.26-3.149-4.216-3.149-4.343s1.422-2.057 3.175-4.292l3.175-4.038h-2.463c-1.905 0-2.387 0.076-2.159 0.305 0.711 0.711 0.279 1.625-2.235 5.029-1.397 1.879-2.54 3.505-2.54 3.632 0 0.508 6.476 8.863 7.136 9.194 0.584 0.305 2.159 0.381 8.457 0.381h7.746l0.508-1.397c0.305-0.787 0.533-1.524 0.533-1.651s-0.635 0.076-1.422 0.432c-1.219 0.559-1.752 0.635-3.81 0.61-1.321 0-2.667-0.076-3.022-0.178l-0.66-0.152 0.076-3.352 0.076-3.327 1.803 0.025c0.99 0.025 2.032 0.178 2.337 0.33 0.533 0.279 0.559 0.254 0.559-1.117v-1.397h-4.851l0.076-2.616 0.076-2.59h2.565c2.184 0 2.667 0.076 3.124 0.483l0.533 0.483v-1.676c0-0.94-0.025-1.676-0.051-1.651-0.051 0.051-2.337 0.102-5.079 0.127z"></path>
<path d="M32.762 2.997c0.508 0.686 0.533 0.965 0.457 8.736-0.076 7.467-0.102 8.051-0.559 8.559l-0.483 0.533h4.571c5.333 0 6.959-0.356 9.092-1.956 2.743-2.108 3.835-4.495 3.632-8.051-0.127-2.438-0.813-4.14-2.184-5.562-2.26-2.362-4.47-2.971-10.794-2.971h-4.267l0.533 0.711zM42.768 5.181c2.514 1.244 3.581 3.378 3.403 6.806-0.127 2.463-0.711 3.81-2.159 5.003-1.473 1.219-3.327 1.803-5.663 1.803h-2.032v-7.086c0-8.178-0.305-7.39 2.946-7.289 1.651 0.051 2.337 0.203 3.505 0.762z"></path>
<path d="M50.819 3.149c0.483 0.813 0.508 1.244 0.432 8.736-0.076 7.314-0.102 7.898-0.559 8.406l-0.483 0.533h4.978l-0.483-0.533c-0.457-0.508-0.483-1.092-0.559-8.279-0.076-7.238-0.051-7.822 0.406-8.736l0.483-0.99h-4.724l0.508 0.864z"></path>
<path d="M80.559 3.073c0.584 0.762 0.584 0.864 0.584 8.483s0 7.721-0.584 8.483l-0.584 0.787h2.311c2.286 0 2.286 0 1.778-0.508-0.279-0.279-0.559-0.762-0.635-1.067-0.076-0.33-0.102-3.327-0.076-6.679l0.076-6.095 5.054 6.349c2.768 3.479 5.41 6.73 5.841 7.187 0.66 0.736 2.362 1.829 2.794 1.829 0.076 0 0.178-4.114 0.203-9.117l0.076-9.117 1.219-1.321h-4.724l0.61 0.66c0.61 0.66 0.61 0.66 0.686 7.162 0.076 5.714 0.025 6.476-0.305 6.146-0.533-0.559-10.235-12.851-10.616-13.46-0.279-0.432-0.584-0.508-2.311-0.508h-1.981l0.584 0.787z"></path>
</symbol>
<symbol id="icon-coiffm" viewBox="0 0 79 32">
<path d="M39.023 0.030c-1.38 0.168-2.537 0.717-3.462 1.652-1.736 1.741-2.166 4.333-1.088 6.504 0.45 0.895 1.167 1.706 1.983 2.245 0.885 0.584 1.736 0.841 2.888 0.88 1.058 0.035 1.86-0.119 2.72-0.529 0.747-0.356 1.657-1.143 2.156-1.865 1.563-2.265 1.296-5.282-0.643-7.231-0.776-0.781-1.805-1.34-2.883-1.563-0.356-0.079-1.355-0.134-1.672-0.094zM39.923 1.751c0.989 0.188 1.968 0.791 2.438 1.504 0.124 0.188 0.124 0.213 0.114 0.905l-0.015 0.712-0.134-0.247c-0.425-0.806-1.162-1.202-2.171-1.152-0.584 0.030-0.955 0.208-1.39 0.678-0.841 0.905-1.029 2.28-0.47 3.408 0.227 0.46 0.702 0.959 1.113 1.157 0.574 0.287 1.434 0.252 2.053-0.074 0.326-0.173 0.673-0.529 0.866-0.9l0.134-0.247 0.015 0.717c0.015 0.821 0.025 0.796-0.48 0.989-0.549 0.208-0.89 0.267-1.637 0.267-0.648 0-0.757-0.015-1.113-0.134-1.009-0.336-1.771-1.049-2.161-2.033-0.153-0.386-0.163-0.43-0.163-1.093 0-0.598 0.015-0.737 0.114-1.014 0.366-1.029 1.177-1.82 2.221-2.166 0.346-0.114 0.46-0.129 1.103-0.129 0.48 0.005 0.826 0.030 1.039 0.079l0.321 0.079-0.237-0.208c-0.129-0.119-0.396-0.292-0.593-0.386-1.167-0.579-2.181-0.336-3.373 0.806-0.317 0.302-0.509 0.435-0.955 0.663-0.658 0.331-0.752 0.445-0.653 0.791 0.079 0.272 0.049 0.321-0.406 0.697-0.445 0.371-0.509 0.504-0.321 0.702 0.163 0.173 0.173 0.346 0.025 0.401-0.247 0.094-0.584-0.277-0.514-0.564 0.020-0.069 0.168-0.272 0.331-0.45 0.391-0.42 0.47-0.598 0.366-0.841-0.064-0.163-0.064-0.193 0.025-0.366 0.119-0.237 0.341-0.406 0.668-0.514 0.381-0.124 0.603-0.312 1.024-0.851 0.42-0.549 0.613-0.742 0.94-0.925 0.539-0.307 1.177-0.396 1.879-0.262z"></path>
<path d="M77.408 16.836c-0.598 0.218-0.92 0.915-0.727 1.583 0.163 0.549 0.589 0.87 1.167 0.87 0.757 0 1.251-0.5 1.251-1.261 0-0.574-0.262-0.974-0.776-1.187-0.208-0.089-0.678-0.089-0.915-0.005zM78.294 17.039c0.188 0.094 0.396 0.321 0.475 0.514 0.094 0.227 0.099 0.732 0.005 0.945-0.242 0.574-1.019 0.786-1.508 0.415-0.574-0.44-0.509-1.513 0.114-1.84 0.312-0.158 0.638-0.173 0.915-0.035z"></path>
<path d="M77.354 18.053v0.692h0.124c0.119 0 0.124-0.015 0.124-0.297s0.005-0.297 0.119-0.297c0.094 0 0.163 0.064 0.307 0.297 0.138 0.227 0.208 0.297 0.302 0.297 0.114 0 0.114-0.005-0.084-0.297l-0.203-0.297 0.114-0.044c0.178-0.064 0.257-0.193 0.252-0.391-0.010-0.282-0.138-0.356-0.638-0.356h-0.415v0.692z"></path>
<path d="M4.031 17.187c-1.083 0.203-1.968 0.673-2.661 1.405-0.598 0.633-1.014 1.375-1.227 2.181-0.143 0.554-0.158 1.568-0.030 2.137 0.336 1.454 1.261 2.607 2.631 3.279 0.831 0.41 1.197 0.49 2.275 0.495 0.539 0 1.039-0.025 1.261-0.069 0.519-0.094 1.207-0.321 1.558-0.514l0.297-0.168 0.015-0.994 0.010-0.999h-0.158c-0.148 0-0.173 0.025-0.287 0.262-0.193 0.396-0.752 0.94-1.192 1.147-0.544 0.257-0.925 0.341-1.553 0.341-0.445 0.005-0.603-0.015-0.875-0.109-0.633-0.218-1.256-0.712-1.647-1.296-0.905-1.36-0.9-3.442 0.015-4.783 0.376-0.544 0.87-0.959 1.419-1.192 0.351-0.153 0.638-0.208 1.063-0.203 1.227 0 2.231 0.529 2.745 1.449 0.158 0.287 0.198 0.326 0.326 0.326h0.143v-2.018l-0.41-0.203c-0.93-0.46-2.631-0.678-3.719-0.475z"></path>
<path d="M14.269 17.167c-0.772 0.099-1.578 0.396-2.161 0.791-0.401 0.272-1.098 0.974-1.36 1.365-0.237 0.361-0.475 0.91-0.618 1.439s-0.153 1.696-0.020 2.236c0.267 1.068 0.791 1.919 1.573 2.557 0.994 0.811 1.954 1.157 3.18 1.157 1.375 0 2.527-0.475 3.492-1.434 2.097-2.097 1.835-5.401-0.574-7.211-0.92-0.692-2.344-1.053-3.512-0.9zM15.713 18.255c0.43 0.134 1.014 0.544 1.355 0.95 0.589 0.697 0.88 1.494 0.92 2.513 0.030 0.707-0.020 1.088-0.227 1.706-0.198 0.584-0.41 0.92-0.895 1.405-0.633 0.633-1.212 0.89-2.013 0.89-1.434 0-2.696-1.207-3.062-2.933-0.094-0.445-0.089-1.281 0.010-1.756 0.252-1.232 1.103-2.339 2.107-2.735 0.534-0.208 1.202-0.223 1.805-0.040z"></path>
<path d="M21.599 17.172c-0.079 0.059-0.084 0.361-0.094 4.773-0.015 4.669-0.015 4.709 0.084 4.748 0.054 0.020 0.445 0.030 0.866 0.015l0.767-0.025 0.015-4.738 0.010-4.738-0.109-0.040c-0.193-0.074-1.439-0.069-1.538 0.005z"></path>
<path d="M25.006 17.147c-0.015 0.015-0.030 2.137-0.030 4.713 0 4.476 0.005 4.689 0.089 4.763 0.079 0.069 0.218 0.084 0.89 0.084h0.801v-4.105h3.749l0.079-0.124c0.119-0.183 0.114-1.019-0.010-1.128-0.084-0.074-0.292-0.084-1.954-0.084h-1.865v-3.165h2.107c2.478 0.005 2.31 0.044 2.285-0.514-0.015-0.317-0.025-0.356-0.139-0.41-0.094-0.049-0.781-0.064-3.047-0.064-1.607 0-2.938 0.015-2.958 0.035z"></path>
<path d="M32.89 21.831c0 4.501 0.005 4.718 0.089 4.793 0.079 0.069 0.213 0.084 0.866 0.084h0.776v-4.105h1.87c1.751 0 1.879-0.005 1.954-0.089 0.109-0.119 0.124-1.103 0.020-1.192-0.049-0.035-0.658-0.059-1.944-0.064l-1.874-0.015v-3.116l2.122-0.015c2.463-0.015 2.305 0.020 2.305-0.48 0-0.252-0.020-0.321-0.114-0.41l-0.119-0.109-5.95 0.005v4.713z"></path>
<path d="M43.049 17.152c-0.035 0.020-0.163 0.297-0.287 0.613-0.129 0.321-0.49 1.197-0.801 1.954-0.317 0.757-0.801 1.944-1.083 2.636-0.277 0.692-0.687 1.696-0.915 2.226-0.41 0.974-0.841 2.053-0.841 2.117 0 0.020 0.317 0.030 0.707 0.020l0.702-0.015 0.485-1.321c0.262-0.727 0.554-1.528 0.638-1.781l0.163-0.455 1.36 0.010 1.36 0.015 0.351 1.014c0.198 0.559 0.475 1.345 0.623 1.756l0.267 0.742 0.95 0.015c0.524 0.005 0.95-0.005 0.95-0.020 0-0.049-0.89-2.325-1.395-3.556-0.242-0.598-0.727-1.81-1.078-2.696s-0.791-1.983-0.979-2.448l-0.341-0.841-0.391-0.010c-0.213-0.010-0.415 0-0.445 0.025zM43.667 20.768c0.247 0.687 0.45 1.261 0.45 1.271s-0.435 0.020-0.969 0.020c-0.534 0-0.959-0.020-0.95-0.040 0.010-0.025 0.227-0.613 0.485-1.311s0.485-1.251 0.5-1.232c0.020 0.020 0.237 0.598 0.485 1.291z"></path>
<path d="M49.672 17.197l-0.104 0.089-0.049 4.624c-0.044 4.155-0.040 4.634 0.030 4.709 0.109 0.124 1.004 0.129 1.103 0.010 0.054-0.069 0.064-0.683 0.054-3.502l-0.015-3.418 0.208 0.223c0.114 0.124 0.42 0.49 0.683 0.816 0.257 0.326 0.663 0.816 0.895 1.088s0.722 0.861 1.088 1.311c0.366 0.45 0.945 1.152 1.286 1.563s0.851 1.029 1.133 1.37l0.514 0.628 0.45 0.005c0.247 0 0.5 0.010 0.564 0.015 0.064 0.010 0.168-0.030 0.232-0.079l0.119-0.094v-3.274c0.005-1.8 0.020-3.868 0.035-4.59 0.044-1.657 0.069-1.588-0.603-1.573-0.683 0.010-0.673-0.005-0.638 0.851 0.044 1.326 0.079 6.069 0.040 6.064-0.020 0-0.183-0.183-0.361-0.406s-0.544-0.658-0.816-0.974c-0.272-0.312-0.776-0.905-1.123-1.311-0.791-0.945-3.175-3.754-3.398-4.011l-0.173-0.193-0.519-0.015c-0.455-0.020-0.539-0.010-0.633 0.074z"></path>
<path d="M63.995 17.162c-1.914 0.218-3.502 1.489-4.095 3.289-0.866 2.621 0.687 5.376 3.467 6.143 0.396 0.114 2.211 0.129 2.686 0.025 0.668-0.148 1.296-0.386 1.622-0.613l0.134-0.094v-1.973h-0.143c-0.129 0-0.168 0.040-0.312 0.307-0.485 0.91-1.538 1.474-2.755 1.474-0.846 0-1.385-0.237-2.062-0.915-0.678-0.673-0.994-1.365-1.108-2.399-0.109-1.004 0.109-1.998 0.603-2.775 0.391-0.608 0.979-1.113 1.548-1.325 0.846-0.317 1.983-0.203 2.799 0.272 0.356 0.208 0.826 0.712 1.004 1.073 0.119 0.247 0.153 0.282 0.282 0.282h0.143v-2.028l-0.257-0.148c-0.767-0.44-2.433-0.717-3.556-0.593z"></path>
<path d="M69.673 17.202c-0.079 0.084-0.084 0.485-0.084 4.738 0 3.551 0.015 4.664 0.059 4.709s0.772 0.059 2.958 0.059c3.353 0 3.066 0.044 3.066-0.504 0-0.519 0.158-0.485-2.265-0.485h-2.087v-3.116h3.497l0.104-0.114c0.094-0.104 0.109-0.173 0.109-0.589 0-0.391-0.015-0.485-0.089-0.549-0.079-0.074-0.297-0.084-1.845-0.094l-1.751-0.015v-3.116l2.072-0.015c2.404-0.015 2.255 0.020 2.255-0.48 0-0.252-0.020-0.321-0.114-0.41l-0.114-0.109h-2.849c-2.691 0-2.849 0.005-2.923 0.089z"></path>
<path d="M25.936 28.642c-0.223 0.064-0.317 0.198-0.351 0.485l-0.030 0.252h-0.237c-0.183 0-0.242 0.020-0.242 0.074s0.059 0.074 0.247 0.074h0.247v1.731h0.321v-1.706l0.287-0.015c0.208-0.010 0.282-0.035 0.282-0.084 0-0.054-0.064-0.074-0.267-0.074-0.302 0-0.356-0.074-0.272-0.356 0.054-0.203 0.114-0.237 0.406-0.237 0.203 0 0.237-0.015 0.223-0.089-0.020-0.099-0.361-0.134-0.613-0.054z"></path>
<path d="M65.138 29.923v1.335h0.346v-2.671h-0.346v1.335z"></path>
<path d="M12.805 29.329c-0.272 0.044-0.589 0.188-0.623 0.282-0.049 0.124-0.114 0.064-0.114-0.109 0-0.153-0.015-0.168-0.109-0.153-0.064 0.015-0.129 0.025-0.148 0.025-0.025 0.005-0.040 0.593-0.040 1.316v1.311h0.297v-0.519c0-0.287 0.015-0.519 0.030-0.519s0.099 0.054 0.183 0.119c0.307 0.232 0.88 0.297 1.365 0.148 0.786-0.232 0.979-1.187 0.341-1.667-0.277-0.208-0.757-0.302-1.182-0.232zM13.631 29.601c0.218 0.129 0.415 0.445 0.415 0.673 0 0.648-0.643 1.039-1.35 0.826-0.539-0.163-0.772-0.781-0.48-1.261 0.218-0.361 0.984-0.49 1.415-0.237z"></path>
<path d="M21.287 29.329c-0.336 0.049-0.707 0.257-0.856 0.475-0.262 0.381-0.168 0.945 0.213 1.232 0.529 0.406 1.543 0.356 1.988-0.094 0.341-0.336 0.391-0.786 0.124-1.162-0.252-0.351-0.866-0.539-1.469-0.45zM22.049 29.552c0.356 0.153 0.554 0.425 0.554 0.776 0 0.445-0.371 0.776-0.91 0.816-0.282 0.025-0.361 0.010-0.593-0.104-0.534-0.262-0.668-0.796-0.317-1.246 0.232-0.292 0.861-0.41 1.266-0.242z"></path>
<path d="M29.576 29.329c-0.529 0.089-0.851 0.346-0.945 0.762-0.099 0.455 0.089 0.856 0.519 1.083 0.173 0.094 0.282 0.109 0.722 0.109 0.445 0 0.554-0.015 0.757-0.119 0.208-0.099 0.43-0.341 0.43-0.465 0-0.020-0.064-0.035-0.139-0.035-0.099 0-0.173 0.044-0.252 0.153-0.371 0.504-1.395 0.425-1.657-0.129-0.158-0.331-0.198-0.321 1.014-0.321h1.098l-0.030-0.203c-0.015-0.109-0.084-0.292-0.158-0.401-0.223-0.336-0.816-0.529-1.36-0.435zM30.348 29.572c0.203 0.094 0.415 0.356 0.415 0.519 0 0.069-0.104 0.079-0.92 0.079h-0.915l0.035-0.114c0.153-0.49 0.841-0.732 1.385-0.485z"></path>
<path d="M34.191 29.329c-0.534 0.079-0.791 0.317-0.678 0.628 0.069 0.203 0.282 0.297 0.935 0.41 0.747 0.134 0.875 0.198 0.856 0.41-0.025 0.242-0.262 0.356-0.757 0.356-0.45 0-0.692-0.104-0.806-0.336-0.049-0.099-0.099-0.134-0.213-0.134-0.153 0-0.173 0.044-0.089 0.213 0.148 0.272 0.549 0.43 1.113 0.43 0.767 0 1.266-0.351 1.058-0.747-0.089-0.158-0.396-0.277-1.009-0.381-0.45-0.079-0.608-0.124-0.702-0.213-0.148-0.143-0.148-0.198 0.010-0.346 0.109-0.099 0.183-0.119 0.504-0.134 0.425-0.015 0.687 0.074 0.776 0.272 0.064 0.148 0.386 0.168 0.336 0.025-0.124-0.356-0.692-0.549-1.335-0.455z"></path>
<path d="M38.776 29.329c-0.623 0.079-0.94 0.465-0.618 0.762 0.143 0.134 0.341 0.198 0.955 0.302 0.579 0.099 0.692 0.143 0.762 0.297 0.049 0.109 0.040 0.143-0.054 0.242-0.326 0.346-1.311 0.277-1.489-0.104-0.059-0.134-0.104-0.163-0.237-0.163-0.148 0-0.163 0.010-0.134 0.109 0.104 0.336 0.529 0.534 1.138 0.534 0.831 0 1.321-0.371 1.034-0.786-0.114-0.158-0.346-0.247-0.88-0.331-0.554-0.089-0.737-0.143-0.846-0.267-0.064-0.069-0.069-0.114-0.030-0.193 0.094-0.168 0.317-0.252 0.683-0.252 0.361 0 0.603 0.099 0.707 0.292 0.035 0.069 0.104 0.104 0.198 0.104 0.173 0 0.183-0.059 0.049-0.247-0.173-0.242-0.687-0.366-1.236-0.297z"></path>
<path d="M46.516 29.329c-0.856 0.124-1.276 0.816-0.89 1.469 0.346 0.584 1.598 0.692 2.186 0.188 0.242-0.203 0.331-0.44 0.302-0.767-0.035-0.356-0.193-0.564-0.549-0.737-0.336-0.158-0.663-0.208-1.049-0.153zM47.313 29.572c0.267 0.124 0.47 0.391 0.5 0.663 0.084 0.821-1.142 1.251-1.776 0.618-0.406-0.406-0.267-1.034 0.282-1.281 0.262-0.124 0.727-0.119 0.994 0z"></path>
<path d="M51.576 29.334c-0.242 0.040-0.584 0.213-0.584 0.297 0 0.030-0.020 0.035-0.049 0.020-0.025-0.015-0.049-0.084-0.049-0.153 0-0.099-0.025-0.119-0.148-0.119h-0.148v1.879h0.287l0.020-0.638c0.015-0.692 0.049-0.786 0.356-1.014 0.188-0.143 0.776-0.168 1.019-0.044 0.237 0.124 0.292 0.312 0.292 1.063l0.005 0.633h0.297v-0.692c0-0.821-0.049-0.984-0.331-1.128-0.223-0.114-0.638-0.158-0.964-0.104z"></path>
<path d="M56.448 29.334c-0.223 0.040-0.485 0.163-0.534 0.242-0.054 0.089-0.124 0.049-0.124-0.074 0-0.104-0.025-0.124-0.148-0.124h-0.148v1.879h0.297v-0.569c0-0.673 0.064-0.88 0.331-1.063 0.158-0.109 0.232-0.124 0.598-0.124 0.406 0 0.415 0.005 0.559 0.163l0.143 0.158v1.434h0.346v-0.692c0-0.851-0.049-0.999-0.356-1.133-0.257-0.114-0.683-0.153-0.964-0.099z"></path>
<path d="M61.206 29.329c-0.277 0.040-0.598 0.188-0.727 0.331-0.317 0.346-0.307 0.989 0.020 1.335 0.168 0.178 0.589 0.312 0.994 0.312 0.584 0 0.945-0.153 1.138-0.485l0.094-0.158h-0.168c-0.134 0-0.188 0.030-0.237 0.124-0.153 0.292-0.752 0.455-1.157 0.321-0.317-0.104-0.623-0.445-0.623-0.692 0-0.030 0.381-0.049 1.113-0.049h1.113l-0.030-0.139c-0.074-0.341-0.139-0.465-0.331-0.628-0.282-0.242-0.717-0.341-1.197-0.272zM61.997 29.591c0.193 0.109 0.42 0.386 0.42 0.509 0 0.054-0.183 0.069-0.94 0.069-0.514 0-0.94-0.010-0.94-0.025 0-0.153 0.336-0.529 0.544-0.613 0.232-0.094 0.697-0.064 0.915 0.059z"></path>
<path d="M17.781 29.374c-0.203 0.049-0.326 0.124-0.465 0.272-0.163 0.173-0.203 0.163-0.203-0.069 0-0.178-0.010-0.198-0.124-0.198h-0.124v1.879h0.297v-0.574c0-0.485 0.015-0.603 0.099-0.732 0.124-0.203 0.43-0.371 0.742-0.41 0.198-0.025 0.247-0.049 0.247-0.119 0-0.074-0.035-0.094-0.158-0.089-0.089 0.005-0.227 0.020-0.312 0.040z"></path>
<path d="M42.683 30.318v0.94h0.346v-1.879h-0.346v0.94z"></path>
</symbol>
<symbol id="icon-coiffs" viewBox="0 0 71 32">
<path d="M34.027 3.179c-2.176 1.003-3.051 3.499-1.963 5.589 0.747 1.387 1.877 2.091 3.413 2.112 2.176 0 3.733-1.045 4.224-2.88 0.917-3.349-2.539-6.272-5.675-4.821zM37.141 4.331c0.533 0.363 0.747 0.661 0.789 1.173 0.085 0.789-0.021 0.832-0.64 0.256-0.619-0.555-1.301-0.533-2.005 0.064-0.448 0.405-0.576 0.683-0.576 1.408 0 1.621 1.579 2.56 2.624 1.515 0.555-0.555 0.64-0.533 0.64 0.192 0 0.576-0.064 0.64-0.939 0.768-1.963 0.299-3.328-0.725-3.328-2.496 0-0.512 0.149-1.152 0.341-1.408 0.427-0.597 1.387-1.109 2.155-1.109 0.533-0.021 0.555-0.043 0.213-0.235-0.213-0.128-0.619-0.171-0.896-0.107-0.789 0.192-2.304 1.6-2.731 2.517-0.277 0.619-0.469 0.789-0.619 0.64-0.384-0.384 0.235-1.557 1.408-2.645 0.917-0.853 1.216-1.003 1.963-1.024 0.576 0 1.131 0.171 1.6 0.491z"></path>
<path d="M7.979 14.72c-1.152 0.576-1.835 1.557-1.963 2.773-0.256 2.645 2.539 4.565 5.269 3.605 0.555-0.192 0.661-0.341 0.661-0.896-0.021-0.576-0.043-0.64-0.277-0.341-0.427 0.555-1.131 0.832-2.069 0.832-0.725 0-1.024-0.128-1.6-0.704-1.259-1.259-1.216-3.264 0.064-4.501 0.96-0.896 2.795-0.768 3.605 0.277 0.235 0.299 0.256 0.235 0.277-0.32 0-0.789-0.213-0.896-1.899-1.067-0.939-0.085-1.387-0.021-2.069 0.341z"></path>
<path d="M15.573 14.763c-1.28 0.661-1.92 1.643-1.92 2.987 0 1.323 0.427 2.155 1.536 2.944 2.261 1.643 5.504-0.043 5.504-2.88 0-0.789-0.128-1.323-0.491-1.835-0.555-0.832-2.069-1.685-3.029-1.685-0.363 0-1.088 0.213-1.6 0.469zM18.645 15.467c1.003 0.917 1.259 2.432 0.683 3.819-0.384 0.939-1.109 1.408-2.155 1.408s-1.643-0.384-2.112-1.365c-0.683-1.451-0.32-3.179 0.853-4.075 0.661-0.512 2.069-0.405 2.731 0.213z"></path>
<path d="M22.4 17.813v3.52h1.067v-7.040h-1.067v3.52z"></path>
<path d="M24.96 17.813v3.52h0.533c0.512 0 0.533-0.043 0.533-1.493v-1.493h1.493c1.344 0 1.493-0.043 1.493-0.427 0-0.363-0.171-0.405-1.429-0.469l-1.451-0.064-0.064-1.237-0.064-1.216h1.728c1.365 0 1.707-0.064 1.707-0.32s-0.384-0.32-2.24-0.32h-2.24v3.52z"></path>
<path d="M30.933 17.813v3.52h0.533c0.512 0 0.533-0.043 0.533-1.493v-1.472l1.429-0.064c1.152-0.043 1.451-0.128 1.515-0.427s-0.149-0.384-1.387-0.427l-1.451-0.064-0.128-2.432 1.643-0.064c1.088-0.043 1.685-0.149 1.749-0.341s-0.469-0.256-2.176-0.256h-2.261v3.52z"></path>
<path d="M37.376 17.323c-1.621 3.861-1.664 4.011-1.216 4.011 0.192 0 0.469-0.341 0.661-0.811 0.747-1.92 0.661-1.856 2.624-1.771 0.299 0.021 0.512 0.341 0.811 1.237 0.363 1.067 0.491 1.237 0.981 1.301 0.32 0.043 0.576 0 0.576-0.085 0-0.491-2.709-6.912-2.901-6.912-0.149 0-0.832 1.365-1.536 3.029z"></path>
<path d="M43.691 14.763c-0.043 0.277-0.107 1.856-0.149 3.52-0.043 2.667-0.021 3.051 0.277 3.051 0.384 0 0.384 0.149 0.341-2.837-0.021-1.749 0.043-2.283 0.256-2.261 0.149 0 1.216 1.152 2.368 2.56 2.901 3.499 2.923 3.499 2.923-0.981 0-2.987-0.043-3.52-0.32-3.52s-0.32 0.427-0.32 2.581c0 1.408-0.085 2.539-0.192 2.496-0.085-0.043-0.789-0.789-1.515-1.664-1.899-2.261-3.029-3.413-3.328-3.413-0.128 0-0.299 0.213-0.341 0.469z"></path>
<path d="M53.653 14.549c-1.685 0.597-2.731 2.475-2.24 4.117s1.877 2.667 3.627 2.667c1.451 0 2.347-0.469 2.347-1.216v-0.555l-0.512 0.469c-1.024 0.96-2.709 0.939-3.712-0.043-1.067-1.088-0.917-3.541 0.277-4.587 0.811-0.683 2.283-0.661 3.243 0.085 0.619 0.469 0.704 0.491 0.704 0.149 0-0.597-0.299-0.917-1.088-1.131-0.896-0.256-1.813-0.256-2.645 0.043z"></path>
<path d="M58.88 17.813v3.52h2.133c1.792 0 2.133-0.043 2.133-0.341 0-0.277-0.256-0.32-1.536-0.256l-1.557 0.064-0.064-1.237-0.064-1.216h1.408c1.237 0 1.387-0.043 1.387-0.427s-0.149-0.427-1.387-0.427h-1.387v-2.56h1.6c1.28 0 1.6-0.064 1.6-0.32s-0.384-0.32-2.133-0.32h-2.133v3.52z"></path>
</symbol>
<symbol id="icon-bes" viewBox="0 0 89 32">
<path d="M0 16v16h89.351v-32h-89.351v16zM29.368 16v14.892h-28.26v-29.784h28.26v14.892zM58.736 16v14.892h-28.121v-29.784h28.121v14.892zM88.242 16v14.892h-28.19v-29.784h28.19v14.892z"></path>
<path d="M9.032 16.637l0.042 10.861 3.186-0.014c2.493 0 3.422-0.055 4.267-0.249 2.216-0.499 3.865-1.69 4.641-3.38 0.471-1.025 0.582-2.923 0.249-4.073-0.457-1.607-1.842-3.145-3.283-3.671l-0.637-0.236 0.429-0.291c1.122-0.748 1.829-2.507 1.704-4.281-0.097-1.552-0.513-2.604-1.399-3.477-1.399-1.399-2.909-1.856-6.636-1.967l-2.59-0.083 0.028 10.861zM15.169 8.783c1.233 0.526 1.787 1.496 1.773 3.158-0.014 2.286-1.039 3.2-3.81 3.394l-1.219 0.083v-7.010l1.358 0.069c0.803 0.042 1.565 0.166 1.898 0.305zM15.806 17.953c1.219 0.277 2.161 0.9 2.618 1.718 0.471 0.859 0.485 2.258 0.014 3.228-0.665 1.358-1.884 1.884-4.682 1.995l-1.842 0.083v-7.245h1.468c0.831 0 1.87 0.097 2.424 0.222z"></path>
<path d="M38.788 16.623v10.805h11.636v-2.632h-8.713l-0.083-7.896h8.658v-2.632h-8.658v-5.749l8.824-0.139v-2.494l-5.832-0.042-5.832-0.028v10.805z"></path>
<path d="M72.353 5.597c-1.815 0.443-3.352 1.607-4.087 3.103-0.429 0.859-0.457 1.025-0.457 2.313 0 1.122 0.055 1.51 0.305 2.036 0.651 1.413 2.203 2.618 4.821 3.713 2.784 1.177 3.574 1.69 4.197 2.743 0.319 0.554 0.374 0.803 0.374 1.69-0.014 2.507-1.718 4.142-4.114 3.99-2.009-0.139-3.449-1.427-3.671-3.311-0.042-0.374-0.125-0.679-0.166-0.679-0.194 0-2.715 0.568-2.771 0.637-0.028 0.028 0.014 0.402 0.111 0.817 0.429 1.898 1.926 3.81 3.629 4.613 3.394 1.621 7.536 0.249 9.184-3.020 1.247-2.507 0.887-5.389-0.914-7.287-0.928-0.984-2.064-1.649-4.461-2.618-3.034-1.219-3.768-1.939-3.657-3.546 0.069-1.039 0.568-1.69 1.704-2.272 0.693-0.346 0.984-0.402 1.801-0.402 0.817 0.014 1.122 0.083 1.732 0.416 0.416 0.222 0.914 0.651 1.136 0.956s0.443 0.554 0.499 0.554c0.069 0 1.898-1.039 2.216-1.261 0.111-0.069-0.817-1.274-1.33-1.745-1.593-1.441-3.865-1.967-6.081-1.441z"></path>
</symbol>
<symbol id="icon-alpecin" viewBox="0 0 54 32">
<path fill="#fff" style="fill: var(--color2, #fff)" d="M53.678 6.451v18.677h-14.261c-2.774 3.946-7.315 6.536-12.454 6.536-5.098 0-9.614-2.571-12.39-6.494l-0.268-0.064h-14.137v-18.654h14.736c2.794-3.679 7.149-6.064 12.059-6.064 4.931 0 9.329 2.363 12.123 6.064 0.205 0.019 14.592 0 14.592 0z"></path>
<path fill="none" stroke="#d9dadb" style="stroke: var(--color3, #d9dadb)" stroke-linejoin="miter" stroke-linecap="butt" stroke-miterlimit="10.433" stroke-width="4.896" d="M53.678 6.451v18.677h-14.261c-2.774 3.946-7.315 6.536-12.454 6.536-5.098 0-9.614-2.571-12.39-6.494l-0.268-0.064h-14.137v-18.654h14.736c2.794-3.679 7.149-6.064 12.059-6.064 4.931 0 9.329 2.363 12.123 6.064 0.205 0.019 14.592 0 14.592 0zM53.678 6.451"></path>
<path fill="#cb2b31" style="fill: var(--color4, #cb2b31)" d="M38.76 23.894c-2.508 3.928-6.843 6.514-11.773 6.514-4.954 0-9.29-2.586-11.797-6.531-0.023 0-13.829 0-13.829 0v-16.155h14.113c2.549-3.679 6.763-6.101 11.512-6.101 4.744 0 8.934 2.405 11.483 6.101-0.018-0.018 14.014 0 14.014 0v16.155c0 0-13.765 0-13.725 0.017z"></path>
<path fill="#fff" style="fill: var(--color2, #fff)" d="M37.731 12.453c0 0 0.040 2.055 0 2.031-0.227-0.203-0.512-0.326-0.821-0.326-0.885 0-1.748 0.699-1.788 2.277-0.023 1.503 0.903 2.304 1.788 2.304 0.309 0 0.576-0.121 0.821-0.331v2.059c-0.512 0.245-1.169 0.351-1.869 0.351-1.728 0-3.142-1.956-3.142-4.359 0-2.427 1.414-4.355 3.142-4.378 0.803-0.023 1.478 0.146 1.869 0.373z"></path>
<path fill="#fff" style="fill: var(--color2, #fff)" d="M15.766 20.769v-10.848h2.339v10.848h-2.339z"></path>
<path fill="#fff" style="fill: var(--color2, #fff)" d="M41.554 20.769v-8.403h2.341v1.111c0.64-0.902 1.174-1.251 1.914-1.251 1.315 0 2.032 1.129 2.032 2.997v5.547h-2.339v-4.598c0-0.843-0.209-1.216-0.681-1.216-0.367 0-0.676 0.291-0.925 0.908v4.907h-2.341z"></path>
<path fill="#fff" style="fill: var(--color2, #fff)" d="M38.329 20.769v-8.403h2.341v8.403h-2.341z"></path>
<path fill="#fff" style="fill: var(--color2, #fff)" d="M38.243 10.661c0-0.699 0.559-1.275 1.256-1.275 0.699 0 1.252 0.576 1.252 1.275 0 0.722-0.554 1.297-1.252 1.297-0.697 0-1.256-0.576-1.256-1.297z"></path>
<path fill="#fff" style="fill: var(--color2, #fff)" d="M32.202 18.186v2.154c-0.821 0.371-1.479 0.576-2.607 0.576-2.056 0-3.557-1.909-3.557-4.376 0-2.469 1.501-4.356 3.248-4.314 2.013 0.059 3.246 2.054 2.979 4.971h-3.882c0 0.861 0.717 1.686 1.622 1.686 0.636 0 1.52-0.023 2.196-0.698zM30.148 15.286v-0.309c0-0.512-0.389-0.925-0.861-0.925-0.454 0-0.821 0.413-0.821 0.925v0.309h1.682z"></path>
<path fill="#fff" style="fill: var(--color2, #fff)" d="M5.675 20.769l3.679-10.848h2.484l3.679 10.848h-2.672l-0.739-2.584h-3.021l-0.717 2.584zM9.784 16.003h1.768l-0.883-3.248z"></path>
<path fill="#fff" style="fill: var(--color2, #fff)" d="M21.254 14.814v3.534c0.349 0.245 0.611 0.349 0.88 0.349 0.739 0 1.234-0.902 1.234-2.218 0-1.275-0.494-2.141-1.234-2.141-0.309 0-0.531 0.126-0.88 0.475zM21.254 12.366v0.826c0.594-0.699 1.088-0.966 1.746-0.966 1.538 0 2.712 1.827 2.712 4.294 0 2.608-1.256 4.395-3.061 4.395-0.494 0-0.926-0.099-1.397-0.368v3.861h-2.346v-12.042h2.346z"></path>
</symbol>
</defs>
</svg>
